GeoramaExtraExtended-ExtraBold.ufo
<glyph name="exclam" format="2">
  <advance width="382.44"/>
  <unicode hex="0021"/>
  <outline>
    <contour>
      <point x="84.9" y="259.7" type="line"/>
      <point x="303.56" y="259.7" type="line"/>
      <point x="320.76" y="740.0" type="line"/>
      <point x="67.70000000000002" y="740.0" type="line"/>
    </contour>
    <contour>
      <point x="48.66" y="90.96000000000001" type="curve" smooth="yes"/>
      <point x="48.66" y="24.22"/>
      <point x="87.63999999999999" y="-9.459999999999999"/>
      <point x="191.22" y="-9.459999999999999" type="curve" smooth="yes"/>
      <point x="294.94000000000005" y="-9.459999999999999"/>
      <point x="333.78000000000003" y="24.22"/>
      <point x="333.78000000000003" y="90.96000000000001" type="curve" smooth="yes"/>
      <point x="333.78000000000003" y="158.55999999999997"/>
      <point x="294.94000000000005" y="192.23999999999998"/>
      <point x="191.22" y="192.23999999999998" type="curve" smooth="yes"/>
      <point x="87.5" y="192.23999999999998"/>
      <point x="48.66" y="158.55999999999997"/>
    </contour>
  </outline>
</glyph>
<glyph name="numbersign" format="2">
  <advance width="1047.76"/>
  <unicode hex="0023"/>
  <outline>
    <contour>
      <point x="115.36" y="425.97999999999996" type="line"/>
      <point x="214.76" y="425.97999999999996" type="line"/>
      <point x="179.46" y="279.38" type="line"/>
      <point x="84.18" y="279.38" type="line"/>
      <point x="84.18" y="137.54" type="line"/>
      <point x="145.94" y="137.54" type="line"/>
      <point x="113.72" y="0.0" type="line"/>
      <point x="383.12" y="0.0" type="line"/>
      <point x="415.34000000000003" y="137.54" type="line"/>
      <point x="532.36" y="137.54" type="line"/>
      <point x="500.13999999999993" y="0.0" type="line"/>
      <point x="769.54" y="0.0" type="line"/>
      <point x="801.76" y="137.54" type="line"/>
      <point x="933.26" y="137.54" type="line"/>
      <point x="933.26" y="279.38" type="line"/>
      <point x="835.28" y="279.38" type="line"/>
      <point x="870.5799999999999" y="425.97999999999996" type="line"/>
      <point x="964.4400000000002" y="425.97999999999996" type="line"/>
      <point x="964.4400000000002" y="566.0999999999999" type="line"/>
      <point x="903.1" y="566.0999999999999" type="line"/>
      <point x="935.3" y="700.0" type="line"/>
      <point x="665.9" y="700.0" type="line"/>
      <point x="633.6999999999999" y="566.0999999999999" type="line"/>
      <point x="516.68" y="566.0999999999999" type="line"/>
      <point x="548.88" y="700.0" type="line"/>
      <point x="279.48" y="700.0" type="line"/>
      <point x="247.27999999999997" y="566.0999999999999" type="line"/>
      <point x="115.36" y="566.0999999999999" type="line"/>
    </contour>
    <contour>
      <point x="484.15999999999997" y="425.97999999999996" type="line"/>
      <point x="601.18" y="425.97999999999996" type="line"/>
      <point x="565.88" y="279.38" type="line"/>
      <point x="448.85999999999996" y="279.38" type="line"/>
    </contour>
  </outline>
</glyph>
<glyph name="dollar" format="2">
  <advance width="1047.76"/>
  <unicode hex="0024"/>
  <outline>
    <contour>
      <point x="469.19999999999993" y="-10.0" type="curve" smooth="yes"/>
      <point x="785.92" y="-19.6"/>
      <point x="985.4799999999999" y="50.440000000000005"/>
      <point x="985.4799999999999" y="227.15999999999997" type="curve" smooth="yes"/>
      <point x="985.4799999999999" y="358.96000000000004"/>
      <point x="874.8399999999999" y="422.12000000000006"/>
      <point x="653.7599999999999" y="443.24" type="curve" smooth="yes"/>
      <point x="448.72" y="462.64"/>
      <point x="377.84000000000003" y="450.84000000000003"/>
      <point x="377.84000000000003" y="493.32" type="curve" smooth="yes"/>
      <point x="377.84000000000003" y="525.9599999999999"/>
      <point x="419.48" y="535.84"/>
      <point x="524.92" y="535.84" type="curve" smooth="yes"/>
      <point x="648.5999999999999" y="535.84"/>
      <point x="796.1999999999999" y="517.5600000000001"/>
      <point x="884.8799999999999" y="491.28" type="curve"/>
      <point x="925.2800000000001" y="668.88" type="line"/>
      <point x="817.96" y="692.7199999999999"/>
      <point x="685.28" y="710.0"/>
      <point x="556.1999999999999" y="710.0" type="curve" smooth="yes"/>
      <point x="274.64" y="709.72"/>
      <point x="97.47999999999999" y="652.0400000000001"/>
      <point x="97.47999999999999" y="466.24" type="curve" smooth="yes"/>
      <point x="97.47999999999999" y="342.08"/>
      <point x="193.07999999999998" y="283.20000000000005"/>
      <point x="356.64" y="261.47999999999996" type="curve" smooth="yes"/>
      <point x="592.8000000000001" y="230.0"/>
      <point x="698.5200000000001" y="246.56"/>
      <point x="698.5200000000001" y="200.64" type="curve" smooth="yes"/>
      <point x="698.5200000000001" y="168.04000000000002"/>
      <point x="657.4000000000001" y="158.72"/>
      <point x="548.04" y="158.72" type="curve" smooth="yes"/>
      <point x="409.96" y="158.72"/>
      <point x="241.15999999999997" y="184.56"/>
      <point x="107.12" y="226.72000000000003" type="curve"/>
      <point x="63.28" y="48.68" type="line"/>
      <point x="179.4" y="15.559999999999999"/>
      <point x="327.84" y="-5.84"/>
    </contour>
    <contour>
      <point x="457.76" y="-105.0" type="line"/>
      <point x="633.56" y="-105.0" type="line"/>
      <point x="633.56" y="9.760000000000002" type="line"/>
      <point x="457.76" y="5.32" type="line"/>
    </contour>
    <contour>
      <point x="457.76" y="692.96" type="line"/>
      <point x="633.56" y="693.96" type="line"/>
      <point x="633.56" y="805.0" type="line"/>
      <point x="457.76" y="805.0" type="line"/>
    </contour>
  </outline>
</glyph>
<glyph name="ampersand" format="2">
  <advance width="1116.9599999999998"/>
  <unicode hex="0026"/>
  <outline>
    <contour>
      <point x="781.36" y="-1.4000000000000004" type="line"/>
      <point x="1106.9200000000003" y="1.4000000000000004" type="line"/>
      <point x="541.84" y="431.36" type="line" smooth="yes"/>
      <point x="483.0" y="476.67999999999995"/>
      <point x="467.28" y="490.28000000000003"/>
      <point x="467.28" y="514.3199999999999" type="curve" smooth="yes"/>
      <point x="467.28" y="545.72"/>
      <point x="501.76" y="561.7600000000001"/>
      <point x="561.76" y="561.7600000000001" type="curve" smooth="yes"/>
      <point x="615.44" y="561.7600000000001"/>
      <point x="650.5600000000001" y="543.28"/>
      <point x="650.5600000000001" y="507.5999999999999" type="curve" smooth="yes"/>
      <point x="650.5600000000001" y="480.32"/>
      <point x="631.0" y="461.99999999999994"/>
      <point x="595.4399999999999" y="450.6" type="curve"/>
      <point x="713.36" y="362.96" type="line"/>
      <point x="851.0799999999999" y="397.96"/>
      <point x="897.3199999999999" y="453.68"/>
      <point x="897.3199999999999" y="529.08" type="curve" smooth="yes"/>
      <point x="897.3199999999999" y="645.4000000000001"/>
      <point x="776.3999999999999" y="710.0"/>
      <point x="551.0" y="710.0" type="curve" smooth="yes"/>
      <point x="289.52000000000004" y="710.0"/>
      <point x="193.52" y="627.84"/>
      <point x="193.52" y="511.44" type="curve" smooth="yes"/>
      <point x="193.52" y="457.96000000000004"/>
      <point x="205.44" y="414.08000000000004"/>
      <point x="274.88" y="363.03999999999996" type="curve" smooth="yes"/>
    </contour>
    <contour>
      <point x="440.68" y="-10.0" type="curve" smooth="yes"/>
      <point x="581.92" y="-10.0"/>
      <point x="668.96" y="12.119999999999997"/>
      <point x="744.5600000000002" y="50.44" type="curve"/>
      <point x="606.2800000000001" y="168.48" type="line"/>
      <point x="581.6" y="155.64000000000004"/>
      <point x="545.3199999999999" y="148.16"/>
      <point x="483.88" y="148.16" type="curve" smooth="yes"/>
      <point x="373.2" y="148.16"/>
      <point x="297.56" y="190.51999999999998"/>
      <point x="297.56" y="246.27999999999997" type="curve" smooth="yes"/>
      <point x="297.56" y="280.68"/>
      <point x="323.12" y="299.24"/>
      <point x="371.56" y="310.88" type="curve"/>
      <point x="248.96" y="406.0" type="line"/>
      <point x="112.2" y="378.59999999999997"/>
      <point x="51.08" y="314.76"/>
      <point x="51.08" y="222.52" type="curve" smooth="yes"/>
      <point x="51.08" y="75.0"/>
      <point x="184.92000000000002" y="-10.0"/>
    </contour>
    <contour>
      <point x="909.88" y="112.44" type="line"/>
      <point x="980.8799999999999" y="167.0"/>
      <point x="1028.8799999999999" y="237.72"/>
      <point x="1028.8799999999999" y="319.99999999999994" type="curve" smooth="yes"/>
      <point x="1028.8799999999999" y="341.0"/>
      <point x="1027.32" y="347.96"/>
      <point x="1025.4799999999998" y="361.36000000000007" type="curve"/>
      <point x="822.36" y="360.52000000000004" type="line"/>
      <point x="823.48" y="345.40000000000003"/>
      <point x="823.0400000000001" y="330.84"/>
      <point x="819.6" y="318.28" type="curve" smooth="yes"/>
      <point x="811.8800000000001" y="286.44000000000005"/>
      <point x="798.92" y="260.72"/>
      <point x="754.96" y="232.04000000000002" type="curve"/>
    </contour>
  </outline>
</glyph>
<glyph name="quotesingle" format="2">
  <advance width="292.92"/>
  <unicode hex="0027"/>
  <outline>
    <contour>
      <point x="46.72" y="427.0" type="line"/>
      <point x="246.2" y="427.0" type="line"/>
      <point x="255.5" y="700.0" type="line"/>
      <point x="37.42" y="700.0" type="line"/>
    </contour>
  </outline>
</glyph>
<glyph name="parenleft" format="2">
  <advance width="495.24"/>
  <unicode hex="0028"/>
  <outline>
    <contour>
      <point x="54.94" y="265.0" type="curve" smooth="yes"/>
      <point x="54.94" y="30.28"/>
      <point x="168.76" y="-194.62"/>
      <point x="457.79999999999995" y="-220.0" type="curve"/>
      <point x="457.79999999999995" y="-72.72" type="line"/>
      <point x="307.44000000000005" y="-30.840000000000003"/>
      <point x="265.85999999999996" y="80.56"/>
      <point x="265.85999999999996" y="265.0" type="curve" smooth="yes"/>
      <point x="265.85999999999996" y="449.43999999999994"/>
      <point x="307.44000000000005" y="560.84"/>
      <point x="457.79999999999995" y="602.72" type="curve"/>
      <point x="457.79999999999995" y="750.0" type="line"/>
      <point x="168.76" y="724.62"/>
      <point x="54.94" y="499.71999999999997"/>
    </contour>
  </outline>
</glyph>
<glyph name="parenright" format="2">
  <advance width="495.24"/>
  <unicode hex="0029"/>
  <outline>
    <contour>
      <point x="37.44" y="-72.72" type="curve"/>
      <point x="37.44" y="-220.0" type="line"/>
      <point x="326.48" y="-194.62"/>
      <point x="440.3" y="30.28"/>
      <point x="440.3" y="265.0" type="curve" smooth="yes"/>
      <point x="440.3" y="499.71999999999997"/>
      <point x="326.48" y="724.62"/>
      <point x="37.44" y="750.0" type="curve"/>
      <point x="37.44" y="602.72" type="line"/>
      <point x="187.79999999999998" y="560.84"/>
      <point x="229.38000000000005" y="449.43999999999994"/>
      <point x="229.38000000000005" y="265.0" type="curve" smooth="yes"/>
      <point x="229.38000000000005" y="80.56"/>
      <point x="187.79999999999998" y="-30.840000000000003"/>
    </contour>
  </outline>
</glyph>
<glyph name="asterisk" format="2">
  <advance width="495.24"/>
  <unicode hex="002A"/>
  <outline>
    <contour>
      <point x="153.73999999999998" y="286.06" type="line"/>
      <point x="247.76" y="389.82" type="line"/>
      <point x="341.22" y="285.92" type="line"/>
      <point x="424.74" y="343.94" type="line"/>
      <point x="353.78000000000003" y="466.32000000000005" type="line"/>
      <point x="481.38" y="523.4399999999999" type="line"/>
      <point x="449.72" y="618.4200000000001" type="line"/>
      <point x="312.8" y="592.54" type="line"/>
      <point x="299.9" y="730.0" type="line"/>
      <point x="195.62" y="730.0" type="line"/>
      <point x="182.72000000000003" y="592.54" type="line"/>
      <point x="45.52" y="618.4200000000001" type="line"/>
      <point x="13.86" y="523.4399999999999" type="line"/>
      <point x="141.73999999999998" y="466.32000000000005" type="line"/>
      <point x="70.08000000000001" y="344.21999999999997" type="line"/>
    </contour>
  </outline>
</glyph>
<glyph name="plus" format="2">
  <advance width="750.92"/>
  <unicode hex="002B"/>
  <outline>
    <contour>
      <point x="268.28000000000003" y="84.89999999999999" type="line"/>
      <point x="481.78" y="84.89999999999999" type="line"/>
      <point x="481.78" y="224.82000000000002" type="line"/>
      <point x="690.5" y="224.82000000000002" type="line"/>
      <point x="690.5" y="403.92" type="line"/>
      <point x="481.78" y="403.92" type="line"/>
      <point x="481.78" y="542.98" type="line"/>
      <point x="268.28000000000003" y="542.98" type="line"/>
      <point x="268.28000000000003" y="403.92" type="line"/>
      <point x="60.42" y="403.92" type="line"/>
      <point x="60.42" y="224.82000000000002" type="line"/>
      <point x="268.28000000000003" y="224.82000000000002" type="line"/>
    </contour>
  </outline>
</glyph>
<glyph name="comma" format="2">
  <advance width="366.34000000000003"/>
  <unicode hex="002C"/>
  <outline>
    <contour>
      <point x="67.3" y="99.38" type="line"/>
      <point x="70.42" y="77.66"/>
      <point x="72.12" y="54.8"/>
      <point x="72.12" y="32.66" type="curve" smooth="yes"/>
      <point x="72.12" y="-39.96"/>
      <point x="54.46" y="-113.56"/>
      <point x="-3.8200000000000003" y="-177.83999999999997" type="curve"/>
      <point x="196.82" y="-200.0" type="line"/>
      <point x="277.14" y="-130.42000000000002"/>
      <point x="317.44" y="-55.28000000000001"/>
      <point x="317.44" y="26.919999999999998" type="curve" smooth="yes"/>
      <point x="317.44" y="54.779999999999994"/>
      <point x="313.15999999999997" y="80.64"/>
      <point x="304.74" y="101.5" type="curve"/>
    </contour>
  </outline>
</glyph>
<glyph name="hyphen" format="2">
  <advance width="475.23999999999995"/>
  <unicode hex="002D"/>
  <outline>
    <contour>
      <point x="51.82000000000001" y="236.94" type="line"/>
      <point x="423.42" y="236.94" type="line"/>
      <point x="423.42" y="418.62" type="line"/>
      <point x="51.82000000000001" y="418.62" type="line"/>
    </contour>
  </outline>
</glyph>
<glyph name="period" format="2">
  <advance width="380.1"/>
  <unicode hex="002E"/>
  <outline>
    <contour>
      <point x="47.56" y="90.96000000000001" type="curve" smooth="yes"/>
      <point x="47.56" y="24.22"/>
      <point x="86.53999999999999" y="-9.459999999999999"/>
      <point x="190.12" y="-9.459999999999999" type="curve" smooth="yes"/>
      <point x="293.84" y="-9.459999999999999"/>
      <point x="332.68" y="24.22"/>
      <point x="332.68" y="90.96000000000001" type="curve" smooth="yes"/>
      <point x="332.68" y="158.56"/>
      <point x="293.84" y="192.24"/>
      <point x="190.12" y="192.24" type="curve" smooth="yes"/>
      <point x="86.4" y="192.24"/>
      <point x="47.56" y="158.56"/>
    </contour>
  </outline>
</glyph>
<glyph name="slash" format="2">
  <advance width="616.58"/>
  <unicode hex="002F"/>
  <outline>
    <contour>
      <point x="10.0" y="-210.0" type="line"/>
      <point x="206.58" y="-210.0" type="line"/>
      <point x="606.5799999999999" y="740.0" type="line"/>
      <point x="410.0" y="740.0" type="line"/>
    </contour>
  </outline>
</glyph>
<glyph name="zero" format="2">
  <advance width="1047.76"/>
  <unicode hex="0030"/>
  <outline>
    <contour>
      <point x="42.68" y="350.0" type="curve" smooth="yes"/>
      <point x="42.68" y="69.0"/>
      <point x="270.55999999999995" y="-10.0"/>
      <point x="523.88" y="-10.0" type="curve" smooth="yes"/>
      <point x="777.48" y="-10.0"/>
      <point x="1005.08" y="69.0"/>
      <point x="1005.08" y="350.0" type="curve" smooth="yes"/>
      <point x="1005.08" y="631.0"/>
      <point x="777.48" y="710.0"/>
      <point x="523.88" y="710.0" type="curve" smooth="yes"/>
      <point x="270.56" y="710.0"/>
      <point x="42.68" y="631.0"/>
    </contour>
    <contour>
      <point x="316.52" y="350.0" type="curve" smooth="yes"/>
      <point x="316.52" y="502.68000000000006"/>
      <point x="414.71999999999997" y="547.2800000000001"/>
      <point x="523.88" y="547.2800000000001" type="curve" smooth="yes"/>
      <point x="633.3199999999999" y="547.2800000000001"/>
      <point x="731.5200000000001" y="502.67999999999995"/>
      <point x="731.5200000000001" y="350.0" type="curve" smooth="yes"/>
      <point x="731.5200000000001" y="197.32000000000002"/>
      <point x="633.3199999999999" y="152.72"/>
      <point x="523.88" y="152.72" type="curve" smooth="yes"/>
      <point x="414.72" y="152.72"/>
      <point x="316.52" y="197.32"/>
    </contour>
  </outline>
</glyph>
<glyph name="one" format="2">
  <advance width="1047.76"/>
  <unicode hex="0031"/>
  <outline>
    <contour>
      <point x="160.66" y="0.0" type="line"/>
      <point x="963.8800000000001" y="0.0" type="line"/>
      <point x="963.8800000000001" y="183.39999999999998" type="line"/>
      <point x="718.9599999999999" y="183.39999999999998" type="line"/>
      <point x="718.9599999999999" y="701.4" type="line"/>
      <point x="586.56" y="701.4" type="line"/>
      <point x="140.9" y="539.4200000000001" type="line"/>
      <point x="203.08" y="360.59999999999997" type="line"/>
      <point x="451.28" y="451.08" type="line"/>
      <point x="451.28" y="183.39999999999998" type="line"/>
      <point x="160.66" y="183.39999999999998" type="line"/>
    </contour>
  </outline>
</glyph>
<glyph name="two" format="2">
  <advance width="1047.76"/>
  <unicode hex="0032"/>
  <outline>
    <contour>
      <point x="81.88000000000001" y="138.39999999999998" type="curve"/>
      <point x="83.00000000000001" y="0.0" type="line"/>
      <point x="972.3999999999999" y="0.0" type="line"/>
      <point x="972.3999999999999" y="183.39999999999998" type="line"/>
      <point x="568.32" y="183.39999999999998" type="line"/>
      <point x="791.5600000000001" y="275.15999999999997"/>
      <point x="873.8" y="344.52"/>
      <point x="873.8" y="465.28000000000003" type="curve" smooth="yes"/>
      <point x="873.8" y="612.36"/>
      <point x="732.8" y="710.0"/>
      <point x="485.96" y="710.0" type="curve" smooth="yes"/>
      <point x="354.88" y="710.0"/>
      <point x="190.32000000000002" y="673.96"/>
      <point x="91.0" y="623.64" type="curve"/>
      <point x="156.76000000000002" y="453.6" type="line"/>
      <point x="256.08" y="492.71999999999997"/>
      <point x="353.0" y="512.84"/>
      <point x="433.08000000000004" y="512.84" type="curve" smooth="yes"/>
      <point x="553.44" y="512.84"/>
      <point x="594.1600000000001" y="475.36"/>
      <point x="594.1600000000001" y="420.76" type="curve" smooth="yes"/>
      <point x="594.1600000000001" y="332.32"/>
      <point x="457.28" y="263.59999999999997"/>
    </contour>
  </outline>
</glyph>
<glyph name="three" format="2">
  <advance width="1047.76"/>
  <unicode hex="0033"/>
  <outline>
    <contour>
      <point x="55.92" y="49.16" type="line"/>
      <point x="165.56" y="9.960000000000003"/>
      <point x="299.6" y="-9.0"/>
      <point x="475.15999999999997" y="-9.0" type="curve" smooth="yes"/>
      <point x="809.8400000000001" y="-9.0"/>
      <point x="967.2" y="67.84"/>
      <point x="967.2" y="209.27999999999997" type="curve" smooth="yes"/>
      <point x="967.2" y="290.08"/>
      <point x="906.2" y="344.92"/>
      <point x="790.2800000000001" y="364.12" type="curve"/>
      <point x="886.1599999999999" y="382.0"/>
      <point x="937.3599999999999" y="431.4"/>
      <point x="937.3599999999999" y="512.8000000000001" type="curve" smooth="yes"/>
      <point x="937.3599999999999" y="641.5600000000001"/>
      <point x="819.3600000000001" y="710.0"/>
      <point x="494.44000000000005" y="710.0" type="curve" smooth="yes"/>
      <point x="329.36" y="710.0"/>
      <point x="163.92000000000002" y="692.44"/>
      <point x="85.84" y="666.2" type="curve"/>
      <point x="121.8" y="488.67999999999995" type="line"/>
      <point x="216.64" y="511.04"/>
      <point x="334.92" y="524.16"/>
      <point x="451.15999999999997" y="524.16" type="curve" smooth="yes"/>
      <point x="606.56" y="524.16"/>
      <point x="677.56" y="509.16"/>
      <point x="677.56" y="478.12" type="curve" smooth="yes"/>
      <point x="677.56" y="443.04"/>
      <point x="624.6" y="429.88"/>
      <point x="458.44000000000005" y="429.88" type="curve" smooth="yes"/>
      <point x="268.36" y="429.88" type="line"/>
      <point x="268.36" y="273.0" type="line"/>
      <point x="423.76000000000005" y="273.0" type="line" smooth="yes"/>
      <point x="607.3599999999999" y="273.0"/>
      <point x="697.8000000000001" y="257.8"/>
      <point x="697.8000000000001" y="223.03999999999996" type="curve" smooth="yes"/>
      <point x="697.8000000000001" y="187.48000000000002"/>
      <point x="645.48" y="173.67999999999998"/>
      <point x="465.56" y="173.67999999999998" type="curve" smooth="yes"/>
      <point x="333.84000000000003" y="173.67999999999998"/>
      <point x="184.6" y="190.64"/>
      <point x="99.32000000000001" y="216.79999999999998" type="curve"/>
    </contour>
  </outline>
</glyph>
<glyph name="four" format="2">
  <advance width="1047.7600000000002"/>
  <unicode hex="0034"/>
  <outline>
    <contour>
      <point x="18.04" y="105.35999999999999" type="line"/>
      <point x="561.8" y="105.35999999999999" type="line"/>
      <point x="561.8" y="0.0" type="line"/>
      <point x="832.84" y="0.0" type="line"/>
      <point x="832.84" y="105.35999999999999" type="line"/>
      <point x="989.68" y="105.35999999999999" type="line"/>
      <point x="989.68" y="262.24" type="line"/>
      <point x="832.84" y="262.24" type="line"/>
      <point x="832.84" y="700.0" type="line"/>
      <point x="671.64" y="701.4" type="line"/>
      <point x="17.479999999999993" y="234.60000000000002" type="line"/>
    </contour>
    <contour>
      <point x="315.0" y="262.24" type="line"/>
      <point x="561.8" y="431.8399999999999" type="line"/>
      <point x="561.8" y="262.24" type="line"/>
    </contour>
  </outline>
</glyph>
<glyph name="five" format="2">
  <advance width="1047.76"/>
  <unicode hex="0035"/>
  <outline>
    <contour>
      <point x="62.099999999999994" y="48.29999999999999" type="line"/>
      <point x="185.44" y="4.640000000000001"/>
      <point x="323.28000000000003" y="-9.86"/>
      <point x="475.80000000000007" y="-9.86" type="curve" smooth="yes"/>
      <point x="779.62" y="-9.86"/>
      <point x="969.52" y="60.379999999999995"/>
      <point x="969.52" y="235.76" type="curve" smooth="yes"/>
      <point x="969.52" y="408.74"/>
      <point x="812.8399999999999" y="441.38"/>
      <point x="517.0799999999999" y="441.38" type="curve" smooth="yes"/>
      <point x="343.19999999999993" y="441.38" type="line"/>
      <point x="357.5" y="516.6" type="line"/>
      <point x="902.94" y="516.6" type="line"/>
      <point x="902.94" y="700.0" type="line"/>
      <point x="178.95999999999998" y="700.0" type="line"/>
      <point x="110.49999999999999" y="287.90000000000003" type="line"/>
      <point x="121.36000000000001" y="280.34" type="line"/>
      <point x="433.28000000000003" y="280.34" type="line" smooth="yes"/>
      <point x="674.0" y="280.34"/>
      <point x="708.72" y="256.56"/>
      <point x="708.72" y="224.58" type="curve" smooth="yes"/>
      <point x="708.72" y="184.76000000000002"/>
      <point x="646.9200000000001" y="167.51999999999998"/>
      <point x="465.48" y="167.51999999999998" type="curve" smooth="yes"/>
      <point x="328.99999999999994" y="167.51999999999998"/>
      <point x="190.0" y="185.45999999999998"/>
      <point x="108.22" y="210.78" type="curve"/>
    </contour>
  </outline>
</glyph>
<glyph name="six" format="2">
  <advance width="1047.76"/>
  <unicode hex="0036"/>
  <outline>
    <contour>
      <point x="543.08" y="-10.0" type="curve" smooth="yes"/>
      <point x="843.76" y="-10.0"/>
      <point x="1001.76" y="73.0"/>
      <point x="1001.76" y="236.07999999999998" type="curve" smooth="yes"/>
      <point x="1001.76" y="379.76"/>
      <point x="878.0" y="452.03999999999996"/>
      <point x="625.96" y="452.03999999999996" type="curve" smooth="yes"/>
      <point x="486.56" y="452.03999999999996"/>
      <point x="368.0400000000001" y="430.12"/>
      <point x="279.40000000000003" y="385.32" type="curve"/>
      <point x="282.12" y="243.04" type="line"/>
      <point x="378.96000000000004" y="265.04"/>
      <point x="463.24" y="286.48"/>
      <point x="567.2" y="286.48" type="curve" smooth="yes"/>
      <point x="691.5199999999999" y="286.48"/>
      <point x="742.44" y="268.72"/>
      <point x="742.44" y="226.44" type="curve" smooth="yes"/>
      <point x="742.44" y="183.28"/>
      <point x="688.04" y="161.60000000000002"/>
      <point x="577.3599999999999" y="161.60000000000002" type="curve" smooth="yes"/>
      <point x="368.76" y="161.60000000000002"/>
      <point x="300.96000000000004" y="221.72"/>
      <point x="300.96000000000004" y="339.4" type="curve" smooth="yes"/>
      <point x="300.96000000000004" y="472.68"/>
      <point x="407.64000000000004" y="528.8000000000001"/>
      <point x="614.6400000000001" y="528.8000000000001" type="curve" smooth="yes"/>
      <point x="736.5600000000001" y="528.8000000000001"/>
      <point x="804.56" y="518.6800000000001"/>
      <point x="921.8000000000002" y="495.4" type="curve"/>
      <point x="960.1999999999998" y="669.0" type="line"/>
      <point x="873.9200000000001" y="694.72"/>
      <point x="753.0" y="710.0"/>
      <point x="588.4399999999999" y="710.0" type="curve" smooth="yes"/>
      <point x="230.2" y="710.0"/>
      <point x="47.4" y="574.4"/>
      <point x="47.4" y="330.35999999999996" type="curve" smooth="yes"/>
      <point x="47.4" y="105.12000000000002"/>
      <point x="213.71999999999997" y="-10.0"/>
    </contour>
  </outline>
</glyph>
<glyph name="seven" format="2">
  <advance width="1047.76"/>
  <unicode hex="0037"/>
  <outline>
    <contour>
      <point x="284.08" y="0.0" type="curve"/>
      <point x="562.8000000000001" y="0.0" type="line"/>
      <point x="569.6800000000001" y="103.76"/>
      <point x="626.96" y="200.48"/>
      <point x="749.24" y="325.64" type="curve" smooth="yes"/>
      <point x="966.84" y="548.12" type="line"/>
      <point x="966.84" y="700.0" type="line"/>
      <point x="106.64000000000001" y="700.0" type="line"/>
      <point x="106.64000000000001" y="515.1999999999999" type="line"/>
      <point x="643.04" y="515.1999999999999" type="line"/>
      <point x="457.15999999999997" y="332.32" type="line" smooth="yes"/>
      <point x="330.36" y="208.51999999999998"/>
      <point x="284.08" y="118.48"/>
    </contour>
  </outline>
</glyph>
<glyph name="eight" format="2">
  <advance width="1047.76"/>
  <unicode hex="0038"/>
  <outline>
    <contour>
      <point x="619.9200000000001" y="409.59999999999997" type="curve"/>
      <point x="820.6" y="374.28" type="line"/>
      <point x="915.2" y="399.71999999999997"/>
      <point x="950.7199999999999" y="465.71999999999997"/>
      <point x="950.7199999999999" y="518.64" type="curve" smooth="yes"/>
      <point x="950.7199999999999" y="640.68"/>
      <point x="797.56" y="710.0"/>
      <point x="518.8399999999999" y="710.0" type="curve" smooth="yes"/>
      <point x="245.0" y="710.0"/>
      <point x="92.84" y="634.24"/>
      <point x="92.84" y="489.56" type="curve" smooth="yes"/>
      <point x="92.84" y="185.08"/>
      <point x="719.64" y="309.71999999999997"/>
      <point x="719.64" y="197.72" type="curve" smooth="yes"/>
      <point x="719.64" y="162.32"/>
      <point x="663.2" y="147.04"/>
      <point x="545.2399999999999" y="147.04" type="curve" smooth="yes"/>
      <point x="386.68" y="147.04"/>
      <point x="304.52" y="174.48"/>
      <point x="304.52" y="223.52" type="curve" smooth="yes"/>
      <point x="304.52" y="251.32"/>
      <point x="329.88" y="272.28"/>
      <point x="380.35999999999996" y="293.32000000000005" type="curve"/>
      <point x="200.2" y="361.88" type="line"/>
      <point x="87.91999999999999" y="349.4"/>
      <point x="35.28" y="273.8"/>
      <point x="35.28" y="206.32" type="curve" smooth="yes"/>
      <point x="35.28" y="65.0"/>
      <point x="200.99999999999997" y="-10.0"/>
      <point x="528.56" y="-10.0" type="curve" smooth="yes"/>
      <point x="864.64" y="-10.0"/>
      <point x="1013.4800000000001" y="60.43999999999999"/>
      <point x="1013.4800000000001" y="221.04" type="curve" smooth="yes"/>
      <point x="1013.4800000000001" y="495.76000000000005"/>
      <point x="348.47999999999996" y="405.6"/>
      <point x="348.47999999999996" y="500.03999999999996" type="curve" smooth="yes"/>
      <point x="348.47999999999996" y="531.8000000000001"/>
      <point x="387.84" y="552.0"/>
      <point x="519.64" y="552.0" type="curve" smooth="yes"/>
      <point x="645.6" y="552.0"/>
      <point x="701.56" y="525.6400000000001"/>
      <point x="701.56" y="487.84" type="curve" smooth="yes"/>
      <point x="701.56" y="457.96"/>
      <point x="679.04" y="437.36"/>
    </contour>
  </outline>
</glyph>
<glyph name="nine" format="2">
  <advance width="1047.76"/>
  <unicode hex="0039"/>
  <outline>
    <contour>
      <point x="462.4" y="-10.0" type="curve" smooth="yes"/>
      <point x="820.64" y="-10.0"/>
      <point x="1000.64" y="120.44000000000001"/>
      <point x="1000.64" y="356.16" type="curve" smooth="yes"/>
      <point x="1000.64" y="590.0"/>
      <point x="834.3199999999999" y="710.0"/>
      <point x="510.56000000000006" y="710.0" type="curve" smooth="yes"/>
      <point x="207.64" y="710.0"/>
      <point x="44.84" y="626.56"/>
      <point x="44.84" y="470.12" type="curve" smooth="yes"/>
      <point x="44.84" y="319.79999999999995"/>
      <point x="177.8" y="248.68"/>
      <point x="426.48" y="248.68" type="curve" smooth="yes"/>
      <point x="573.7199999999999" y="248.68"/>
      <point x="685.76" y="268.48"/>
      <point x="768.6399999999999" y="313.56000000000006" type="curve"/>
      <point x="765.92" y="457.15999999999997" type="line"/>
      <point x="669.08" y="431.56"/>
      <point x="589.1200000000001" y="412.56"/>
      <point x="492.36" y="412.56" type="curve" smooth="yes"/>
      <point x="360.64000000000004" y="412.56"/>
      <point x="304.88" y="429.52"/>
      <point x="304.88" y="476.0" type="curve" smooth="yes"/>
      <point x="304.88" y="522.16"/>
      <point x="374.15999999999997" y="538.6800000000001"/>
      <point x="481.32" y="538.6800000000001" type="curve" smooth="yes"/>
      <point x="649.04" y="538.6800000000001"/>
      <point x="746.92" y="496.55999999999995"/>
      <point x="746.92" y="362.0400000000001" type="curve" smooth="yes"/>
      <point x="746.92" y="228.76"/>
      <point x="647.52" y="170.08"/>
      <point x="426.12" y="170.08" type="curve" smooth="yes"/>
      <point x="324.2" y="170.08"/>
      <point x="246.2" y="181.32"/>
      <point x="124.08" y="205.04000000000002" type="curve"/>
      <point x="87.12" y="31.279999999999998" type="line"/>
      <point x="179.0" y="5.279999999999999"/>
      <point x="303.44" y="-10.0"/>
    </contour>
  </outline>
</glyph>
<glyph name="less" format="2">
  <advance width="750.92"/>
  <unicode hex="003C"/>
  <outline>
    <contour>
      <point x="690.4999999999999" y="27.720000000000006" type="line"/>
      <point x="690.4999999999999" y="213.98" type="line"/>
      <point x="275.06" y="313.94" type="line"/>
      <point x="690.4999999999999" y="413.32" type="line"/>
      <point x="690.4999999999999" y="601.16" type="line"/>
      <point x="60.419999999999995" y="402.2" type="line"/>
      <point x="60.419999999999995" y="223.1" type="line"/>
    </contour>
  </outline>
</glyph>
<glyph name="equal" format="2">
  <advance width="750.92"/>
  <unicode hex="003D"/>
  <outline>
    <contour>
      <point x="690.5" y="281.28000000000003" type="line"/>
      <point x="60.42" y="281.28000000000003" type="line"/>
      <point x="60.42" y="102.18" type="line"/>
      <point x="690.5" y="102.18" type="line"/>
    </contour>
    <contour>
      <point x="690.5" y="526.98" type="line"/>
      <point x="60.42" y="526.98" type="line"/>
      <point x="60.42" y="347.88" type="line"/>
      <point x="690.5" y="347.88" type="line"/>
    </contour>
  </outline>
</glyph>
<glyph name="greater" format="2">
  <advance width="750.92"/>
  <unicode hex="003E"/>
  <outline>
    <contour>
      <point x="690.4999999999999" y="223.1" type="line"/>
      <point x="690.4999999999999" y="402.2" type="line"/>
      <point x="60.419999999999995" y="601.16" type="line"/>
      <point x="60.419999999999995" y="413.18" type="line"/>
      <point x="475.86" y="313.94" type="line"/>
      <point x="60.419999999999995" y="213.98" type="line"/>
      <point x="60.419999999999995" y="27.720000000000006" type="line"/>
    </contour>
  </outline>
</glyph>
<glyph name="question" format="2">
  <advance width="742.8"/>
  <unicode hex="003F"/>
  <outline>
    <contour>
      <point x="239.51999999999998" y="259.28" type="line"/>
      <point x="458.18" y="259.28" type="line"/>
      <point x="459.9" y="306.35999999999996" type="line"/>
      <point x="657.02" y="348.36"/>
      <point x="723.04" y="414.24"/>
      <point x="723.04" y="520.06" type="curve" smooth="yes"/>
      <point x="723.04" y="689.66"/>
      <point x="549.98" y="750.0"/>
      <point x="379.84" y="750.0" type="curve" smooth="yes"/>
      <point x="268.7" y="750.0"/>
      <point x="112.88" y="714.82"/>
      <point x="20.6" y="661.4000000000001" type="curve"/>
      <point x="79.62" y="491.18" type="line"/>
      <point x="169.04000000000002" y="531.4200000000001"/>
      <point x="259.8" y="559.72"/>
      <point x="335.98" y="559.72" type="curve" smooth="yes"/>
      <point x="406.68" y="559.72"/>
      <point x="451.92" y="548.1"/>
      <point x="451.92" y="508.88" type="curve" smooth="yes"/>
      <point x="451.92" y="477.21999999999997"/>
      <point x="433.56000000000006" y="455.67999999999995"/>
      <point x="233.5" y="422.12" type="curve"/>
    </contour>
    <contour>
      <point x="205.98000000000002" y="90.96000000000001" type="curve" smooth="yes"/>
      <point x="205.98000000000002" y="24.22"/>
      <point x="244.95999999999998" y="-9.459999999999999"/>
      <point x="348.53999999999996" y="-9.459999999999999" type="curve" smooth="yes"/>
      <point x="452.26" y="-9.459999999999999"/>
      <point x="491.09999999999997" y="24.22"/>
      <point x="491.09999999999997" y="90.96000000000001" type="curve" smooth="yes"/>
      <point x="491.09999999999997" y="158.55999999999997"/>
      <point x="452.26" y="192.23999999999998"/>
      <point x="348.53999999999996" y="192.23999999999998" type="curve" smooth="yes"/>
      <point x="244.81999999999996" y="192.23999999999998"/>
      <point x="205.98000000000002" y="158.55999999999997"/>
    </contour>
  </outline>
</glyph>
<glyph name="at" format="2">
  <advance width="1122.44"/>
  <unicode hex="0040"/>
  <outline>
    <contour>
      <point x="506.08" y="-124.0" type="curve" smooth="yes"/>
      <point x="597.9999999999999" y="-124.0"/>
      <point x="697.12" y="-112.04"/>
      <point x="783.6799999999998" y="-92.08000000000001" type="curve"/>
      <point x="758.3600000000001" y="8.64" type="line"/>
      <point x="690.4000000000001" y="-8.880000000000006"/>
      <point x="604.6" y="-19.839999999999993"/>
      <point x="525.4" y="-19.839999999999993" type="curve" smooth="yes"/>
      <point x="317.08000000000004" y="-19.839999999999993"/>
      <point x="154.56" y="44.99999999999999"/>
      <point x="154.56" y="260.08000000000004" type="curve" smooth="yes"/>
      <point x="154.56" y="454.47999999999996"/>
      <point x="309.96000000000004" y="609.5600000000002"/>
      <point x="573.44" y="609.5600000000002" type="curve" smooth="yes"/>
      <point x="832.8" y="609.5600000000002"/>
      <point x="971.8799999999999" y="509.20000000000005"/>
      <point x="971.8799999999999" y="327.12" type="curve" smooth="yes"/>
      <point x="971.8799999999999" y="202.84000000000003"/>
      <point x="929.0799999999999" y="154.95999999999998"/>
      <point x="877.3599999999997" y="158.56" type="curve" smooth="yes"/>
      <point x="845.4400000000002" y="158.56"/>
      <point x="825.76" y="180.64"/>
      <point x="830.04" y="234.24000000000004" type="curve" smooth="yes"/>
      <point x="847.7599999999998" y="470.36" type="line"/>
      <point x="773.1999999999999" y="494.79999999999995"/>
      <point x="666.28" y="512.52"/>
      <point x="596.0" y="512.52" type="curve" smooth="yes"/>
      <point x="395.04" y="512.52"/>
      <point x="268.88" y="411.88"/>
      <point x="268.88" y="259.56" type="curve" smooth="yes"/>
      <point x="268.88" y="141.72"/>
      <point x="345.28000000000003" y="62.99999999999999"/>
      <point x="474.1600000000001" y="62.99999999999999" type="curve" smooth="yes"/>
      <point x="567.24" y="62.99999999999999"/>
      <point x="641.28" y="113.80000000000001"/>
      <point x="682.12" y="171.88000000000005" type="curve"/>
      <point x="703.32" y="102.72"/>
      <point x="749.0800000000002" y="54.28"/>
      <point x="847.6000000000001" y="54.28" type="curve" smooth="yes"/>
      <point x="1017.3600000000001" y="47.080000000000005"/>
      <point x="1086.2" y="184.68000000000004"/>
      <point x="1086.2" y="327.84" type="curve" smooth="yes"/>
      <point x="1086.2" y="565.28"/>
      <point x="903.48" y="710.0"/>
      <point x="590.76" y="710.0" type="curve" smooth="yes"/>
      <point x="245.99999999999997" y="710.0"/>
      <point x="36.52" y="514.0"/>
      <point x="36.52" y="258.08" type="curve" smooth="yes"/>
      <point x="36.52" y="-26.679999999999993"/>
      <point x="238.96000000000004" y="-124.0"/>
    </contour>
    <contour>
      <point x="535.1200000000001" y="190.32" type="curve" smooth="yes"/>
      <point x="486.91999999999996" y="190.32"/>
      <point x="453.72" y="222.12"/>
      <point x="453.72" y="282.88" type="curve" smooth="yes"/>
      <point x="453.72" y="358.24"/>
      <point x="510.91999999999996" y="392.36000000000007"/>
      <point x="576.4" y="392.36000000000007" type="curve" smooth="yes"/>
      <point x="610.5200000000001" y="392.36000000000007"/>
      <point x="636.56" y="390.52000000000004"/>
      <point x="670.3599999999999" y="378.52000000000004" type="curve"/>
      <point x="660.6399999999999" y="276.31999999999994" type="line" smooth="yes"/>
      <point x="631.36" y="218.60000000000002"/>
      <point x="584.68" y="190.32"/>
    </contour>
  </outline>
</glyph>
<glyph name="A" format="2">
  <advance width="1098.2"/>
  <unicode hex="0041"/>
  <anchor x="1092.64" y="0.0" name="ogonek"/>
  <anchor x="536.2" y="0.0" name="bottom"/>
  <anchor x="550.96" y="700.0" name="top"/>
  <outline>
    <contour>
      <point x="5.839999999999999" y="0.0" type="line"/>
      <point x="305.48" y="0.0" type="line"/>
      <point x="359.04" y="109.2" type="line"/>
      <point x="716.52" y="109.2" type="line"/>
      <point x="770.36" y="0.0" type="line"/>
      <point x="1092.64" y="0.0" type="line"/>
      <point x="691.5600000000001" y="701.4" type="line"/>
      <point x="406.64" y="701.4" type="line"/>
    </contour>
    <contour>
      <point x="432.20000000000005" y="278.2" type="line"/>
      <point x="537.92" y="494.79999999999995" type="line"/>
      <point x="643.36" y="278.2" type="line"/>
    </contour>
  </outline>
</glyph>
<glyph name="B" format="2">
  <advance width="1075.9999999999998"/>
  <unicode hex="0042"/>
  <anchor x="536.12" y="700.0" name="top"/>
  <anchor x="536.12" y="0.0" name="bottom"/>
  <outline>
    <contour>
      <point x="84.52" y="5.0" type="line"/>
      <point x="352.88" y="-8.0"/>
      <point x="371.32" y="-10.0"/>
      <point x="551.3199999999999" y="-10.0" type="curve" smooth="yes"/>
      <point x="942.5200000000001" y="-10.0"/>
      <point x="1052.52" y="39.4"/>
      <point x="1052.52" y="207.04" type="curve" smooth="yes"/>
      <point x="1052.52" y="308.47999999999996"/>
      <point x="968.9599999999999" y="374.48"/>
      <point x="828.5200000000001" y="389.2" type="curve"/>
      <point x="828.5200000000001" y="391.2" type="line"/>
      <point x="944.7199999999999" y="421.24"/>
      <point x="988.7999999999998" y="464.6"/>
      <point x="988.7999999999998" y="548.6" type="curve" smooth="yes"/>
      <point x="988.7999999999998" y="669.4399999999999"/>
      <point x="878.32" y="710.0"/>
      <point x="548.24" y="710.0" type="curve" smooth="yes"/>
      <point x="427.92" y="710.0"/>
      <point x="281.76" y="705.28"/>
      <point x="84.52" y="695.0" type="curve"/>
    </contour>
    <contour>
      <point x="362.52" y="429.40000000000003" type="line"/>
      <point x="362.52" y="528.12" type="line"/>
      <point x="452.64" y="532.5200000000001"/>
      <point x="461.47999999999996" y="533.5200000000001"/>
      <point x="530.6800000000001" y="533.5200000000001" type="curve" smooth="yes"/>
      <point x="677.72" y="533.5200000000001"/>
      <point x="715.9599999999999" y="521.04"/>
      <point x="715.9599999999999" y="481.68" type="curve" smooth="yes"/>
      <point x="715.9599999999999" y="447.68"/>
      <point x="676.9999999999999" y="429.40000000000003"/>
      <point x="613.28" y="429.40000000000003" type="curve" smooth="yes"/>
    </contour>
    <contour>
      <point x="362.52" y="171.88" type="curve"/>
      <point x="362.52" y="276.35999999999996" type="line"/>
      <point x="609.8000000000001" y="276.35999999999996" type="line" smooth="yes"/>
      <point x="721.84" y="276.35999999999996"/>
      <point x="758.0400000000001" y="262.36"/>
      <point x="758.0400000000001" y="223.40000000000003" type="curve" smooth="yes"/>
      <point x="758.0400000000001" y="178.36"/>
      <point x="714.2400000000001" y="166.48"/>
      <point x="523.4000000000001" y="166.48" type="curve" smooth="yes"/>
      <point x="484.91999999999996" y="166.48"/>
      <point x="421.52" y="168.48"/>
    </contour>
  </outline>
</glyph>
<glyph name="C" format="2">
  <advance width="1065.1399999999999"/>
  <unicode hex="0043"/>
  <anchor x="577.38" y="700.0" name="top"/>
  <anchor x="560.18" y="0.0" name="bottom"/>
  <outline>
    <contour>
      <point x="43.839999999999996" y="328.40000000000003" type="curve" smooth="yes"/>
      <point x="43.839999999999996" y="86.34"/>
      <point x="233.01999999999998" y="-10.0"/>
      <point x="574.9399999999999" y="-10.0" type="curve" smooth="yes"/>
      <point x="794.74" y="-10.0"/>
      <point x="905.1999999999999" y="14.16"/>
      <point x="1017.3199999999999" y="42.42" type="curve"/>
      <point x="968.3199999999998" y="218.07999999999998" type="line"/>
      <point x="855.34" y="195.84"/>
      <point x="728.8199999999999" y="181.14000000000001"/>
      <point x="615.36" y="181.14000000000001" type="curve" smooth="yes"/>
      <point x="412.0" y="181.14000000000001"/>
      <point x="329.58" y="233.5"/>
      <point x="329.58" y="337.86" type="curve" smooth="yes"/>
      <point x="329.58" y="456.22"/>
      <point x="408.38" y="514.56"/>
      <point x="623.46" y="514.56" type="curve" smooth="yes"/>
      <point x="716.46" y="514.56"/>
      <point x="820.06" y="503.56000000000006"/>
      <point x="935.5" y="484.74" type="curve"/>
      <point x="989.6600000000001" y="669.0" type="line"/>
      <point x="866.48" y="699.0"/>
      <point x="785.1" y="710.0"/>
      <point x="610.56" y="710.0" type="curve" smooth="yes"/>
      <point x="242.29999999999998" y="710.0"/>
      <point x="43.839999999999996" y="591.34"/>
    </contour>
  </outline>
</glyph>
<glyph name="D" format="2">
  <advance width="1140.96"/>
  <unicode hex="0044"/>
  <anchor x="567.5600000000001" y="700.0" name="top"/>
  <outline>
    <contour>
      <point x="570.12" y="-10.0" type="curve" smooth="yes"/>
      <point x="909.1600000000001" y="-10.0"/>
      <point x="1097.12" y="114.16"/>
      <point x="1097.12" y="343.71999999999997" type="curve" smooth="yes"/>
      <point x="1097.12" y="596.44"/>
      <point x="923.28" y="710.0"/>
      <point x="540.52" y="710.0" type="curve" smooth="yes"/>
      <point x="381.35999999999996" y="710.0"/>
      <point x="254.03999999999996" y="707.0"/>
      <point x="84.52" y="700.0" type="curve"/>
      <point x="84.52" y="0.0" type="line"/>
      <point x="232.51999999999995" y="-4.0"/>
      <point x="368.48" y="-10.0"/>
    </contour>
    <contour>
      <point x="585.92" y="164.07999999999998" type="curve" smooth="yes"/>
      <point x="498.15999999999997" y="164.07999999999998"/>
      <point x="438.04" y="167.35999999999996"/>
      <point x="362.52" y="169.64" type="curve"/>
      <point x="362.52" y="532.0799999999999" type="line"/>
      <point x="414.88" y="535.64"/>
      <point x="489.47999999999996" y="536.92"/>
      <point x="573.52" y="536.92" type="curve" smooth="yes"/>
      <point x="726.68" y="536.92"/>
      <point x="814.6800000000001" y="467.2"/>
      <point x="814.6800000000001" y="346.44" type="curve" smooth="yes"/>
      <point x="814.6800000000001" y="235.8"/>
      <point x="723.4399999999999" y="164.07999999999998"/>
    </contour>
  </outline>
</glyph>
<glyph name="E" format="2">
  <advance width="1023.8"/>
  <unicode hex="0045"/>
  <anchor x="979.4000000000001" y="0.0" name="ogonek"/>
  <anchor x="532.3199999999999" y="0.0" name="bottom"/>
  <anchor x="542.96" y="700.0" name="top"/>
  <outline>
    <contour>
      <point x="84.52" y="0.0" type="line"/>
      <point x="979.4000000000001" y="0.0" type="line"/>
      <point x="979.4000000000001" y="184.0" type="line"/>
      <point x="355.32000000000005" y="184.0" type="line"/>
      <point x="355.32000000000005" y="273.32" type="line"/>
      <point x="918.4000000000001" y="273.32" type="line"/>
      <point x="918.4000000000001" y="437.92" type="line"/>
      <point x="355.32000000000005" y="437.92" type="line"/>
      <point x="355.32000000000005" y="516.0" type="line"/>
      <point x="950.4" y="516.0" type="line"/>
      <point x="950.4" y="700.0" type="line"/>
      <point x="84.52" y="700.0" type="line"/>
    </contour>
  </outline>
</glyph>
<glyph name="F" format="2">
  <advance width="968.7599999999999"/>
  <unicode hex="0046"/>
  <outline>
    <contour>
      <point x="84.52" y="0.0" type="line"/>
      <point x="362.52" y="0.0" type="line"/>
      <point x="362.52" y="192.52" type="line"/>
      <point x="868.8" y="192.52" type="line"/>
      <point x="868.8" y="378.72" type="line"/>
      <point x="362.52" y="378.72" type="line"/>
      <point x="362.52" y="505.19999999999993" type="line"/>
      <point x="941.8000000000001" y="505.19999999999993" type="line"/>
      <point x="941.8000000000001" y="700.0" type="line"/>
      <point x="84.52" y="700.0" type="line"/>
    </contour>
  </outline>
</glyph>
<glyph name="G" format="2">
  <advance width="1091.74"/>
  <unicode hex="0047"/>
  <anchor x="572.86" y="700.0" name="top"/>
  <anchor x="561.9399999999999" y="0.0" name="bottom"/>
  <outline>
    <contour>
      <point x="43.839999999999996" y="328.4" type="curve" smooth="yes"/>
      <point x="43.839999999999996" y="101.66"/>
      <point x="213.81999999999996" y="-10.0"/>
      <point x="556.54" y="-10.0" type="curve" smooth="yes"/>
      <point x="741.0" y="-10.0"/>
      <point x="897.98" y="12.28"/>
      <point x="1028.34" y="58.0" type="curve"/>
      <point x="1028.34" y="416.64" type="line"/>
      <point x="590.9799999999999" y="416.64" type="line"/>
      <point x="590.9799999999999" y="250.44" type="line"/>
      <point x="784.74" y="250.44" type="line"/>
      <point x="784.74" y="182.08" type="line"/>
      <point x="739.84" y="172.76"/>
      <point x="678.1" y="167.38"/>
      <point x="611.58" y="167.38" type="curve" smooth="yes"/>
      <point x="424.62" y="167.38"/>
      <point x="329.58" y="216.14000000000001"/>
      <point x="329.58" y="337.86" type="curve" smooth="yes"/>
      <point x="329.58" y="459.7"/>
      <point x="416.42" y="514.5600000000001"/>
      <point x="618.8399999999999" y="514.5600000000001" type="curve" smooth="yes"/>
      <point x="707.4" y="514.5600000000001"/>
      <point x="814.92" y="504.44000000000005"/>
      <point x="938.36" y="482.91999999999996" type="curve"/>
      <point x="989.94" y="666.9" type="line"/>
      <point x="857.3" y="699.6"/>
      <point x="768.4399999999999" y="710.0"/>
      <point x="605.94" y="710.0" type="curve" smooth="yes"/>
      <point x="230.70000000000002" y="710.0"/>
      <point x="43.839999999999996" y="581.7800000000001"/>
    </contour>
  </outline>
</glyph>
<glyph name="H" format="2">
  <advance width="1160.62"/>
  <unicode hex="0048"/>
  <anchor x="580.3800000000001" y="700.0" name="top"/>
  <outline>
    <contour>
      <point x="84.38" y="0.0" type="line"/>
      <point x="362.38" y="0.0" type="line"/>
      <point x="362.38" y="222.06" type="line"/>
      <point x="798.24" y="222.06" type="line"/>
      <point x="798.24" y="0.0" type="line"/>
      <point x="1076.24" y="0.0" type="line"/>
      <point x="1076.24" y="700.0" type="line"/>
      <point x="798.24" y="700.0" type="line"/>
      <point x="798.24" y="431.26" type="line"/>
      <point x="362.38" y="431.26" type="line"/>
      <point x="362.38" y="700.0" type="line"/>
      <point x="84.38" y="700.0" type="line"/>
    </contour>
  </outline>
</glyph>
<glyph name="I" format="2">
  <advance width="446.76"/>
  <unicode hex="0049"/>
  <anchor x="362.38" y="0.0" name="ogonek"/>
  <anchor x="223.38" y="0.0" name="bottom"/>
  <anchor x="223.38" y="700.0" name="top"/>
  <outline>
    <contour>
      <point x="84.38" y="0.0" type="line"/>
      <point x="362.38" y="0.0" type="line"/>
      <point x="362.38" y="700.0" type="line"/>
      <point x="84.38" y="700.0" type="line"/>
    </contour>
  </outline>
</glyph>
<glyph name="J" format="2">
  <advance width="895.26"/>
  <unicode hex="004A"/>
  <anchor x="452.24" y="700.0" name="top"/>
  <outline>
    <contour>
      <point x="14.379999999999999" y="40.86" type="line"/>
      <point x="165.72" y="3.6999999999999993"/>
      <point x="312.21999999999997" y="-10.14"/>
      <point x="432.88" y="-10.14" type="curve" smooth="yes"/>
      <point x="712.0" y="-10.14"/>
      <point x="821.1" y="87.18"/>
      <point x="821.1" y="303.06" type="curve" smooth="yes"/>
      <point x="821.1" y="700.0" type="line"/>
      <point x="91.38" y="700.0" type="line"/>
      <point x="91.38" y="496.81999999999994" type="line"/>
      <point x="543.0999999999999" y="496.81999999999994" type="line"/>
      <point x="543.0999999999999" y="331.44" type="line" smooth="yes"/>
      <point x="543.0999999999999" y="227.6"/>
      <point x="491.02000000000004" y="185.3"/>
      <point x="371.82000000000005" y="185.3" type="curve" smooth="yes"/>
      <point x="297.15999999999997" y="185.3"/>
      <point x="195.08" y="201.72"/>
      <point x="69.4" y="228.56" type="curve"/>
    </contour>
  </outline>
</glyph>
<glyph name="K" format="2">
  <advance width="1075.4799999999998"/>
  <unicode hex="004B"/>
  <anchor x="534.4399999999999" y="700.0" name="top"/>
  <anchor x="538.0000000000001" y="0.0" name="bottom"/>
  <outline>
    <contour>
      <point x="1009.6800000000001" y="-10.0" type="curve" smooth="yes"/>
      <point x="1019.5599999999998" y="-10.0"/>
      <point x="1031.0" y="-9.28"/>
      <point x="1042.1599999999999" y="-8.28" type="curve"/>
      <point x="1042.1599999999999" y="218.68" type="line"/>
      <point x="1031.0" y="217.68"/>
      <point x="1020.84" y="217.68"/>
      <point x="1010.6799999999998" y="217.68" type="curve" smooth="yes"/>
      <point x="930.5600000000001" y="217.68"/>
      <point x="847.4799999999999" y="238.20000000000002"/>
      <point x="731.64" y="295.2" type="curve" smooth="yes"/>
      <point x="361.52" y="476.84000000000003" type="line"/>
      <point x="361.52" y="700.0" type="line"/>
      <point x="84.52000000000001" y="700.0" type="line"/>
      <point x="84.52000000000001" y="0.0" type="line"/>
      <point x="361.52" y="0.0" type="line"/>
      <point x="361.52" y="244.07999999999998" type="line"/>
      <point x="707.9200000000001" y="60.92" type="line" smooth="yes"/>
      <point x="815.1600000000001" y="4.760000000000002"/>
      <point x="924.56" y="-10.0"/>
    </contour>
    <contour>
      <point x="571.9999999999999" y="316.68" type="line"/>
      <point x="779.9199999999998" y="368.64"/>
      <point x="932.9999999999999" y="463.12"/>
      <point x="1029.12" y="571.88" type="curve"/>
      <point x="833.24" y="718.04" type="line"/>
      <point x="699.2800000000001" y="574.88"/>
      <point x="533.4800000000001" y="470.79999999999995"/>
      <point x="374.84000000000003" y="401.20000000000005" type="curve"/>
    </contour>
  </outline>
</glyph>
<glyph name="L" format="2">
  <advance width="952.42"/>
  <unicode hex="004C"/>
  <anchor x="476.28000000000003" y="350.0" name="center"/>
  <anchor x="223.38" y="700.0" name="top"/>
  <anchor x="556.56" y="700.0" name="topright"/>
  <anchor x="502.66" y="0.0" name="bottom"/>
  <outline>
    <contour>
      <point x="84.38" y="0.0" type="line"/>
      <point x="918.26" y="0.0" type="line"/>
      <point x="918.26" y="209.20000000000002" type="line"/>
      <point x="362.38" y="209.20000000000002" type="line"/>
      <point x="362.38" y="700.0" type="line"/>
      <point x="84.38" y="700.0" type="line"/>
    </contour>
  </outline>
</glyph>
<glyph name="M" format="2">
  <advance width="1249.3600000000001"/>
  <unicode hex="004D"/>
  <outline>
    <contour>
      <point x="84.38" y="0.0" type="line"/>
      <point x="340.88" y="0.0" type="line"/>
      <point x="340.88" y="392.20000000000005" type="line"/>
      <point x="561.3399999999999" y="119.27999999999999" type="line"/>
      <point x="680.2800000000001" y="119.27999999999999" type="line"/>
      <point x="908.48" y="402.38" type="line"/>
      <point x="908.48" y="0.0" type="line"/>
      <point x="1164.98" y="0.0" type="line"/>
      <point x="1164.98" y="700.0" type="line"/>
      <point x="901.8799999999999" y="700.0" type="line"/>
      <point x="629.8399999999999" y="355.28" type="line"/>
      <point x="364.68" y="700.0" type="line"/>
      <point x="84.38" y="700.0" type="line"/>
    </contour>
  </outline>
</glyph>
<glyph name="N" format="2">
  <advance width="1082.36"/>
  <unicode hex="004E"/>
  <anchor x="541.68" y="700.0" name="top"/>
  <anchor x="541.68" y="0.0" name="bottom"/>
  <outline>
    <contour>
      <point x="84.38" y="0.0" type="line"/>
      <point x="336.58000000000004" y="0.0" type="line"/>
      <point x="336.58000000000004" y="365.8" type="line"/>
      <point x="762.4000000000001" y="0.0" type="line"/>
      <point x="997.98" y="0.0" type="line"/>
      <point x="997.98" y="700.0" type="line"/>
      <point x="745.78" y="700.0" type="line"/>
      <point x="745.78" y="308.94" type="line"/>
      <point x="320.82" y="701.4" type="line"/>
      <point x="84.38" y="701.4" type="line"/>
    </contour>
  </outline>
</glyph>
<glyph name="O" format="2">
  <advance width="1159.24"/>
  <unicode hex="004F"/>
  <anchor x="705.5" y="-2.58" name="ogonek"/>
  <anchor x="579.6999999999999" y="700.0" name="top"/>
  <anchor x="923.76" y="682.94" name="topright"/>
  <anchor x="580.7" y="0.0" name="bottom"/>
  <outline>
    <contour>
      <point x="580.56" y="164.07999999999998" type="curve" smooth="yes"/>
      <point x="429.52000000000004" y="164.07999999999998"/>
      <point x="326.28" y="219.76000000000002"/>
      <point x="326.28" y="351.72" type="curve" smooth="yes"/>
      <point x="326.28" y="481.34000000000003"/>
      <point x="425.94" y="536.2"/>
      <point x="580.56" y="536.2" type="curve" smooth="yes"/>
      <point x="740.4799999999999" y="536.2"/>
      <point x="832.6800000000001" y="472.88000000000005"/>
      <point x="832.6800000000001" y="351.71999999999997" type="curve" smooth="yes"/>
      <point x="832.6800000000001" y="228.12"/>
      <point x="738.9" y="164.07999999999998"/>
    </contour>
    <contour>
      <point x="580.7" y="-10.0" type="curve" smooth="yes"/>
      <point x="933.92" y="-10.0"/>
      <point x="1115.2600000000002" y="105.62"/>
      <point x="1115.2600000000002" y="354.28000000000003" type="curve" smooth="yes"/>
      <point x="1115.2600000000002" y="588.3599999999999"/>
      <point x="952.16" y="710.0"/>
      <point x="580.56" y="710.0" type="curve" smooth="yes"/>
      <point x="205.95999999999998" y="710.0"/>
      <point x="43.98" y="587.8"/>
      <point x="43.98" y="353.58" type="curve" smooth="yes"/>
      <point x="43.98" y="108.0"/>
      <point x="225.88" y="-10.0"/>
    </contour>
  </outline>
</glyph>
<glyph name="P" format="2">
  <advance width="1117.98"/>
  <unicode hex="0050"/>
  <outline>
    <contour>
      <point x="84.38" y="0.0" type="line"/>
      <point x="362.38" y="0.0" type="line"/>
      <point x="362.38" y="178.62" type="line"/>
      <point x="523.52" y="174.62"/>
      <point x="478.66" y="174.48000000000002"/>
      <point x="640.78" y="174.48000000000002" type="curve" smooth="yes"/>
      <point x="983.58" y="174.48000000000002"/>
      <point x="1085.24" y="246.98000000000002"/>
      <point x="1085.24" y="444.3" type="curve" smooth="yes"/>
      <point x="1085.24" y="645.4399999999999"/>
      <point x="988.3399999999999" y="710.0"/>
      <point x="560.74" y="710.0" type="curve" smooth="yes"/>
      <point x="497.59999999999997" y="710.0"/>
      <point x="333.04" y="707.14"/>
      <point x="84.38" y="700.0" type="curve"/>
    </contour>
    <contour>
      <point x="362.38" y="526.0600000000001" type="line"/>
      <point x="487.53999999999996" y="530.62"/>
      <point x="508.5" y="530.9"/>
      <point x="583.96" y="530.9" type="curve" smooth="yes"/>
      <point x="758.22" y="530.9"/>
      <point x="801.22" y="501.99999999999994"/>
      <point x="801.22" y="443.44" type="curve" smooth="yes"/>
      <point x="801.22" y="381.34"/>
      <point x="777.16" y="356.15999999999997"/>
      <point x="519.52" y="356.15999999999997" type="curve" smooth="yes"/>
      <point x="472.42" y="356.15999999999997"/>
      <point x="443.14" y="357.44"/>
      <point x="362.38" y="361.3" type="curve"/>
    </contour>
  </outline>
</glyph>
<glyph name="Q" format="2">
  <advance width="1159.24"/>
  <unicode hex="0051"/>
  <outline>
    <contour>
      <point x="863.1199999999999" y="37.559999999999995" type="curve"/>
      <point x="605.76" y="4.880000000000001" type="line"/>
      <point x="684.24" y="-136.92000000000002"/>
      <point x="791.4799999999999" y="-210.57999999999998"/>
      <point x="933.98" y="-210.57999999999998" type="curve" smooth="yes"/>
      <point x="981.1400000000001" y="-210.57999999999998"/>
      <point x="1032.28" y="-203.16"/>
      <point x="1087.4199999999998" y="-186.62" type="curve"/>
      <point x="1058.78" y="-5.940000000000005" type="line"/>
      <point x="1035.02" y="-13.600000000000009"/>
      <point x="1011.8199999999999" y="-17.00000000000001"/>
      <point x="989.02" y="-17.00000000000001" type="curve" smooth="yes"/>
      <point x="940.66" y="-17.00000000000001"/>
      <point x="897.46" y="1.9399999999999764"/>
    </contour>
    <component base="O"/>
  </outline>
</glyph>
<glyph name="R" format="2">
  <advance width="1144.64"/>
  <unicode hex="0052"/>
  <anchor x="574.4799999999999" y="700.0" name="top"/>
  <anchor x="578.4000000000001" y="0.0" name="bottom"/>
  <outline>
    <contour>
      <point x="1066.1599999999999" y="-10.0" type="curve" smooth="yes"/>
      <point x="1077.04" y="-10.0"/>
      <point x="1091.6399999999999" y="-9.28"/>
      <point x="1100.3600000000001" y="-8.28" type="curve"/>
      <point x="1100.3599999999997" y="211.52" type="line"/>
      <point x="1092.64" y="211.24"/>
      <point x="1083.1999999999998" y="210.52"/>
      <point x="1075.0400000000002" y="210.52" type="curve" smooth="yes"/>
      <point x="1012.3200000000002" y="210.52"/>
      <point x="918.8799999999999" y="245.19999999999996"/>
      <point x="823.44" y="282.12" type="curve"/>
      <point x="960.24" y="302.84"/>
      <point x="1066.2400000000002" y="345.52"/>
      <point x="1066.2400000000002" y="488.92" type="curve" smooth="yes"/>
      <point x="1066.2400000000002" y="645.1999999999999"/>
      <point x="943.9600000000002" y="710.0"/>
      <point x="551.96" y="710.0" type="curve" smooth="yes"/>
      <point x="480.6" y="710.0"/>
      <point x="319.88" y="707.2800000000001"/>
      <point x="84.52000000000001" y="700.28" type="curve"/>
      <point x="84.52000000000001" y="0.0" type="line"/>
      <point x="362.52" y="0.0" type="line"/>
      <point x="362.52" y="219.28000000000003" type="line"/>
      <point x="388.20000000000005" y="218.72000000000003"/>
      <point x="415.12" y="218.44000000000003"/>
      <point x="438.28" y="218.44000000000003" type="curve" smooth="yes"/>
      <point x="451.68" y="218.44000000000003"/>
      <point x="469.8399999999999" y="218.16000000000003"/>
      <point x="483.24" y="218.16" type="curve"/>
      <point x="678.0" y="111.32000000000001"/>
      <point x="890.8799999999999" y="-10.0"/>
    </contour>
    <contour>
      <point x="569.84" y="379.64" type="curve" smooth="yes"/>
      <point x="471.48" y="379.64"/>
      <point x="436.76" y="380.92"/>
      <point x="362.52" y="384.64" type="curve"/>
      <point x="362.52" y="536.8000000000001" type="line"/>
      <point x="471.6" y="541.0799999999999"/>
      <point x="488.2" y="541.0799999999999"/>
      <point x="570.16" y="541.0799999999999" type="curve" smooth="yes"/>
      <point x="734.6" y="541.0799999999999"/>
      <point x="780.36" y="519.2800000000001"/>
      <point x="780.36" y="461.56000000000006" type="curve" smooth="yes"/>
      <point x="780.36" y="403.52"/>
      <point x="730.9200000000001" y="379.64"/>
    </contour>
  </outline>
</glyph>
<glyph name="S" format="2">
  <advance width="1030.6399999999999"/>
  <unicode hex="0053"/>
  <anchor x="525.4399999999999" y="700.0" name="top"/>
  <anchor x="507.08000000000004" y="0.0" name="bottom"/>
  <outline>
    <contour>
      <point x="950.7199999999999" y="668.88" type="line"/>
      <point x="857.84" y="686.8000000000001"/>
      <point x="716.0399999999998" y="710.0"/>
      <point x="534.2800000000001" y="710.0" type="curve" smooth="yes"/>
      <point x="202.92000000000002" y="710.0"/>
      <point x="45.56" y="646.6800000000001"/>
      <point x="45.56" y="471.23999999999995" type="curve" smooth="yes"/>
      <point x="45.56" y="340.88"/>
      <point x="149.84000000000003" y="280.76000000000005"/>
      <point x="325.72" y="261.04" type="curve" smooth="yes"/>
      <point x="581.52" y="232.55999999999997"/>
      <point x="704.3600000000001" y="244.40000000000003"/>
      <point x="704.3600000000001" y="199.64" type="curve" smooth="yes"/>
      <point x="704.3600000000001" y="170.04000000000002"/>
      <point x="667.92" y="159.72"/>
      <point x="535.04" y="159.72" type="curve" smooth="yes"/>
      <point x="374.2" y="159.72"/>
      <point x="189.28000000000003" y="191.08"/>
      <point x="58.0" y="230.16" type="curve"/>
      <point x="10.719999999999995" y="48.68" type="line"/>
      <point x="134.96" y="16.919999999999998"/>
      <point x="319.32000000000005" y="-10.0"/>
      <point x="493.76" y="-10.0" type="curve" smooth="yes"/>
      <point x="817.9200000000001" y="-10.0"/>
      <point x="1008.5199999999999" y="49.0"/>
      <point x="1008.5199999999999" y="227.16" type="curve" smooth="yes"/>
      <point x="1008.5199999999999" y="369.71999999999997"/>
      <point x="889.36" y="425.71999999999997"/>
      <point x="650.08" y="443.12" type="curve" smooth="yes"/>
      <point x="427.71999999999997" y="459.52"/>
      <point x="348.71999999999997" y="452.44"/>
      <point x="348.71999999999997" y="495.59999999999997" type="curve" smooth="yes"/>
      <point x="348.71999999999997" y="524.8000000000001"/>
      <point x="393.80000000000007" y="536.5200000000001"/>
      <point x="510.20000000000005" y="536.5200000000001" type="curve" smooth="yes"/>
      <point x="659.16" y="536.5200000000001"/>
      <point x="829.48" y="511.6000000000001"/>
      <point x="906.88" y="489.24" type="curve"/>
    </contour>
  </outline>
</glyph>
<glyph name="T" format="2">
  <advance width="1049.28"/>
  <unicode hex="0054"/>
  <anchor x="524.64" y="700.0" name="top"/>
  <anchor x="524.64" y="0.0" name="bottom"/>
  <outline>
    <contour>
      <point x="1018.34" y="490.93999999999994" type="line"/>
      <point x="1018.34" y="700.0" type="line"/>
      <point x="30.94" y="700.0" type="line"/>
      <point x="30.94" y="490.93999999999994" type="line"/>
      <point x="385.64" y="490.93999999999994" type="line"/>
      <point x="385.64" y="0.0" type="line"/>
      <point x="663.64" y="0.0" type="line"/>
      <point x="663.64" y="490.93999999999994" type="line"/>
    </contour>
  </outline>
</glyph>
<glyph name="U" format="2">
  <advance width="1131.72"/>
  <unicode hex="0055"/>
  <anchor x="688.9000000000001" y="0.0" name="ogonek"/>
  <anchor x="565.86" y="700.0" name="top"/>
  <anchor x="1057.56" y="700.0" name="topright"/>
  <anchor x="565.86" y="0.0" name="bottom"/>
  <outline>
    <contour>
      <point x="74.16" y="292.0" type="line"/>
      <point x="74.16" y="86.72"/>
      <point x="235.60000000000002" y="-10.0"/>
      <point x="565.86" y="-10.0" type="curve" smooth="yes"/>
      <point x="896.12" y="-10.0"/>
      <point x="1057.56" y="86.72"/>
      <point x="1057.56" y="292.0" type="curve" smooth="yes"/>
      <point x="1057.56" y="700.0" type="line"/>
      <point x="786.44" y="700.0" type="line"/>
      <point x="786.44" y="319.52000000000004" type="line" smooth="yes"/>
      <point x="786.44" y="226.56"/>
      <point x="708.96" y="179.42000000000002"/>
      <point x="568.4399999999999" y="179.42000000000002" type="curve" smooth="yes"/>
      <point x="433.94000000000005" y="179.42000000000002"/>
      <point x="345.28" y="218.82"/>
      <point x="345.28" y="319.52000000000004" type="curve" smooth="yes"/>
      <point x="345.28" y="700.0" type="line"/>
      <point x="74.16" y="700.0" type="line"/>
    </contour>
  </outline>
</glyph>
<glyph name="V" format="2">
  <advance width="1065.54"/>
  <unicode hex="0056"/>
  <outline>
    <contour>
      <point x="386.5" y="0.0" type="line"/>
      <point x="679.18" y="0.0" type="line"/>
      <point x="1070.46" y="699.3" type="line"/>
      <point x="762.76" y="700.8399999999999" type="line"/>
      <point x="534.56" y="209.95999999999998" type="line"/>
      <point x="306.08000000000004" y="700.8399999999999" type="line"/>
      <point x="-4.92" y="699.3" type="line"/>
    </contour>
  </outline>
</glyph>
<glyph name="W" format="2">
  <advance width="1280.92"/>
  <unicode hex="0057"/>
  <anchor x="640.8199999999999" y="700.0" name="top"/>
  <anchor x="640.8199999999999" y="0.0" name="bottom"/>
  <outline>
    <contour>
      <point x="1045.64" y="0.0" type="line"/>
      <point x="1281.4" y="699.58" type="line"/>
      <point x="986.3399999999999" y="700.56" type="line"/>
      <point x="914.4799999999999" y="248.98" type="line"/>
      <point x="784.9799999999999" y="661.9999999999999" type="line"/>
      <point x="506.52000000000004" y="661.9999999999999" type="line"/>
      <point x="362.40000000000003" y="246.26" type="line"/>
      <point x="289.41999999999996" y="700.56" type="line"/>
      <point x="-0.4800000000000004" y="699.58" type="line"/>
      <point x="225.68" y="0.0" type="line"/>
      <point x="486.8" y="0.0" type="line"/>
      <point x="634.38" y="381.74000000000007" type="line"/>
      <point x="766.06" y="0.0" type="line"/>
    </contour>
  </outline>
</glyph>
<glyph name="X" format="2">
  <advance width="981.2400000000001"/>
  <unicode hex="0058"/>
  <outline>
    <contour>
      <point x="-0.08000000000000074" y="1.12" type="line"/>
      <point x="347.32" y="-1.1200000000000006" type="line"/>
      <point x="499.64" y="227.04000000000002" type="line"/>
      <point x="651.76" y="-1.1200000000000006" type="line"/>
      <point x="981.3199999999999" y="1.12" type="line"/>
      <point x="670.52" y="361.56" type="line"/>
      <point x="965.3599999999999" y="698.88" type="line"/>
      <point x="653.4399999999999" y="700.56" type="line"/>
      <point x="498.67999999999995" y="494.52" type="line"/>
      <point x="359.48" y="701.1199999999999" type="line"/>
      <point x="26.200000000000003" y="698.88" type="line"/>
      <point x="322.96" y="363.88" type="line"/>
    </contour>
  </outline>
</glyph>
<glyph name="Y" format="2">
  <advance width="1061.76"/>
  <unicode hex="0059"/>
  <anchor x="530.8800000000001" y="700.0" name="top"/>
  <anchor x="531.86" y="0.0" name="bottom"/>
  <outline>
    <contour>
      <point x="392.86" y="0.0" type="line"/>
      <point x="670.86" y="0.0" type="line"/>
      <point x="670.86" y="238.18" type="line"/>
      <point x="1066.68" y="698.88" type="line"/>
      <point x="758.8399999999999" y="701.12" type="line"/>
      <point x="533.58" y="379.15999999999997" type="line"/>
      <point x="306.36" y="701.12" type="line"/>
      <point x="-4.919999999999998" y="698.88" type="line"/>
      <point x="392.86" y="238.18" type="line"/>
    </contour>
  </outline>
</glyph>
<glyph name="Z" format="2">
  <advance width="1021.84"/>
  <unicode hex="005A"/>
  <anchor x="511.71999999999997" y="350.0" name="center"/>
  <anchor x="511.71999999999997" y="0.0" name="bottom"/>
  <anchor x="512.6999999999999" y="700.0" name="top"/>
  <outline>
    <contour>
      <point x="38.260000000000005" y="0.0" type="line"/>
      <point x="984.9799999999999" y="0.0" type="line"/>
      <point x="984.9799999999999" y="183.54" type="line"/>
      <point x="449.55999999999995" y="183.54" type="line"/>
      <point x="449.55999999999995" y="185.4" type="line"/>
      <point x="943.16" y="534.64" type="line"/>
      <point x="943.16" y="700.0" type="line"/>
      <point x="64.42" y="700.0" type="line"/>
      <point x="64.42" y="516.74" type="line"/>
      <point x="545.5" y="516.74" type="line"/>
      <point x="545.5" y="514.6" type="line"/>
      <point x="38.260000000000005" y="165.64" type="line"/>
    </contour>
  </outline>
</glyph>
<glyph name="bracketleft" format="2">
  <advance width="495.24"/>
  <unicode hex="005B"/>
  <outline>
    <contour>
      <point x="254.14" y="-71.32000000000001" type="line"/>
      <point x="254.14" y="601.3199999999999" type="line"/>
      <point x="456.12" y="601.3199999999999" type="line"/>
      <point x="456.12" y="740.0" type="line"/>
      <point x="53.53999999999999" y="740.0" type="line"/>
      <point x="53.53999999999999" y="-210.0" type="line"/>
      <point x="456.12" y="-210.0" type="line"/>
      <point x="456.12" y="-71.32000000000001" type="line"/>
    </contour>
  </outline>
</glyph>
<glyph name="backslash" format="2">
  <advance width="616.58"/>
  <unicode hex="005C"/>
  <outline>
    <contour>
      <point x="206.57999999999998" y="740.0" type="line"/>
      <point x="10.0" y="740.0" type="line"/>
      <point x="410.0" y="-210.0" type="line"/>
      <point x="606.5799999999999" y="-210.0" type="line"/>
    </contour>
  </outline>
</glyph>
<glyph name="bracketright" format="2">
  <advance width="495.24"/>
  <unicode hex="005D"/>
  <outline>
    <contour>
      <point x="39.12" y="-71.32000000000001" type="line"/>
      <point x="39.12" y="-210.0" type="line"/>
      <point x="441.7" y="-210.0" type="line"/>
      <point x="441.7" y="740.0" type="line"/>
      <point x="39.12" y="740.0" type="line"/>
      <point x="39.12" y="601.3199999999999" type="line"/>
      <point x="241.1" y="601.3199999999999" type="line"/>
      <point x="241.1" y="-71.32000000000001" type="line"/>
    </contour>
  </outline>
</glyph>
<glyph name="asciicircum" format="2">
  <advance width="750.92"/>
  <unicode hex="005E"/>
  <outline>
    <contour>
      <point x="44.38000000000001" y="212.36" type="line"/>
      <point x="249.70000000000002" y="212.36" type="line"/>
      <point x="375.46" y="446.06000000000006" type="line"/>
      <point x="502.08" y="212.36" type="line"/>
      <point x="706.54" y="212.36" type="line"/>
      <point x="480.06" y="701.4" type="line"/>
      <point x="270.86" y="701.4" type="line"/>
    </contour>
  </outline>
</glyph>
<glyph name="underscore" format="2">
  <advance width="1034.4"/>
  <unicode hex="005F"/>
  <outline>
    <contour>
      <point x="17.2" y="-199.64000000000001" type="line"/>
      <point x="1017.1999999999999" y="-199.64000000000001" type="line"/>
      <point x="1017.1999999999999" y="-52.36" type="line"/>
      <point x="17.2" y="-52.36" type="line"/>
    </contour>
  </outline>
</glyph>
<glyph name="a" format="2">
  <advance width="856.44"/>
  <unicode hex="0061"/>
  <anchor x="802.3199999999999" y="8.32" name="ogonek"/>
  <anchor x="424.91999999999996" y="0.0" name="bottom"/>
  <anchor x="425.20000000000005" y="547.1999999999999" name="top"/>
  <outline>
    <contour>
      <point x="35.28000000000001" y="158.83999999999997" type="curve" smooth="yes"/>
      <point x="35.28000000000001" y="23.840000000000003"/>
      <point x="149.56" y="-10.0"/>
      <point x="258.72" y="-10.0" type="curve" smooth="yes"/>
      <point x="368.24" y="-10.0"/>
      <point x="452.3999999999999" y="13.64"/>
      <point x="541.28" y="65.44" type="curve"/>
      <point x="568.36" y="10.759999999999998"/>
      <point x="629.12" y="-10.0"/>
      <point x="707.44" y="-10.0" type="curve" smooth="yes"/>
      <point x="761.0" y="-10.0"/>
      <point x="815.5600000000001" y="4.04"/>
      <point x="853.9199999999998" y="31.68" type="curve"/>
      <point x="832.44" y="171.64000000000001" type="line"/>
      <point x="822.8799999999999" y="167.64000000000001"/>
      <point x="810.88" y="167.36"/>
      <point x="802.32" y="167.36" type="curve" smooth="yes"/>
      <point x="783.0" y="167.36"/>
      <point x="769.2" y="179.6"/>
      <point x="769.1999999999999" y="219.84" type="curve" smooth="yes"/>
      <point x="769.1999999999999" y="350.56" type="line" smooth="yes"/>
      <point x="769.1999999999999" y="493.16"/>
      <point x="655.48" y="557.1999999999999"/>
      <point x="384.23999999999995" y="557.1999999999999" type="curve" smooth="yes"/>
      <point x="277.44" y="557.1999999999999"/>
      <point x="167.51999999999998" y="541.48"/>
      <point x="77.24" y="521.9200000000001" type="curve"/>
      <point x="104.6" y="362.59999999999997" type="line"/>
      <point x="172.92000000000002" y="378.28000000000003"/>
      <point x="290.88" y="393.71999999999997"/>
      <point x="367.32" y="393.71999999999997" type="curve" smooth="yes"/>
      <point x="466.12000000000006" y="393.71999999999997"/>
      <point x="514.0" y="381.88"/>
      <point x="514.0" y="346.4" type="curve" smooth="yes"/>
      <point x="513.9999999999999" y="336.28" type="line"/>
      <point x="161.8" y="330.12000000000006"/>
      <point x="35.28000000000001" y="302.79999999999995"/>
    </contour>
    <contour>
      <point x="303.96" y="164.39999999999998" type="curve" smooth="yes"/>
      <point x="303.96" y="209.23999999999998"/>
      <point x="350.88" y="221.11999999999995"/>
      <point x="514.0" y="224.83999999999997" type="curve"/>
      <point x="513.9999999999999" y="170.52" type="line"/>
      <point x="477.28000000000003" y="140.4"/>
      <point x="400.48" y="121.48"/>
      <point x="365.23999999999995" y="121.48" type="curve" smooth="yes"/>
      <point x="326.28000000000003" y="121.48"/>
      <point x="303.96" y="137.28"/>
    </contour>
  </outline>
</glyph>
<glyph name="b" format="2">
  <advance width="919.48"/>
  <unicode hex="0062"/>
  <outline>
    <contour>
      <point x="63.8" y="22.72" type="line"/>
      <point x="221.54" y="0.8600000000000003"/>
      <point x="350.54" y="-10.0"/>
      <point x="457.92" y="-10.0" type="curve" smooth="yes"/>
      <point x="753.9" y="-10.0"/>
      <point x="884.18" y="78.82"/>
      <point x="884.18" y="279.84000000000003" type="curve" smooth="yes"/>
      <point x="884.18" y="454.18"/>
      <point x="781.78" y="557.2"/>
      <point x="607.52" y="557.2" type="curve" smooth="yes"/>
      <point x="509.0" y="557.2"/>
      <point x="424.47999999999996" y="533.96"/>
      <point x="324.6" y="477.79999999999995" type="curve"/>
      <point x="324.6" y="740.0" type="line"/>
      <point x="63.8" y="740.0" type="line"/>
    </contour>
    <contour>
      <point x="324.6" y="165.14" type="curve"/>
      <point x="324.6" y="330.24" type="line"/>
      <point x="391.08" y="359.02"/>
      <point x="447.08000000000004" y="372.08000000000004"/>
      <point x="496.5799999999999" y="372.08000000000004" type="curve" smooth="yes"/>
      <point x="576.0000000000001" y="372.08000000000004"/>
      <point x="619.9399999999999" y="335.4"/>
      <point x="619.9399999999999" y="267.8" type="curve" smooth="yes"/>
      <point x="619.9399999999999" y="189.57999999999998"/>
      <point x="564.74" y="148.32"/>
      <point x="460.5" y="148.32" type="curve" smooth="yes"/>
      <point x="417.43999999999994" y="148.32"/>
      <point x="369.42" y="153.88"/>
    </contour>
  </outline>
</glyph>
<glyph name="c" format="2">
  <advance width="837.1800000000001"/>
  <unicode hex="0063"/>
  <anchor x="458.09999999999997" y="547.1999999999999" name="top"/>
  <anchor x="455.52" y="0.0" name="bottom"/>
  <outline>
    <contour>
      <point x="35.44" y="253.72000000000003" type="curve" smooth="yes"/>
      <point x="35.44" y="75.39999999999999"/>
      <point x="171.42" y="-10.0"/>
      <point x="453.6600000000001" y="-10.0" type="curve" smooth="yes"/>
      <point x="569.86" y="-10.0"/>
      <point x="694.88" y="2.6999999999999993"/>
      <point x="808.6800000000001" y="25.980000000000004" type="curve"/>
      <point x="782.1800000000001" y="180.48000000000002" type="line"/>
      <point x="675.6999999999999" y="163.36"/>
      <point x="596.6800000000001" y="155.82"/>
      <point x="503.1" y="155.82" type="curve" smooth="yes"/>
      <point x="375.62" y="155.82"/>
      <point x="299.12" y="184.14000000000001"/>
      <point x="299.12" y="263.90000000000003" type="curve" smooth="yes"/>
      <point x="299.12" y="348.9"/>
      <point x="359.38" y="387.22"/>
      <point x="484.04" y="387.22" type="curve" smooth="yes"/>
      <point x="562.74" y="387.22"/>
      <point x="660.2399999999999" y="378.1"/>
      <point x="764.02" y="360.68000000000006" type="curve"/>
      <point x="790.24" y="526.22" type="line"/>
      <point x="699.6399999999999" y="545.64"/>
      <point x="585.52" y="557.1999999999999"/>
      <point x="479.74" y="557.1999999999999" type="curve" smooth="yes"/>
      <point x="196.01999999999998" y="557.1999999999999"/>
      <point x="35.44" y="449.04"/>
    </contour>
  </outline>
</glyph>
<glyph name="d" format="2">
  <advance width="920.48"/>
  <unicode hex="0064"/>
  <anchor x="464.67999999999995" y="275.0" name="center"/>
  <anchor x="452.08000000000004" y="740.0" name="top"/>
  <anchor x="909.0" y="740.0" name="topright"/>
  <anchor x="464.67999999999995" y="0.0" name="bottom"/>
  <outline>
    <contour>
      <point x="635.56" y="-3.44" type="line"/>
      <point x="856.68" y="-3.44" type="line"/>
      <point x="856.68" y="740.0" type="line"/>
      <point x="595.88" y="740.0" type="line"/>
      <point x="595.88" y="551.12" type="line"/>
      <point x="551.44" y="555.08"/>
      <point x="505.88000000000005" y="557.2"/>
      <point x="461.56" y="557.2" type="curve" smooth="yes"/>
      <point x="165.71999999999997" y="557.2"/>
      <point x="35.44" y="468.52"/>
      <point x="35.44" y="267.35999999999996" type="curve" smooth="yes"/>
      <point x="35.44" y="93.88"/>
      <point x="138.56" y="-10.0"/>
      <point x="311.96000000000004" y="-10.0" type="curve" smooth="yes"/>
      <point x="410.48" y="-10.0"/>
      <point x="495.0" y="13.240000000000002"/>
      <point x="594.88" y="69.39999999999999" type="curve"/>
    </contour>
    <contour>
      <point x="594.8800000000001" y="216.96" type="line"/>
      <point x="528.4" y="188.32"/>
      <point x="472.4000000000001" y="175.11999999999998"/>
      <point x="423.04" y="175.11999999999998" type="curve" smooth="yes"/>
      <point x="343.48" y="175.11999999999998"/>
      <point x="299.68" y="211.79999999999995"/>
      <point x="299.68" y="279.4" type="curve" smooth="yes"/>
      <point x="299.68" y="357.76"/>
      <point x="354.88" y="398.88"/>
      <point x="459.11999999999995" y="398.88" type="curve" smooth="yes"/>
      <point x="503.0400000000001" y="398.88"/>
      <point x="550.1999999999999" y="393.32000000000005"/>
      <point x="594.8800000000001" y="382.2" type="curve"/>
    </contour>
  </outline>
</glyph>
<glyph name="e" format="2">
  <advance width="862.1599999999999"/>
  <unicode hex="0065"/>
  <anchor x="751.7600000000001" y="14.400000000000004" name="ogonek"/>
  <anchor x="435.08000000000004" y="0.0" name="bottom"/>
  <anchor x="445.3999999999999" y="547.1999999999999" name="top"/>
  <outline>
    <contour>
      <point x="460.12000000000006" y="-10.0" type="curve" smooth="yes"/>
      <point x="599.08" y="-10.0"/>
      <point x="706.4000000000001" y="1.519999999999996"/>
      <point x="817.6800000000001" y="26.84" type="curve"/>
      <point x="792.3199999999999" y="174.79999999999998" type="line"/>
      <point x="676.1600000000001" y="154.64"/>
      <point x="570.72" y="144.84"/>
      <point x="487.64000000000004" y="144.84" type="curve" smooth="yes"/>
      <point x="360.56" y="144.84"/>
      <point x="304.71999999999997" y="167.84"/>
      <point x="303.28" y="204.64000000000001" type="curve" smooth="yes"/>
      <point x="303.28" y="207.32"/>
      <point x="303.28" y="208.71999999999997"/>
      <point x="303.55999999999995" y="211.39999999999998" type="curve"/>
      <point x="544.64" y="215.56"/>
      <point x="707.3599999999999" y="225.95999999999998"/>
      <point x="815.3599999999999" y="230.67999999999995" type="curve"/>
      <point x="817.0799999999999" y="250.23999999999998"/>
      <point x="817.0799999999999" y="276.28000000000003"/>
      <point x="817.0799999999999" y="291.59999999999997" type="curve" smooth="yes"/>
      <point x="817.0799999999999" y="475.44"/>
      <point x="698.76" y="557.1999999999999"/>
      <point x="453.6399999999999" y="557.1999999999999" type="curve" smooth="yes"/>
      <point x="237.64000000000001" y="557.1999999999999"/>
      <point x="35.44" y="476.12"/>
      <point x="35.44" y="263.52" type="curve" smooth="yes"/>
      <point x="35.44" y="56.84"/>
      <point x="204.04" y="-10.0"/>
    </contour>
    <contour>
      <point x="304.84" y="335.24" type="curve"/>
      <point x="323.08" y="387.88"/>
      <point x="376.16" y="409.64"/>
      <point x="440.88000000000005" y="409.64" type="curve" smooth="yes"/>
      <point x="519.0400000000001" y="409.64"/>
      <point x="550.84" y="384.64000000000004"/>
      <point x="557.72" y="342.47999999999996" type="curve"/>
      <point x="501.12" y="340.20000000000005"/>
      <point x="402.88000000000005" y="336.96"/>
    </contour>
  </outline>
</glyph>
<glyph name="f" format="2">
  <advance width="640.9"/>
  <unicode hex="0066"/>
  <outline>
    <contour>
      <point x="127.38" y="0.0" type="line"/>
      <point x="384.74" y="0.0" type="line"/>
      <point x="384.74" y="327.26" type="line"/>
      <point x="604.2199999999999" y="327.26" type="line"/>
      <point x="604.2199999999999" y="484.00000000000006" type="line"/>
      <point x="384.74" y="484.00000000000006" type="line"/>
      <point x="384.74" y="494.70000000000005" type="line" smooth="yes"/>
      <point x="384.74" y="553.62"/>
      <point x="428.34" y="577.92"/>
      <point x="501.24" y="577.92" type="curve" smooth="yes"/>
      <point x="547.74" y="577.92"/>
      <point x="611.1800000000001" y="569.36"/>
      <point x="652.1999999999999" y="558.54" type="curve"/>
      <point x="680.42" y="717.0" type="line"/>
      <point x="609.9" y="738.5600000000001"/>
      <point x="527.8199999999999" y="750.14"/>
      <point x="448.22" y="750.14" type="curve" smooth="yes"/>
      <point x="243.60000000000002" y="750.14"/>
      <point x="127.38" y="661.92"/>
      <point x="127.38" y="499.86000000000007" type="curve" smooth="yes"/>
      <point x="127.38" y="484.00000000000006" type="line"/>
      <point x="18.340000000000003" y="466.1" type="line"/>
      <point x="18.340000000000003" y="327.26" type="line"/>
      <point x="127.38" y="327.26" type="line"/>
    </contour>
  </outline>
</glyph>
<glyph name="g" format="2">
  <advance width="891.16"/>
  <unicode hex="0067"/>
  <anchor x="422.48" y="547.1999999999999" name="top"/>
  <anchor x="404.20000000000005" y="-220.0" name="bottom"/>
  <outline>
    <contour>
      <point x="368.11999999999995" y="-220.0" type="curve" smooth="yes"/>
      <point x="715.4399999999999" y="-220.0"/>
      <point x="864.88" y="-149.44"/>
      <point x="864.88" y="-3.039999999999999" type="curve" smooth="yes"/>
      <point x="864.88" y="89.16"/>
      <point x="780.4000000000001" y="151.51999999999998"/>
      <point x="635.8000000000001" y="151.51999999999998" type="curve" smooth="yes"/>
      <point x="320.91999999999996" y="151.51999999999998" type="line" smooth="yes"/>
      <point x="281.76" y="151.51999999999998"/>
      <point x="262.48" y="160.88"/>
      <point x="262.48" y="183.04000000000002" type="curve" smooth="yes"/>
      <point x="262.48" y="201.96"/>
      <point x="274.52" y="214.92"/>
      <point x="300.4" y="228.76000000000002" type="curve"/>
      <point x="178.51999999999998" y="258.08" type="line"/>
      <point x="96.03999999999999" y="230.08"/>
      <point x="44.68000000000002" y="186.48000000000002"/>
      <point x="44.68000000000002" y="120.27999999999999" type="curve" smooth="yes"/>
      <point x="44.68000000000002" y="7.039999999999999"/>
      <point x="172.44" y="-14.319999999999997"/>
      <point x="356.08" y="-14.319999999999997" type="curve" smooth="yes"/>
      <point x="527.44" y="-14.319999999999997" type="line" smooth="yes"/>
      <point x="605.4399999999999" y="-14.319999999999997"/>
      <point x="614.12" y="-16.56"/>
      <point x="614.12" y="-38.16000000000001" type="curve" smooth="yes"/>
      <point x="614.12" y="-69.12"/>
      <point x="551.3199999999999" y="-86.68"/>
      <point x="395.6" y="-86.68" type="curve" smooth="yes"/>
      <point x="257.52" y="-86.68"/>
      <point x="222.07999999999998" y="-75.52000000000001"/>
      <point x="222.07999999999998" y="-38.80000000000001" type="curve" smooth="yes"/>
      <point x="222.07999999999998" y="-21.200000000000003"/>
      <point x="230.76" y="-9.479999999999997"/>
      <point x="259.76" y="2.799999999999999" type="curve"/>
      <point x="146.12" y="39.16" type="line"/>
      <point x="38.31999999999999" y="8.120000000000005"/>
      <point x="12.639999999999997" y="-38.12"/>
      <point x="12.639999999999997" y="-88.4" type="curve" smooth="yes"/>
      <point x="12.639999999999997" y="-177.04"/>
      <point x="130.2" y="-220.0"/>
    </contour>
    <contour>
      <point x="421.64" y="195.2" type="curve" smooth="yes"/>
      <point x="664.1199999999999" y="195.2"/>
      <point x="782.76" y="255.64000000000001"/>
      <point x="782.76" y="376.84" type="curve" smooth="yes"/>
      <point x="782.76" y="497.76000000000005"/>
      <point x="664.1199999999999" y="558.1999999999999"/>
      <point x="421.64" y="558.1999999999999" type="curve" smooth="yes"/>
      <point x="179.16" y="558.1999999999999"/>
      <point x="60.8" y="497.76000000000005"/>
      <point x="60.8" y="376.84" type="curve" smooth="yes"/>
      <point x="60.8" y="255.64000000000001"/>
      <point x="179.16" y="195.2"/>
    </contour>
    <contour>
      <point x="421.64" y="327.56" type="curve" smooth="yes"/>
      <point x="338.8" y="327.56"/>
      <point x="303.12" y="341.88"/>
      <point x="303.12" y="376.84" type="curve" smooth="yes"/>
      <point x="303.12" y="411.52000000000004"/>
      <point x="338.8" y="425.84000000000003"/>
      <point x="421.64" y="425.84000000000003" type="curve" smooth="yes"/>
      <point x="504.48" y="425.84000000000003"/>
      <point x="540.16" y="411.52000000000004"/>
      <point x="540.16" y="376.84" type="curve" smooth="yes"/>
      <point x="540.16" y="341.88"/>
      <point x="504.48" y="327.56"/>
    </contour>
    <contour>
      <point x="744.3199999999999" y="415.56" type="line"/>
      <point x="757.44" y="430.03999999999996"/>
      <point x="775.2" y="435.28"/>
      <point x="800.04" y="435.28" type="curve" smooth="yes"/>
      <point x="818.3199999999999" y="435.28"/>
      <point x="842.2" y="433.56000000000006"/>
      <point x="860.76" y="429.56" type="curve"/>
      <point x="880.96" y="585.44" type="line"/>
      <point x="861.28" y="588.44"/>
      <point x="841.4" y="589.44"/>
      <point x="814.8000000000001" y="589.44" type="curve" smooth="yes"/>
      <point x="718.04" y="589.44"/>
      <point x="659.6" y="554.4000000000001"/>
      <point x="645.4799999999999" y="487.64" type="curve"/>
    </contour>
  </outline>
</glyph>
<glyph name="h" format="2">
  <advance width="892.14"/>
  <unicode hex="0068"/>
  <anchor x="437.54" y="395.0" name="center"/>
  <anchor x="446.14000000000004" y="0.0" name="bottom"/>
  <anchor x="445.2800000000001" y="740.0" name="top"/>
  <outline>
    <contour>
      <point x="63.8" y="0.0" type="line"/>
      <point x="324.6" y="0.0" type="line"/>
      <point x="324.6" y="338.76" type="line"/>
      <point x="379.46000000000004" y="359.03999999999996"/>
      <point x="422.85999999999996" y="372.94"/>
      <point x="468.66" y="372.94" type="curve" smooth="yes"/>
      <point x="531.3600000000001" y="372.94"/>
      <point x="567.54" y="340.21999999999997"/>
      <point x="567.54" y="256.46" type="curve" smooth="yes"/>
      <point x="567.54" y="0.0" type="line"/>
      <point x="828.34" y="0.0" type="line"/>
      <point x="828.34" y="349.34" type="line" smooth="yes"/>
      <point x="828.34" y="461.28"/>
      <point x="750.2" y="557.2"/>
      <point x="574.44" y="557.2" type="curve" smooth="yes"/>
      <point x="482.92" y="557.2"/>
      <point x="417.32" y="534.42"/>
      <point x="324.6" y="491.34" type="curve"/>
      <point x="324.6" y="740.0" type="line"/>
      <point x="63.8" y="740.0" type="line"/>
    </contour>
  </outline>
</glyph>
<glyph name="i" format="2">
  <advance width="388.40000000000003"/>
  <unicode hex="0069"/>
  <anchor x="324.46000000000004" y="0.0" name="ogonek"/>
  <anchor x="194.2" y="0.0" name="bottom"/>
  <outline>
    <contour>
      <point x="194.2" y="584.98" type="curve" smooth="yes"/>
      <point x="308.24" y="584.98"/>
      <point x="351.38" y="617.8000000000001"/>
      <point x="351.38" y="681.96" type="curve" smooth="yes"/>
      <point x="351.38" y="746.12"/>
      <point x="308.24" y="778.94"/>
      <point x="194.2" y="778.94" type="curve" smooth="yes"/>
      <point x="80.16" y="778.94"/>
      <point x="37.02" y="746.12"/>
      <point x="37.02" y="681.96" type="curve" smooth="yes"/>
      <point x="37.02" y="617.8000000000001"/>
      <point x="80.3" y="584.98"/>
    </contour>
    <contour>
      <point x="63.8" y="0.0" type="line"/>
      <point x="324.6" y="0.0" type="line"/>
      <point x="324.6" y="547.2" type="line"/>
      <point x="63.8" y="547.2" type="line"/>
    </contour>
  </outline>
</glyph>
<glyph name="j" format="2">
  <advance width="412.76"/>
  <unicode hex="006A"/>
  <outline>
    <contour>
      <point x="349.09999999999997" y="547.2" type="line"/>
      <point x="88.3" y="547.2" type="line"/>
      <point x="88.3" y="75.06" type="line" smooth="yes"/>
      <point x="88.3" y="-0.16000000000000014"/>
      <point x="59.58000000000001" y="-27.34000000000001"/>
      <point x="-6.32" y="-31.82" type="curve" smooth="yes"/>
      <point x="-12.02" y="-32.660000000000004"/>
      <point x="-17.72" y="-33.35999999999999"/>
      <point x="-23.560000000000002" y="-33.919999999999995" type="curve"/>
      <point x="-30.759999999999998" y="-213.73999999999998" type="line"/>
      <point x="-3.2799999999999976" y="-214.9"/>
      <point x="47.42" y="-216.64"/>
      <point x="73.76" y="-215.79999999999998" type="curve" smooth="yes"/>
      <point x="266.64" y="-210.9"/>
      <point x="349.09999999999997" y="-110.64"/>
      <point x="349.09999999999997" y="69.04" type="curve" smooth="yes"/>
    </contour>
    <contour>
      <point x="218.42" y="584.98" type="curve" smooth="yes"/>
      <point x="332.46000000000004" y="584.98"/>
      <point x="375.6" y="617.8000000000001"/>
      <point x="375.6" y="681.96" type="curve" smooth="yes"/>
      <point x="375.6" y="746.12"/>
      <point x="332.46" y="778.94"/>
      <point x="218.42" y="778.94" type="curve" smooth="yes"/>
      <point x="104.38" y="778.94"/>
      <point x="61.24000000000001" y="746.12"/>
      <point x="61.24000000000001" y="681.96" type="curve" smooth="yes"/>
      <point x="61.24000000000001" y="617.8000000000001"/>
      <point x="104.52" y="584.98"/>
    </contour>
  </outline>
</glyph>
<glyph name="k" format="2">
  <advance width="867.3599999999999"/>
  <unicode hex="006B"/>
  <anchor x="190.04000000000002" y="740.0" name="top"/>
  <anchor x="445.84000000000003" y="0.0" name="bottom"/>
  <outline>
    <contour>
      <point x="783.0400000000001" y="-10.0" type="curve" smooth="yes"/>
      <point x="809.4" y="-10.0"/>
      <point x="820.8400000000001" y="-9.28"/>
      <point x="831.0" y="-8.280000000000001" type="curve"/>
      <point x="830.44" y="208.48000000000002" type="line"/>
      <point x="820.28" y="207.48000000000002"/>
      <point x="810.8399999999999" y="207.48"/>
      <point x="800.2400000000001" y="207.48" type="curve" smooth="yes"/>
      <point x="748.0799999999999" y="207.48"/>
      <point x="688.28" y="224.68"/>
      <point x="551.72" y="296.08" type="curve" smooth="yes"/>
      <point x="316.0" y="418.48" type="line"/>
      <point x="316.0" y="740.0" type="line"/>
      <point x="63.800000000000004" y="740.0" type="line"/>
      <point x="63.800000000000004" y="0.0" type="line"/>
      <point x="316.0" y="0.0" type="line"/>
      <point x="316.0" y="193.0" type="line"/>
      <point x="519.04" y="80.47999999999999" type="line" smooth="yes"/>
      <point x="661.48" y="1.7199999999999989"/>
      <point x="723.56" y="-10.0"/>
    </contour>
    <contour>
      <point x="497.92" y="263.28" type="line"/>
      <point x="596.8" y="310.67999999999995"/>
      <point x="765.28" y="422.8"/>
      <point x="819.6" y="546.92" type="curve"/>
      <point x="538.48" y="557.1999999999999" type="line"/>
      <point x="501.2000000000001" y="485.52"/>
      <point x="419.84" y="411.52"/>
      <point x="244.07999999999998" y="291.32" type="curve"/>
    </contour>
  </outline>
</glyph>
<glyph name="l" format="2">
  <advance width="505.22"/>
  <unicode hex="006C"/>
  <anchor x="251.82" y="395.0" name="center"/>
  <anchor x="194.2" y="740.0" name="top"/>
  <anchor x="376.92" y="740.0" name="topright"/>
  <anchor x="277.42" y="0.0" name="bottom"/>
  <outline>
    <contour>
      <point x="324.6" y="740.0" type="line"/>
      <point x="63.8" y="740.0" type="line"/>
      <point x="63.8" y="231.54" type="line" smooth="yes"/>
      <point x="63.8" y="49.54"/>
      <point x="150.57999999999998" y="-10.0"/>
      <point x="315.9" y="-10.0" type="curve" smooth="yes"/>
      <point x="392.18" y="-10.0"/>
      <point x="452.84" y="3.0200000000000005"/>
      <point x="508.94" y="22.34" type="curve"/>
      <point x="479.14" y="192.83999999999997" type="line"/>
      <point x="443.67999999999995" y="183.84"/>
      <point x="416.7" y="178.56"/>
      <point x="394.15999999999997" y="178.56" type="curve" smooth="yes"/>
      <point x="350.64" y="178.56"/>
      <point x="324.6" y="189.38"/>
      <point x="324.6" y="243.58000000000004" type="curve" smooth="yes"/>
    </contour>
  </outline>
</glyph>
<glyph name="m" format="2">
  <advance width="1314.54"/>
  <unicode hex="006D"/>
  <outline>
    <contour>
      <point x="63.8" y="0.0" type="line"/>
      <point x="324.59999999999997" y="0.0" type="line"/>
      <point x="324.59999999999997" y="337.78000000000003" type="line"/>
      <point x="364.92" y="356.62"/>
      <point x="399.46000000000004" y="367.94"/>
      <point x="436.28" y="367.94" type="curve" smooth="yes"/>
      <point x="503.48" y="367.94"/>
      <point x="527.22" y="321.08"/>
      <point x="527.22" y="255.76" type="curve" smooth="yes"/>
      <point x="527.22" y="0.0" type="line"/>
      <point x="788.02" y="0.0" type="line"/>
      <point x="788.02" y="285.0" type="line" smooth="yes"/>
      <point x="788.02" y="301.7"/>
      <point x="787.74" y="320.65999999999997"/>
      <point x="785.3399999999999" y="338.90000000000003" type="curve"/>
      <point x="827.0999999999999" y="355.82"/>
      <point x="863.5600000000001" y="369.5"/>
      <point x="901.88" y="369.5" type="curve" smooth="yes"/>
      <point x="968.78" y="369.5"/>
      <point x="989.94" y="323.35999999999996"/>
      <point x="989.94" y="256.32" type="curve" smooth="yes"/>
      <point x="989.94" y="0.0" type="line"/>
      <point x="1250.74" y="0.0" type="line"/>
      <point x="1250.74" y="349.2" type="line" smooth="yes"/>
      <point x="1250.74" y="464.37999999999994"/>
      <point x="1170.8200000000002" y="557.2"/>
      <point x="1027.44" y="557.2" type="curve" smooth="yes"/>
      <point x="931.5199999999999" y="557.2"/>
      <point x="862.0999999999999" y="531.48"/>
      <point x="739.5" y="468.84000000000003" type="curve"/>
      <point x="705.04" y="528.86"/>
      <point x="652.76" y="556.5"/>
      <point x="552.38" y="556.5" type="curve" smooth="yes"/>
      <point x="471.86" y="556.5"/>
      <point x="393.78000000000003" y="529.86"/>
      <point x="297.94" y="477.88000000000005" type="curve"/>
      <point x="297.94" y="547.2" type="line"/>
      <point x="63.8" y="547.2" type="line"/>
    </contour>
  </outline>
</glyph>
<glyph name="n" format="2">
  <advance width="892.1399999999999"/>
  <unicode hex="006E"/>
  <anchor x="439.36" y="547.2" name="top"/>
  <anchor x="439.64" y="0.0" name="bottom"/>
  <outline>
    <contour>
      <point x="63.8" y="0.0" type="line"/>
      <point x="324.59999999999997" y="0.0" type="line"/>
      <point x="324.59999999999997" y="338.76" type="line"/>
      <point x="379.46000000000004" y="359.03999999999996"/>
      <point x="422.85999999999996" y="372.94"/>
      <point x="468.66" y="372.94" type="curve" smooth="yes"/>
      <point x="531.3599999999999" y="372.94"/>
      <point x="567.54" y="340.21999999999997"/>
      <point x="567.54" y="256.46" type="curve" smooth="yes"/>
      <point x="567.54" y="0.0" type="line"/>
      <point x="828.34" y="0.0" type="line"/>
      <point x="828.34" y="349.34000000000003" type="line" smooth="yes"/>
      <point x="828.34" y="461.28"/>
      <point x="750.2" y="557.2"/>
      <point x="574.44" y="557.2" type="curve" smooth="yes"/>
      <point x="475.18" y="557.2"/>
      <point x="405.14000000000004" y="530.1199999999999"/>
      <point x="297.94" y="478.43999999999994" type="curve"/>
      <point x="297.94" y="547.2" type="line"/>
      <point x="63.8" y="547.2" type="line"/>
    </contour>
  </outline>
</glyph>
<glyph name="o" format="2">
  <advance width="895.3599999999999"/>
  <unicode hex="006F"/>
  <anchor x="579.72" y="0.9999999999999994" name="ogonek"/>
  <anchor x="447.67999999999995" y="547.2" name="top"/>
  <anchor x="698.92" y="538.6" name="topright"/>
  <anchor x="448.4" y="0.0" name="bottom"/>
  <outline>
    <contour>
      <point x="35.44" y="275.59999999999997" type="curve" smooth="yes"/>
      <point x="35.44" y="87.44"/>
      <point x="161.04" y="-10.0"/>
      <point x="448.4" y="-10.0" type="curve" smooth="yes"/>
      <point x="734.3199999999999" y="-10.0"/>
      <point x="859.92" y="87.44"/>
      <point x="859.92" y="275.59999999999997" type="curve" smooth="yes"/>
      <point x="859.92" y="450.76"/>
      <point x="752.04" y="557.2"/>
      <point x="448.4" y="557.2" type="curve" smooth="yes"/>
      <point x="143.04" y="557.2"/>
      <point x="35.44" y="450.76"/>
    </contour>
    <contour>
      <point x="300.4" y="274.87999999999994" type="curve" smooth="yes"/>
      <point x="300.4" y="351.08"/>
      <point x="337.08" y="407.52"/>
      <point x="447.67999999999995" y="407.52" type="curve" smooth="yes"/>
      <point x="559.0" y="407.52"/>
      <point x="594.68" y="351.08"/>
      <point x="594.68" y="274.87999999999994" type="curve" smooth="yes"/>
      <point x="594.68" y="192.55999999999997"/>
      <point x="551.6" y="139.67999999999998"/>
      <point x="447.67999999999995" y="139.67999999999998" type="curve" smooth="yes"/>
      <point x="343.76" y="139.67999999999998"/>
      <point x="300.4" y="192.55999999999997"/>
    </contour>
  </outline>
</glyph>
<glyph name="p" format="2">
  <advance width="919.48"/>
  <unicode hex="0070"/>
  <outline>
    <contour>
      <point x="63.8" y="-210.0" type="line"/>
      <point x="325.46" y="-210.0" type="line"/>
      <point x="325.46" y="-3.639999999999999" type="line"/>
      <point x="371.0" y="-7.88"/>
      <point x="414.88" y="-10.0"/>
      <point x="457.91999999999996" y="-10.0" type="curve" smooth="yes"/>
      <point x="753.9" y="-10.0"/>
      <point x="884.1800000000001" y="78.82"/>
      <point x="884.1800000000001" y="279.84000000000003" type="curve" smooth="yes"/>
      <point x="884.1800000000001" y="454.18"/>
      <point x="781.78" y="557.2"/>
      <point x="607.52" y="557.2" type="curve" smooth="yes"/>
      <point x="508.14" y="557.2"/>
      <point x="409.86" y="528.8"/>
      <point x="297.94" y="465.75999999999993" type="curve"/>
      <point x="297.94" y="547.2" type="line"/>
      <point x="63.8" y="547.2" type="line"/>
    </contour>
    <contour>
      <point x="460.5" y="148.32" type="curve" smooth="yes"/>
      <point x="417.43999999999994" y="148.32"/>
      <point x="369.42" y="153.88"/>
      <point x="324.59999999999997" y="165.14" type="curve"/>
      <point x="324.59999999999997" y="330.24" type="line"/>
      <point x="391.08" y="359.02000000000004"/>
      <point x="447.08000000000004" y="372.08000000000004"/>
      <point x="496.58000000000004" y="372.08000000000004" type="curve" smooth="yes"/>
      <point x="576.0000000000001" y="372.08000000000004"/>
      <point x="619.9399999999999" y="335.40000000000003"/>
      <point x="619.9399999999999" y="267.8" type="curve" smooth="yes"/>
      <point x="619.9399999999999" y="189.58"/>
      <point x="564.74" y="148.32"/>
    </contour>
  </outline>
</glyph>
<glyph name="q" format="2">
  <advance width="919.48"/>
  <unicode hex="0071"/>
  <outline>
    <contour>
      <point x="855.6800000000001" y="524.48" type="line"/>
      <point x="697.9399999999999" y="546.3399999999999"/>
      <point x="568.9399999999999" y="557.2"/>
      <point x="461.56000000000006" y="557.2" type="curve" smooth="yes"/>
      <point x="165.57999999999998" y="557.2"/>
      <point x="35.3" y="468.38"/>
      <point x="35.3" y="267.36" type="curve" smooth="yes"/>
      <point x="35.3" y="93.02000000000001"/>
      <point x="137.7" y="-10.0"/>
      <point x="311.96" y="-10.0" type="curve" smooth="yes"/>
      <point x="410.48" y="-10.0"/>
      <point x="495.0" y="13.239999999999998"/>
      <point x="594.88" y="69.4" type="curve"/>
      <point x="594.88" y="-210.0" type="line"/>
      <point x="855.6800000000001" y="-210.0" type="line"/>
    </contour>
    <contour>
      <point x="594.88" y="382.06" type="curve"/>
      <point x="594.88" y="216.96" type="line"/>
      <point x="528.4" y="188.18"/>
      <point x="472.4" y="175.12"/>
      <point x="422.9" y="175.12" type="curve" smooth="yes"/>
      <point x="343.48" y="175.12"/>
      <point x="299.53999999999996" y="211.8"/>
      <point x="299.53999999999996" y="279.4" type="curve" smooth="yes"/>
      <point x="299.53999999999996" y="357.62"/>
      <point x="354.74" y="398.88"/>
      <point x="458.97999999999996" y="398.88" type="curve" smooth="yes"/>
      <point x="502.9" y="398.88"/>
      <point x="550.06" y="393.32"/>
    </contour>
  </outline>
</glyph>
<glyph name="r" format="2">
  <advance width="652.84"/>
  <unicode hex="0072"/>
  <anchor x="337.24" y="547.2" name="top"/>
  <anchor x="194.2" y="0.0" name="bottom"/>
  <outline>
    <contour>
      <point x="297.94" y="547.2" type="line"/>
      <point x="63.8" y="547.2" type="line"/>
      <point x="63.8" y="0.0" type="line"/>
      <point x="324.6" y="0.0" type="line"/>
      <point x="324.6" y="317.08000000000004" type="line"/>
      <point x="389.72" y="350.41999999999996"/>
      <point x="443.40000000000003" y="360.90000000000003"/>
      <point x="490.80000000000007" y="360.90000000000003" type="curve" smooth="yes"/>
      <point x="529.5" y="360.90000000000003"/>
      <point x="566.1600000000001" y="354.62"/>
      <point x="608.6" y="345.48" type="curve"/>
      <point x="643.56" y="543.5" type="line"/>
      <point x="607.4" y="551.64"/>
      <point x="569.6" y="557.2"/>
      <point x="534.9599999999999" y="557.2" type="curve" smooth="yes"/>
      <point x="449.44" y="557.2"/>
      <point x="394.71999999999997" y="530.8"/>
      <point x="297.94" y="457.02" type="curve"/>
    </contour>
  </outline>
</glyph>
<glyph name="s" format="2">
  <advance width="728.8"/>
  <unicode hex="0073"/>
  <anchor x="357.20000000000005" y="547.1999999999999" name="top"/>
  <anchor x="358.6" y="0.0" name="bottom"/>
  <outline>
    <contour>
      <point x="30.759999999999998" y="22.360000000000003" type="line"/>
      <point x="128.96" y="0.040000000000000924"/>
      <point x="238.48" y="-10.0"/>
      <point x="341.8" y="-10.0" type="curve" smooth="yes"/>
      <point x="503.31999999999994" y="-10.0"/>
      <point x="703.48" y="8.759999999999998"/>
      <point x="703.48" y="179.55999999999997" type="curve" smooth="yes"/>
      <point x="703.48" y="296.16"/>
      <point x="602.6800000000001" y="338.4"/>
      <point x="455.56" y="350.79999999999995" type="curve" smooth="yes"/>
      <point x="341.52" y="360.48"/>
      <point x="293.8" y="355.59999999999997"/>
      <point x="293.8" y="383.20000000000005" type="curve" smooth="yes"/>
      <point x="293.8" y="403.16"/>
      <point x="326.52000000000004" y="411.68000000000006"/>
      <point x="380.03999999999996" y="411.68000000000006" type="curve" smooth="yes"/>
      <point x="499.63999999999993" y="411.68000000000006"/>
      <point x="574.96" y="393.6"/>
      <point x="633.72" y="378.55999999999995" type="curve"/>
      <point x="659.3599999999999" y="524.6399999999999" type="line"/>
      <point x="587.1199999999999" y="541.8399999999999"/>
      <point x="501.28" y="557.1999999999999"/>
      <point x="385.2" y="557.1999999999999" type="curve" smooth="yes"/>
      <point x="156.0" y="557.1999999999999"/>
      <point x="48.71999999999999" y="500.59999999999997"/>
      <point x="48.71999999999999" y="355.56" type="curve" smooth="yes"/>
      <point x="48.71999999999999" y="256.32"/>
      <point x="114.16000000000003" y="215.56000000000003"/>
      <point x="234.4" y="198.68000000000004" type="curve" smooth="yes"/>
      <point x="345.56" y="183.07999999999998"/>
      <point x="454.4" y="189.04000000000002"/>
      <point x="454.4" y="158.64000000000001" type="curve" smooth="yes"/>
      <point x="454.4" y="140.39999999999998"/>
      <point x="420.52000000000004" y="130.20000000000002"/>
      <point x="363.15999999999997" y="130.20000000000002" type="curve" smooth="yes"/>
      <point x="278.6" y="130.20000000000002"/>
      <point x="134.95999999999998" y="150.28"/>
      <point x="56.39999999999999" y="170.88" type="curve"/>
    </contour>
  </outline>
</glyph>
<glyph name="t" format="2">
  <advance width="647.9000000000001"/>
  <unicode hex="0074"/>
  <anchor x="312.84" y="275.0" name="center"/>
  <anchor x="270.08" y="665.0" name="top"/>
  <anchor x="464.06" y="790.7" name="topright"/>
  <anchor x="356.35999999999996" y="0.0" name="bottom"/>
  <outline>
    <contour>
      <point x="373.68" y="-10.0" type="curve" smooth="yes"/>
      <point x="462.06" y="-10.0"/>
      <point x="535.3199999999999" y="3.0000000000000004"/>
      <point x="624.76" y="23.260000000000005" type="curve"/>
      <point x="594.6800000000001" y="202.22000000000003" type="line"/>
      <point x="535.7" y="190.4"/>
      <point x="497.96000000000004" y="182.0"/>
      <point x="461.96" y="182.0" type="curve" smooth="yes"/>
      <point x="408.62" y="182.0"/>
      <point x="387.3" y="201.6"/>
      <point x="387.3" y="248.96" type="curve" smooth="yes"/>
      <point x="387.3" y="390.46000000000004" type="line"/>
      <point x="594.9" y="390.46000000000004" type="line"/>
      <point x="594.9" y="547.2" type="line"/>
      <point x="387.3" y="547.2" type="line"/>
      <point x="387.3" y="665.0" type="line"/>
      <point x="152.86" y="665.0" type="line"/>
      <point x="126.50000000000001" y="547.2" type="line"/>
      <point x="5.12" y="529.3000000000001" type="line"/>
      <point x="5.12" y="390.46" type="line"/>
      <point x="126.50000000000001" y="390.46" type="line"/>
      <point x="126.50000000000001" y="236.92" type="line" smooth="yes"/>
      <point x="126.50000000000001" y="47.02"/>
      <point x="221.28" y="-10.0"/>
    </contour>
  </outline>
</glyph>
<glyph name="u" format="2">
  <advance width="909.56"/>
  <unicode hex="0075"/>
  <anchor x="907.1800000000001" y="31.68" name="ogonek"/>
  <anchor x="454.24" y="547.2" name="top"/>
  <anchor x="822.3199999999999" y="547.2" name="topright"/>
  <anchor x="455.64" y="0.0" name="bottom"/>
  <outline>
    <contour>
      <point x="315.46" y="-10.0" type="curve" smooth="yes"/>
      <point x="420.20000000000005" y="-10.0"/>
      <point x="499.58000000000004" y="17.08"/>
      <point x="595.34" y="65.46000000000001" type="curve"/>
      <point x="625.84" y="13.980000000000002"/>
      <point x="666.82" y="-10.0"/>
      <point x="745.8" y="-10.0" type="curve" smooth="yes"/>
      <point x="803.8" y="-10.0"/>
      <point x="873.84" y="8.48"/>
      <point x="907.1800000000001" y="31.68" type="curve"/>
      <point x="885.6999999999999" y="171.51999999999998" type="line"/>
      <point x="876.4200000000001" y="167.38"/>
      <point x="868.58" y="166.1"/>
      <point x="859.16" y="166.1" type="curve" smooth="yes"/>
      <point x="839.24" y="166.1"/>
      <point x="822.3199999999999" y="178.76000000000002"/>
      <point x="822.3199999999999" y="211.23999999999998" type="curve" smooth="yes"/>
      <point x="822.3199999999999" y="547.2" type="line"/>
      <point x="561.52" y="547.2" type="line"/>
      <point x="561.52" y="203.14" type="line"/>
      <point x="504.0400000000001" y="180.56"/>
      <point x="470.65999999999997" y="170.82000000000002"/>
      <point x="423.82" y="170.82000000000002" type="curve" smooth="yes"/>
      <point x="361.64" y="170.82000000000002"/>
      <point x="324.6" y="202.84"/>
      <point x="324.6" y="275.9" type="curve" smooth="yes"/>
      <point x="324.6" y="547.2" type="line"/>
      <point x="63.800000000000004" y="547.2" type="line"/>
      <point x="63.800000000000004" y="195.06" type="line" smooth="yes"/>
      <point x="63.800000000000004" y="70.44"/>
      <point x="160.16000000000003" y="-10.0"/>
    </contour>
  </outline>
</glyph>
<glyph name="v" format="2">
  <advance width="857.34"/>
  <unicode hex="0076"/>
  <outline>
    <contour>
      <point x="298.90000000000003" y="0.0" type="line"/>
      <point x="558.3" y="0.0" type="line"/>
      <point x="849.5" y="546.36" type="line"/>
      <point x="556.58" y="548.04" type="line"/>
      <point x="439.92" y="188.54" type="line"/>
      <point x="300.76" y="548.04" type="line"/>
      <point x="7.84" y="546.36" type="line"/>
    </contour>
  </outline>
</glyph>
<glyph name="w" format="2">
  <advance width="1175.22"/>
  <unicode hex="0077"/>
  <anchor x="588.0400000000001" y="547.2" name="top"/>
  <anchor x="588.0400000000001" y="0.0" name="bottom"/>
  <outline>
    <contour>
      <point x="196.95999999999998" y="0.0" type="line"/>
      <point x="479.28" y="0.0" type="line"/>
      <point x="578.58" y="301.46000000000004" type="line"/>
      <point x="694.22" y="0.0" type="line"/>
      <point x="962.7799999999999" y="0.0" type="line"/>
      <point x="1164.38" y="546.5" type="line"/>
      <point x="913.32" y="547.9" type="line"/>
      <point x="836.52" y="208.88" type="line"/>
      <point x="724.4599999999999" y="547.2" type="line"/>
      <point x="450.76" y="547.2" type="line"/>
      <point x="340.97999999999996" y="210.46" type="line"/>
      <point x="270.5" y="547.9" type="line"/>
      <point x="10.84" y="546.5" type="line"/>
    </contour>
  </outline>
</glyph>
<glyph name="x" format="2">
  <advance width="902.28"/>
  <unicode hex="0078"/>
  <outline>
    <contour>
      <point x="1.6400000000000006" y="1.120000000000001" type="line"/>
      <point x="340.47999999999996" y="-1.1200000000000003" type="line"/>
      <point x="460.0" y="150.08" type="line"/>
      <point x="582.8" y="-1.1200000000000003" type="line"/>
      <point x="900.6400000000001" y="1.120000000000001" type="line"/>
      <point x="615.8800000000001" y="283.16" type="line"/>
      <point x="886.52" y="546.0799999999999" type="line"/>
      <point x="582.2399999999999" y="548.32" type="line"/>
      <point x="460.91999999999996" y="409.28000000000003" type="line"/>
      <point x="345.64" y="548.32" type="line"/>
      <point x="25.080000000000005" y="546.0799999999999" type="line"/>
      <point x="296.96" y="282.08" type="line"/>
    </contour>
  </outline>
</glyph>
<glyph name="y" format="2">
  <advance width="863.36"/>
  <unicode hex="0079"/>
  <anchor x="432.03999999999996" y="547.1999999999999" name="top"/>
  <anchor x="704.16" y="0.0" name="bottom"/>
  <outline>
    <contour>
      <point x="214.95999999999998" y="-209.44" type="line"/>
      <point x="486.48" y="-210.84" type="line"/>
      <point x="855.52" y="547.2" type="line"/>
      <point x="585.36" y="548.6" type="line"/>
      <point x="445.68" y="182.84000000000003" type="line"/>
      <point x="302.16" y="548.6" type="line"/>
      <point x="7.839999999999999" y="546.9200000000001" type="line"/>
      <point x="291.64" y="0.0" type="line"/>
      <point x="315.31999999999994" y="0.0" type="line"/>
    </contour>
  </outline>
</glyph>
<glyph name="z" format="2">
  <advance width="831.92"/>
  <unicode hex="007A"/>
  <anchor x="417.91999999999996" y="547.2" name="top"/>
  <outline>
    <contour>
      <point x="40.56" y="0.0" type="line"/>
      <point x="790.76" y="0.0" type="line"/>
      <point x="790.76" y="162.76" type="line"/>
      <point x="404.79999999999995" y="162.76" type="line"/>
      <point x="762.8399999999999" y="407.08000000000004" type="line"/>
      <point x="762.8399999999999" y="547.2" type="line"/>
      <point x="63.72" y="547.2" type="line"/>
      <point x="63.72" y="384.44" type="line"/>
      <point x="407.20000000000005" y="384.44" type="line"/>
      <point x="40.56" y="140.12" type="line"/>
    </contour>
  </outline>
</glyph>
<glyph name="braceleft" format="2">
  <advance width="495.24"/>
  <unicode hex="007B"/>
  <outline>
    <contour>
      <point x="82.18" y="-38.04" type="curve" smooth="yes"/>
      <point x="82.18" y="-159.64"/>
      <point x="182.98" y="-210.0"/>
      <point x="312.96000000000004" y="-210.0" type="curve" smooth="yes"/>
      <point x="454.71999999999997" y="-210.0" type="line"/>
      <point x="454.71999999999997" y="-71.32000000000001" type="line"/>
      <point x="385.2" y="-71.32000000000001" type="line" smooth="yes"/>
      <point x="332.28" y="-71.32000000000001"/>
      <point x="312.02" y="-46.44"/>
      <point x="312.02" y="-9.66" type="curve" smooth="yes"/>
      <point x="312.02" y="37.260000000000005"/>
      <point x="353.62" y="85.32"/>
      <point x="353.62" y="139.84" type="curve" smooth="yes"/>
      <point x="353.62" y="187.0"/>
      <point x="340.46" y="232.64"/>
      <point x="253.94" y="265.0" type="curve"/>
      <point x="340.31999999999994" y="299.64"/>
      <point x="353.62" y="342.72"/>
      <point x="353.62" y="389.88" type="curve" smooth="yes"/>
      <point x="353.62" y="444.96"/>
      <point x="312.02" y="492.32000000000005"/>
      <point x="312.02" y="539.38" type="curve" smooth="yes"/>
      <point x="312.02" y="576.16"/>
      <point x="332.28" y="601.3199999999999"/>
      <point x="385.2" y="601.3199999999999" type="curve" smooth="yes"/>
      <point x="454.71999999999997" y="601.3199999999999" type="line"/>
      <point x="454.71999999999997" y="740.0" type="line"/>
      <point x="312.96000000000004" y="740.0" type="line" smooth="yes"/>
      <point x="182.98" y="740.0"/>
      <point x="82.18" y="689.36"/>
      <point x="82.18" y="567.76" type="curve" smooth="yes"/>
      <point x="82.18" y="482.58"/>
      <point x="127.22000000000001" y="435.22"/>
      <point x="127.22000000000001" y="389.02" type="curve" smooth="yes"/>
      <point x="127.22000000000001" y="355.20000000000005"/>
      <point x="114.94" y="333.48"/>
      <point x="70.70000000000002" y="333.48" type="curve" smooth="yes"/>
      <point x="52.279999999999994" y="333.48" type="line"/>
      <point x="52.279999999999994" y="196.52" type="line"/>
      <point x="70.70000000000002" y="196.52" type="line" smooth="yes"/>
      <point x="114.94" y="196.52"/>
      <point x="127.22000000000001" y="174.52"/>
      <point x="127.22000000000001" y="140.7" type="curve" smooth="yes"/>
      <point x="127.22000000000001" y="94.77999999999999"/>
      <point x="82.18" y="46.86"/>
    </contour>
  </outline>
</glyph>
<glyph name="bar" format="2">
  <advance width="352.15999999999997"/>
  <unicode hex="007C"/>
  <outline>
    <contour>
      <point x="276.38" y="790.0" type="line"/>
      <point x="75.78" y="790.0" type="line"/>
      <point x="75.78" y="-210.0" type="line"/>
      <point x="276.38" y="-210.0" type="line"/>
    </contour>
  </outline>
</glyph>
<glyph name="braceright" format="2">
  <advance width="495.24"/>
  <unicode hex="007D"/>
  <outline>
    <contour>
      <point x="40.519999999999996" y="-71.32000000000001" type="line"/>
      <point x="40.519999999999996" y="-210.0" type="line"/>
      <point x="182.28" y="-210.0" type="line" smooth="yes"/>
      <point x="312.26" y="-210.0"/>
      <point x="413.06" y="-159.64"/>
      <point x="413.06" y="-38.04" type="curve" smooth="yes"/>
      <point x="413.06" y="46.86"/>
      <point x="368.02" y="94.77999999999999"/>
      <point x="368.02" y="140.7" type="curve" smooth="yes"/>
      <point x="368.02" y="174.52"/>
      <point x="380.3" y="196.52"/>
      <point x="424.54" y="196.52" type="curve" smooth="yes"/>
      <point x="442.96" y="196.52" type="line"/>
      <point x="442.96" y="333.48" type="line"/>
      <point x="424.54" y="333.48" type="line" smooth="yes"/>
      <point x="380.3" y="333.48"/>
      <point x="368.02" y="355.20000000000005"/>
      <point x="368.02" y="389.02" type="curve" smooth="yes"/>
      <point x="368.02" y="435.22"/>
      <point x="413.06" y="482.58"/>
      <point x="413.06" y="567.76" type="curve" smooth="yes"/>
      <point x="413.06" y="689.36"/>
      <point x="312.26" y="740.0"/>
      <point x="182.28" y="740.0" type="curve" smooth="yes"/>
      <point x="40.519999999999996" y="740.0" type="line"/>
      <point x="40.519999999999996" y="601.3199999999999" type="line"/>
      <point x="110.03999999999999" y="601.3199999999999" type="line" smooth="yes"/>
      <point x="162.96" y="601.3199999999999"/>
      <point x="183.22" y="576.16"/>
      <point x="183.22" y="539.38" type="curve" smooth="yes"/>
      <point x="183.22" y="492.32000000000005"/>
      <point x="141.62" y="444.96"/>
      <point x="141.62" y="389.88" type="curve" smooth="yes"/>
      <point x="141.62" y="342.72"/>
      <point x="154.92" y="299.64"/>
      <point x="241.3" y="265.0" type="curve"/>
      <point x="154.78" y="232.64"/>
      <point x="141.62" y="187.0"/>
      <point x="141.62" y="139.84" type="curve" smooth="yes"/>
      <point x="141.62" y="85.32"/>
      <point x="183.22" y="37.260000000000005"/>
      <point x="183.22" y="-9.66" type="curve" smooth="yes"/>
      <point x="183.22" y="-46.44"/>
      <point x="162.96" y="-71.32000000000001"/>
      <point x="110.03999999999999" y="-71.32000000000001" type="curve" smooth="yes"/>
    </contour>
  </outline>
</glyph>
<glyph name="asciitilde" format="2">
  <advance width="750.92"/>
  <unicode hex="007E"/>
  <outline>
    <contour>
      <point x="688.82" y="223.70000000000005" type="curve"/>
      <point x="688.82" y="404.22" type="line"/>
      <point x="657.6600000000001" y="376.48"/>
      <point x="615.04" y="361.52000000000004"/>
      <point x="558.42" y="361.52000000000004" type="curve" smooth="yes"/>
      <point x="401.46000000000004" y="361.52000000000004"/>
      <point x="311.32" y="448.03999999999996"/>
      <point x="197.1" y="448.03999999999996" type="curve" smooth="yes"/>
      <point x="113.22" y="448.03999999999996"/>
      <point x="77.63999999999999" y="414.86"/>
      <point x="62.96" y="406.17999999999995" type="curve"/>
      <point x="62.96" y="225.52" type="line"/>
      <point x="100.44" y="247.82"/>
      <point x="126.99999999999999" y="264.64"/>
      <point x="187.92000000000002" y="264.64" type="curve" smooth="yes"/>
      <point x="310.48" y="264.64"/>
      <point x="410.94" y="177.26"/>
      <point x="559.56" y="177.26" type="curve" smooth="yes"/>
      <point x="612.88" y="177.26"/>
      <point x="662.24" y="199.54"/>
    </contour>
  </outline>
</glyph>
<glyph name="exclamdown" format="2">
  <advance width="382.44"/>
  <unicode hex="00A1"/>
  <outline>
    <contour>
      <point x="303.56" y="286.64" type="line"/>
      <point x="84.9" y="286.64" type="line"/>
      <point x="67.69999999999999" y="-193.66000000000003" type="line"/>
      <point x="320.76" y="-193.66000000000003" type="line"/>
    </contour>
    <contour>
      <point x="333.78000000000003" y="455.38" type="curve" smooth="yes"/>
      <point x="333.78000000000003" y="522.12"/>
      <point x="294.94000000000005" y="555.8"/>
      <point x="191.22" y="555.8" type="curve" smooth="yes"/>
      <point x="87.63999999999999" y="555.8"/>
      <point x="48.66" y="522.12"/>
      <point x="48.66" y="455.38" type="curve" smooth="yes"/>
      <point x="48.66" y="387.78000000000003"/>
      <point x="87.5" y="354.1"/>
      <point x="191.22" y="354.1" type="curve" smooth="yes"/>
      <point x="294.94000000000005" y="354.1"/>
      <point x="333.78000000000003" y="387.78000000000003"/>
    </contour>
  </outline>
</glyph>
<glyph name="cent" format="2">
  <advance width="1047.76"/>
  <unicode hex="00A2"/>
  <outline>
    <contour>
      <point x="532.88" y="-10.0" type="curve" smooth="yes"/>
      <point x="652.7600000000001" y="-10.0"/>
      <point x="779.28" y="2.42"/>
      <point x="885.9199999999998" y="25.140000000000004" type="curve"/>
      <point x="860.4200000000001" y="181.88" type="line"/>
      <point x="760.0799999999999" y="165.32"/>
      <point x="679.72" y="157.92"/>
      <point x="596.0799999999999" y="157.92" type="curve" smooth="yes"/>
      <point x="469.52" y="157.92"/>
      <point x="396.84000000000003" y="191.88"/>
      <point x="396.84000000000003" y="269.06" type="curve" smooth="yes"/>
      <point x="396.84000000000003" y="345.76000000000005"/>
      <point x="460.85999999999996" y="384.98"/>
      <point x="574.74" y="384.98" type="curve" smooth="yes"/>
      <point x="662.12" y="384.98"/>
      <point x="749.0400000000001" y="376.84000000000003"/>
      <point x="842.98" y="358.3" type="curve"/>
      <point x="868.48" y="526.22" type="line"/>
      <point x="767.1800000000001" y="547.9200000000001"/>
      <point x="692.36" y="557.1999999999999"/>
      <point x="566.14" y="557.1999999999999" type="curve" smooth="yes"/>
      <point x="267.4" y="557.1999999999999"/>
      <point x="144.64" y="422.26"/>
      <point x="144.64" y="263.9" type="curve" smooth="yes"/>
      <point x="144.64" y="89.16"/>
      <point x="284.82" y="-10.0"/>
    </contour>
    <contour>
      <point x="436.28000000000003" y="-105.0" type="line"/>
      <point x="611.94" y="-105.0" type="line"/>
      <point x="611.94" y="6.32" type="line"/>
      <point x="436.28000000000003" y="11.34" type="line"/>
    </contour>
    <contour>
      <point x="436.28000000000003" y="531.4200000000001" type="line"/>
      <point x="611.94" y="541.8800000000001" type="line"/>
      <point x="611.94" y="652.2" type="line"/>
      <point x="436.28000000000003" y="652.2" type="line"/>
    </contour>
  </outline>
</glyph>
<glyph name="sterling" format="2">
  <advance width="1047.7600000000002"/>
  <unicode hex="00A3"/>
  <outline>
    <contour>
      <point x="125.64" y="0.0" type="line"/>
      <point x="938.32" y="0.0" type="line"/>
      <point x="938.32" y="176.2" type="line"/>
      <point x="435.12" y="176.2" type="line"/>
      <point x="482.28" y="202.72"/>
      <point x="505.64" y="245.0"/>
      <point x="505.64" y="276.15999999999997" type="curve" smooth="yes"/>
      <point x="505.64" y="332.4"/>
      <point x="433.76" y="395.9200000000001"/>
      <point x="433.76" y="447.79999999999995" type="curve" smooth="yes"/>
      <point x="433.76" y="503.48"/>
      <point x="505.52" y="523.16"/>
      <point x="593.8399999999999" y="523.16" type="curve" smooth="yes"/>
      <point x="706.48" y="523.16"/>
      <point x="809.68" y="510.32"/>
      <point x="895.48" y="485.6" type="curve"/>
      <point x="926.28" y="663.84" type="line"/>
      <point x="818.0400000000001" y="693.4399999999999"/>
      <point x="721.64" y="710.0"/>
      <point x="576.64" y="710.0" type="curve" smooth="yes"/>
      <point x="307.23999999999995" y="710.0"/>
      <point x="168.8" y="635.8799999999999"/>
      <point x="168.8" y="510.08000000000004" type="curve" smooth="yes"/>
      <point x="168.8" y="424.03999999999996"/>
      <point x="256.16" y="332.71999999999997"/>
      <point x="256.16" y="280.32" type="curve" smooth="yes"/>
      <point x="256.16" y="219.6"/>
      <point x="223.92" y="203.68"/>
      <point x="125.64" y="148.68" type="curve"/>
    </contour>
    <contour>
      <point x="118.04" y="289.40000000000003" type="line"/>
      <point x="778.32" y="289.40000000000003" type="line"/>
      <point x="778.32" y="397.04" type="line"/>
      <point x="118.04" y="397.04" type="line"/>
    </contour>
  </outline>
</glyph>
<glyph name="currency" format="2">
  <advance width="596.9"/>
  <unicode hex="00A4"/>
  <outline>
    <contour>
      <point x="67.48" y="444.12" type="line"/>
      <point x="127.72" y="382.88" type="line"/>
      <point x="119.03999999999999" y="362.46"/>
      <point x="113.91999999999999" y="340.20000000000005"/>
      <point x="113.91999999999999" y="315.65999999999997" type="curve" smooth="yes"/>
      <point x="113.91999999999999" y="290.26"/>
      <point x="119.03999999999999" y="267.14000000000004"/>
      <point x="128.72" y="246.72" type="curve"/>
      <point x="67.48" y="185.48000000000002" type="line"/>
      <point x="169.20000000000002" y="83.75999999999999" type="line"/>
      <point x="247.64000000000001" y="161.34" type="line"/>
      <point x="262.04" y="156.82000000000002"/>
      <point x="278.28" y="155.28"/>
      <point x="295.8" y="155.28" type="curve" smooth="yes"/>
      <point x="315.04" y="155.28"/>
      <point x="332.28" y="157.68"/>
      <point x="348.40000000000003" y="162.20000000000002" type="curve"/>
      <point x="427.7" y="83.75999999999999" type="line"/>
      <point x="529.42" y="185.48000000000002" type="line"/>
      <point x="463.88" y="251.01999999999998" type="line"/>
      <point x="471.84000000000003" y="270.58"/>
      <point x="476.96" y="291.97999999999996"/>
      <point x="476.96" y="315.65999999999997" type="curve" smooth="yes"/>
      <point x="476.96" y="338.47999999999996"/>
      <point x="472.7" y="359.02"/>
      <point x="463.88" y="378.58000000000004" type="curve"/>
      <point x="529.42" y="444.12" type="line"/>
      <point x="427.7" y="545.8399999999999" type="line"/>
      <point x="348.4" y="466.54" type="line"/>
      <point x="332.28" y="471.92"/>
      <point x="315.18" y="474.46"/>
      <point x="295.8" y="474.46" type="curve" smooth="yes"/>
      <point x="278.14" y="474.46"/>
      <point x="261.9" y="471.92"/>
      <point x="247.5" y="467.4" type="curve"/>
      <point x="169.20000000000002" y="545.8399999999999" type="line"/>
    </contour>
    <contour>
      <point x="294.94" y="269.88" type="curve" smooth="yes"/>
      <point x="269.06" y="269.88"/>
      <point x="249.16" y="288.92"/>
      <point x="249.16" y="315.65999999999997" type="curve" smooth="yes"/>
      <point x="249.16" y="339.96"/>
      <point x="268.2" y="359.86"/>
      <point x="294.94" y="359.86" type="curve" smooth="yes"/>
      <point x="321.82" y="359.86"/>
      <point x="341.72" y="339.96"/>
      <point x="341.72" y="315.65999999999997" type="curve" smooth="yes"/>
      <point x="341.72" y="288.92"/>
      <point x="320.96" y="269.88"/>
    </contour>
  </outline>
</glyph>
<glyph name="yen" format="2">
  <advance width="1047.7600000000002"/>
  <unicode hex="00A5"/>
  <outline>
    <contour>
      <point x="153.32" y="319.12" type="line"/>
      <point x="382.56000000000006" y="319.12" type="line"/>
      <point x="382.56000000000006" y="265.76000000000005" type="line"/>
      <point x="153.32" y="265.76000000000005" type="line"/>
      <point x="153.32" y="179.24" type="line"/>
      <point x="382.56000000000006" y="179.24" type="line"/>
      <point x="382.56000000000006" y="0.0" type="line"/>
      <point x="667.44" y="0.0" type="line"/>
      <point x="667.44" y="179.24" type="line"/>
      <point x="907.9999999999999" y="179.24" type="line"/>
      <point x="907.9999999999999" y="265.76000000000005" type="line"/>
      <point x="667.44" y="265.76000000000005" type="line"/>
      <point x="667.44" y="319.12" type="line"/>
      <point x="907.9999999999999" y="319.12" type="line"/>
      <point x="907.9999999999999" y="405.92" type="line"/>
      <point x="667.44" y="405.92" type="line"/>
      <point x="966.6" y="698.88" type="line"/>
      <point x="685.44" y="701.12" type="line"/>
      <point x="528.5999999999999" y="534.72" type="line"/>
      <point x="369.52" y="701.12" type="line"/>
      <point x="81.44" y="698.88" type="line"/>
      <point x="382.56000000000006" y="405.92" type="line"/>
      <point x="153.32" y="405.92" type="line"/>
    </contour>
  </outline>
</glyph>
<glyph name="brokenbar" format="2">
  <advance width="352.16"/>
  <unicode hex="00A6"/>
  <outline>
    <contour>
      <point x="276.38" y="391.0" type="line"/>
      <point x="276.38" y="790.0" type="line"/>
      <point x="75.78" y="790.0" type="line"/>
      <point x="75.78" y="391.0" type="line"/>
    </contour>
    <contour>
      <point x="75.78" y="190.0" type="line"/>
      <point x="75.78" y="-210.0" type="line"/>
      <point x="276.38" y="-210.0" type="line"/>
      <point x="276.38" y="190.0" type="line"/>
    </contour>
  </outline>
</glyph>
<glyph name="section" format="2">
  <advance width="832.44"/>
  <unicode hex="00A7"/>
  <outline>
    <contour>
      <point x="330.98" y="-220.0" type="curve" smooth="yes"/>
      <point x="598.9599999999999" y="-220.0"/>
      <point x="760.38" y="-105.38"/>
      <point x="760.38" y="94.2" type="curve" smooth="yes"/>
      <point x="760.38" y="198.1"/>
      <point x="727.98" y="264.02"/>
      <point x="631.48" y="378.56" type="curve" smooth="yes"/>
      <point x="576.46" y="444.05999999999995"/>
      <point x="555.34" y="472.26"/>
      <point x="555.34" y="497.88" type="curve" smooth="yes"/>
      <point x="555.34" y="529.92"/>
      <point x="582.6999999999999" y="551.0"/>
      <point x="624.7199999999999" y="551.0" type="curve" smooth="yes"/>
      <point x="641.52" y="551.0"/>
      <point x="659.16" y="548.3"/>
      <point x="683.76" y="540.6199999999999" type="curve"/>
      <point x="711.26" y="726.32" type="line"/>
      <point x="632.8" y="745.02"/>
      <point x="566.1" y="750.0"/>
      <point x="506.0" y="750.0" type="curve" smooth="yes"/>
      <point x="216.39999999999998" y="750.0"/>
      <point x="81.24000000000001" y="634.98"/>
      <point x="81.1" y="443.04" type="curve" smooth="yes"/>
      <point x="81.1" y="344.96"/>
      <point x="118.80000000000001" y="270.6"/>
      <point x="202.56" y="159.7" type="curve" smooth="yes"/>
      <point x="257.52" y="86.88"/>
      <point x="283.48" y="56.06"/>
      <point x="283.62" y="23.780000000000005" type="curve" smooth="yes"/>
      <point x="283.76" y="-3.700000000000008"/>
      <point x="255.70000000000002" y="-25.76"/>
      <point x="208.04000000000002" y="-25.76" type="curve" smooth="yes"/>
      <point x="174.54000000000002" y="-25.76"/>
      <point x="149.02" y="-18.080000000000013"/>
      <point x="106.99999999999999" y="-2.220000000000006" type="curve"/>
      <point x="67.76" y="-175.6" type="line"/>
      <point x="163.46" y="-207.32"/>
      <point x="239.20000000000002" y="-220.0"/>
    </contour>
    <contour>
      <point x="361.08000000000004" y="-107.26" type="curve" smooth="yes"/>
      <point x="326.12" y="-107.26"/>
      <point x="290.40000000000003" y="-103.4"/>
      <point x="262.84" y="-89.38000000000001" type="curve"/>
      <point x="290.6" y="-116.44" type="line"/>
      <point x="400.71999999999997" y="-127.46000000000001"/>
      <point x="496.98" y="-68.02"/>
      <point x="496.98" y="22.059999999999985" type="curve" smooth="yes"/>
      <point x="496.98" y="76.88"/>
      <point x="465.36" y="135.67999999999998"/>
      <point x="388.70000000000005" y="242.07999999999998" type="curve" smooth="yes"/>
      <point x="316.4" y="341.52"/>
      <point x="287.72" y="409.16"/>
      <point x="287.72" y="464.53999999999996" type="curve" smooth="yes"/>
      <point x="287.72" y="557.76"/>
      <point x="358.84" y="622.64"/>
      <point x="460.41999999999996" y="622.64" type="curve" smooth="yes"/>
      <point x="498.05999999999995" y="622.64"/>
      <point x="522.08" y="617.3399999999999"/>
      <point x="552.4" y="601.58" type="curve"/>
      <point x="515.42" y="633.52" type="line"/>
      <point x="433.56" y="640.6800000000001"/>
      <point x="354.02" y="581.22"/>
      <point x="353.88" y="499.32" type="curve" smooth="yes"/>
      <point x="353.88" y="438.73999999999995"/>
      <point x="377.0" y="400.93999999999994"/>
      <point x="445.34" y="300.48" type="curve" smooth="yes"/>
      <point x="533.54" y="170.44"/>
      <point x="564.94" y="119.41999999999999"/>
      <point x="564.94" y="59.8" type="curve" smooth="yes"/>
      <point x="565.08" y="-8.380000000000003"/>
      <point x="515.0" y="-107.12"/>
    </contour>
  </outline>
</glyph>
<glyph name="copyright" format="2">
  <advance width="929.56"/>
  <unicode hex="00A9"/>
  <outline>
    <contour>
      <point x="464.91999999999996" y="72.56" type="curve" smooth="yes"/>
      <point x="261.44" y="72.56"/>
      <point x="151.95999999999998" y="179.19999999999996"/>
      <point x="151.95999999999998" y="348.28000000000003" type="curve" smooth="yes"/>
      <point x="151.95999999999998" y="519.08"/>
      <point x="262.44" y="621.28"/>
      <point x="464.91999999999996" y="621.28" type="curve" smooth="yes"/>
      <point x="667.12" y="621.28"/>
      <point x="777.5999999999998" y="519.08"/>
      <point x="777.5999999999998" y="348.28000000000003" type="curve" smooth="yes"/>
      <point x="777.5999999999998" y="179.19999999999996"/>
      <point x="668.1199999999999" y="72.56"/>
    </contour>
    <contour>
      <point x="464.91999999999996" y="710.0" type="curve" smooth="yes"/>
      <point x="211.64000000000001" y="710.0"/>
      <point x="54.08" y="565.72"/>
      <point x="54.08" y="348.28000000000003" type="curve" smooth="yes"/>
      <point x="54.08" y="132.28"/>
      <point x="209.2" y="-10.0"/>
      <point x="464.91999999999996" y="-10.0" type="curve" smooth="yes"/>
      <point x="720.36" y="-10.0"/>
      <point x="875.48" y="132.28"/>
      <point x="875.48" y="348.28000000000003" type="curve" smooth="yes"/>
      <point x="875.48" y="565.72"/>
      <point x="718.2" y="710.0"/>
    </contour>
    <contour>
      <point x="242.4" y="341.15999999999997" type="curve" smooth="yes"/>
      <point x="242.4" y="211.16"/>
      <point x="343.4" y="169.76"/>
      <point x="463.92" y="169.76" type="curve" smooth="yes"/>
      <point x="542.56" y="169.76"/>
      <point x="621.68" y="188.76"/>
      <point x="671.4" y="212.64" type="curve"/>
      <point x="653.24" y="299.31999999999994" type="line"/>
      <point x="620.56" y="289.04"/>
      <point x="556.16" y="273.76"/>
      <point x="496.12" y="273.76" type="curve" smooth="yes"/>
      <point x="420.23999999999995" y="273.76"/>
      <point x="381.59999999999997" y="292.56"/>
      <point x="381.59999999999997" y="345.88" type="curve" smooth="yes"/>
      <point x="381.59999999999997" y="408.6"/>
      <point x="422.03999999999996" y="427.84000000000003"/>
      <point x="501.9199999999999" y="427.84000000000003" type="curve" smooth="yes"/>
      <point x="548.6" y="427.84000000000003"/>
      <point x="600.88" y="417.12"/>
      <point x="638.1200000000001" y="406.56" type="curve"/>
      <point x="659.72" y="497.96000000000004" type="line"/>
      <point x="609.5999999999999" y="521.4"/>
      <point x="546.16" y="533.56"/>
      <point x="483.6" y="533.56" type="curve" smooth="yes"/>
      <point x="348.64" y="533.56"/>
      <point x="242.4" y="477.84000000000003"/>
    </contour>
  </outline>
</glyph>
<glyph name="ordfeminine" format="2">
  <advance width="618.74"/>
  <unicode hex="00AA"/>
  <outline>
    <contour>
      <point x="68.4" y="159.76" type="line"/>
      <point x="588.12" y="159.76" type="line"/>
      <point x="588.12" y="294.44" type="line"/>
      <point x="68.4" y="294.44" type="line"/>
    </contour>
    <component base="a.superior" xOffset="8.98"/>
  </outline>
</glyph>
<glyph name="logicalnot" format="2">
  <advance width="750.92"/>
  <unicode hex="00AC"/>
  <outline>
    <contour>
      <point x="60.42" y="295.41999999999996" type="line"/>
      <point x="511.40000000000003" y="295.41999999999996" type="line"/>
      <point x="511.40000000000003" y="155.5" type="line"/>
      <point x="690.5" y="155.5" type="line"/>
      <point x="690.5" y="474.52000000000004" type="line"/>
      <point x="60.42" y="474.52000000000004" type="line"/>
    </contour>
  </outline>
</glyph>
<glyph name="registered" format="2">
  <advance width="894.16"/>
  <unicode hex="00AE"/>
  <outline>
    <contour>
      <point x="435.4800000000001" y="206.28" type="curve" smooth="yes"/>
      <point x="690.8000000000001" y="206.28"/>
      <point x="840.0799999999999" y="335.68"/>
      <point x="840.0799999999999" y="549.28" type="curve" smooth="yes"/>
      <point x="840.0799999999999" y="755.7199999999999"/>
      <point x="691.8" y="894.0"/>
      <point x="435.4800000000001" y="894.0" type="curve" smooth="yes"/>
      <point x="194.48000000000002" y="894.0"/>
      <point x="54.08" y="755.7199999999999"/>
      <point x="54.08" y="549.28" type="curve" smooth="yes"/>
      <point x="54.08" y="343.84"/>
      <point x="191.76" y="206.28"/>
    </contour>
    <contour>
      <point x="435.4800000000001" y="285.12000000000006" type="curve" smooth="yes"/>
      <point x="242.28000000000003" y="285.12000000000006"/>
      <point x="147.24" y="388.76"/>
      <point x="147.24" y="549.28" type="curve" smooth="yes"/>
      <point x="147.24" y="711.52"/>
      <point x="243.0" y="809.7199999999999"/>
      <point x="435.4800000000001" y="809.7199999999999" type="curve" smooth="yes"/>
      <point x="641.9999999999999" y="809.7199999999999"/>
      <point x="746.92" y="710.8000000000001"/>
      <point x="746.92" y="549.28" type="curve" smooth="yes"/>
      <point x="746.92" y="387.76"/>
      <point x="640.2799999999999" y="285.12000000000006"/>
    </contour>
    <contour>
      <point x="659.52" y="403.2" type="curve" smooth="yes"/>
      <point x="661.5200000000001" y="403.2"/>
      <point x="662.08" y="403.2"/>
      <point x="664.0799999999999" y="403.2" type="curve"/>
      <point x="664.0799999999999" y="498.76" type="line"/>
      <point x="663.0799999999998" y="498.76"/>
      <point x="661.8000000000002" y="498.76"/>
      <point x="661.5200000000001" y="498.76" type="curve" smooth="yes"/>
      <point x="638.0" y="499.47999999999996"/>
      <point x="597.68" y="511.96"/>
      <point x="561.2" y="528.5600000000001" type="curve"/>
      <point x="616.12" y="531.84"/>
      <point x="658.24" y="548.68"/>
      <point x="658.24" y="610.0799999999999" type="curve" smooth="yes"/>
      <point x="658.24" y="674.48"/>
      <point x="607.56" y="701.92"/>
      <point x="443.88" y="701.92" type="curve" smooth="yes"/>
      <point x="414.8" y="701.92"/>
      <point x="348.04" y="700.92"/>
      <point x="249.56" y="697.1999999999999" type="curve"/>
      <point x="249.56" y="407.63999999999993" type="line"/>
      <point x="369.44" y="407.63999999999993" type="line"/>
      <point x="369.44" y="498.36" type="line"/>
      <point x="379.4800000000001" y="498.36"/>
      <point x="387.11999999999995" y="498.08"/>
      <point x="395.6" y="498.08" type="curve" smooth="yes"/>
      <point x="401.88" y="498.08"/>
      <point x="407.44000000000005" y="498.08"/>
      <point x="413.72" y="498.08000000000004" type="curve"/>
      <point x="493.40000000000003" y="454.44"/>
      <point x="575.76" y="403.2"/>
    </contour>
    <contour>
      <point x="426.79999999999995" y="564.44" type="curve" smooth="yes"/>
      <point x="411.88" y="564.44"/>
      <point x="398.8" y="565.44"/>
      <point x="369.44" y="565.44" type="curve"/>
      <point x="369.44" y="624.12" type="line"/>
      <point x="413.40000000000003" y="625.4"/>
      <point x="419.23999999999995" y="625.4"/>
      <point x="452.32" y="625.4" type="curve" smooth="yes"/>
      <point x="519.84" y="625.4"/>
      <point x="533.92" y="617.8399999999999"/>
      <point x="533.92" y="596.2" type="curve" smooth="yes"/>
      <point x="533.92" y="569.16"/>
      <point x="518.2" y="564.44"/>
    </contour>
  </outline>
</glyph>
<glyph name="degree" format="2">
  <advance width="467.52000000000004"/>
  <unicode hex="00B0"/>
  <outline>
    <contour>
      <point x="233.76" y="341.12" type="curve" smooth="yes"/>
      <point x="368.15999999999997" y="341.12"/>
      <point x="430.64" y="436.28"/>
      <point x="430.64" y="526.6800000000001" type="curve" smooth="yes"/>
      <point x="430.64" y="611.2"/>
      <point x="375.76" y="712.52"/>
      <point x="233.76" y="712.52" type="curve" smooth="yes"/>
      <point x="91.48" y="712.52"/>
      <point x="36.879999999999995" y="611.2"/>
      <point x="36.879999999999995" y="526.6800000000001" type="curve" smooth="yes"/>
      <point x="36.879999999999995" y="436.28"/>
      <point x="99.36" y="341.12"/>
    </contour>
    <contour>
      <point x="233.76" y="472.15999999999997" type="curve" smooth="yes"/>
      <point x="203.36" y="472.15999999999997"/>
      <point x="183.39999999999998" y="493.84000000000003"/>
      <point x="183.39999999999998" y="525.96" type="curve" smooth="yes"/>
      <point x="183.39999999999998" y="556.08"/>
      <point x="201.64000000000001" y="578.32"/>
      <point x="233.76" y="578.32" type="curve" smooth="yes"/>
      <point x="265.59999999999997" y="578.32"/>
      <point x="284.4" y="556.08"/>
      <point x="284.4" y="525.96" type="curve" smooth="yes"/>
      <point x="284.4" y="493.84000000000003"/>
      <point x="264.16" y="472.15999999999997"/>
    </contour>
  </outline>
</glyph>
<glyph name="plusminus" format="2">
  <advance width="750.9200000000001"/>
  <unicode hex="00B1"/>
  <outline>
    <contour>
      <point x="60.42" y="9.219999999999999" type="line"/>
      <point x="690.5" y="9.219999999999999" type="line"/>
      <point x="690.5" y="188.32" type="line"/>
      <point x="481.78" y="188.32" type="line"/>
      <point x="481.78" y="307.46000000000004" type="line"/>
      <point x="690.5" y="307.46000000000004" type="line"/>
      <point x="690.5" y="486.56" type="line"/>
      <point x="481.78" y="486.56" type="line"/>
      <point x="481.78" y="625.6199999999999" type="line"/>
      <point x="268.28" y="625.6199999999999" type="line"/>
      <point x="268.28" y="486.56" type="line"/>
      <point x="60.42" y="486.56" type="line"/>
      <point x="60.42" y="307.46000000000004" type="line"/>
      <point x="268.28" y="307.46000000000004" type="line"/>
      <point x="268.28" y="188.32" type="line"/>
      <point x="60.42" y="188.32" type="line"/>
    </contour>
  </outline>
</glyph>
<glyph name="uni00B2" format="2">
  <advance width="617.44"/>
  <unicode hex="00B2"/>
  <outline>
    <contour>
      <point x="40.84" y="370.0" type="line"/>
      <point x="577.74" y="370.0" type="line"/>
      <point x="577.74" y="479.74" type="line"/>
      <point x="356.32" y="479.74" type="line"/>
      <point x="483.2" y="529.46"/>
      <point x="514.28" y="570.02"/>
      <point x="514.28" y="630.66" type="curve" smooth="yes"/>
      <point x="514.28" y="715.54"/>
      <point x="421.6" y="772.58"/>
      <point x="281.94" y="772.58" type="curve" smooth="yes"/>
      <point x="203.88" y="772.58"/>
      <point x="100.19999999999999" y="750.7"/>
      <point x="43.900000000000006" y="722.5400000000001" type="curve"/>
      <point x="86.88" y="610.36" type="line"/>
      <point x="155.66" y="637.3800000000001"/>
      <point x="191.70000000000002" y="646.9399999999999"/>
      <point x="234.35999999999999" y="646.9399999999999" type="curve" smooth="yes"/>
      <point x="279.6" y="646.9399999999999"/>
      <point x="303.35999999999996" y="627.72"/>
      <point x="303.35999999999996" y="599.42" type="curve" smooth="yes"/>
      <point x="303.35999999999996" y="556.4000000000001"/>
      <point x="236.35999999999996" y="530.18"/>
      <point x="40.42" y="466.55999999999995" type="curve"/>
    </contour>
  </outline>
</glyph>
<glyph name="uni00B3" format="2">
  <advance width="622.2"/>
  <unicode hex="00B3"/>
  <outline>
    <contour>
      <point x="23.14" y="394.08000000000004" type="line"/>
      <point x="104.88" y="368.26"/>
      <point x="195.78" y="362.58000000000004"/>
      <point x="288.16" y="362.58000000000004" type="curve" smooth="yes"/>
      <point x="468.61999999999995" y="362.58000000000004"/>
      <point x="593.84" y="396.68"/>
      <point x="593.84" y="488.44" type="curve" smooth="yes"/>
      <point x="593.84" y="535.84"/>
      <point x="564.08" y="562.9599999999999"/>
      <point x="492.17999999999995" y="580.4399999999999" type="curve"/>
      <point x="539.5200000000001" y="588.1600000000001"/>
      <point x="576.64" y="617.86"/>
      <point x="576.64" y="666.28" type="curve" smooth="yes"/>
      <point x="576.64" y="731.28"/>
      <point x="496.52000000000004" y="772.86"/>
      <point x="299.64" y="772.86" type="curve" smooth="yes"/>
      <point x="183.60000000000002" y="772.86"/>
      <point x="84.22" y="762.02"/>
      <point x="36.04" y="749.7199999999999" type="curve"/>
      <point x="61.4" y="640.5600000000001" type="line"/>
      <point x="68.12" y="641.82"/>
      <point x="115.94" y="661.12"/>
      <point x="247.04" y="661.12" type="curve" smooth="yes"/>
      <point x="324.42" y="661.12"/>
      <point x="392.38" y="649.62"/>
      <point x="392.38" y="634.9000000000001" type="curve" smooth="yes"/>
      <point x="392.38" y="619.74"/>
      <point x="367.5" y="614.8199999999999"/>
      <point x="321.0" y="614.8199999999999" type="curve" smooth="yes"/>
      <point x="153.07999999999998" y="614.8199999999999" type="line"/>
      <point x="153.07999999999998" y="518.98" type="line"/>
      <point x="289.03999999999996" y="518.98" type="line" smooth="yes"/>
      <point x="383.29999999999995" y="518.98"/>
      <point x="400.12" y="512.32"/>
      <point x="400.12" y="498.76" type="curve" smooth="yes"/>
      <point x="400.12" y="479.78000000000003"/>
      <point x="362.74" y="467.16"/>
      <point x="270.1" y="467.16" type="curve" smooth="yes"/>
      <point x="145.32" y="467.16"/>
      <point x="97.41999999999999" y="476.28"/>
      <point x="53.22" y="491.78000000000003" type="curve"/>
    </contour>
  </outline>
</glyph>
<glyph name="uni00B5" format="2">
  <advance width="909.56"/>
  <unicode hex="00B5"/>
  <outline>
    <contour>
      <point x="63.8" y="-210.0" type="line"/>
      <point x="324.6" y="-210.0" type="line"/>
      <point x="324.6" y="7.159999999999997" type="line"/>
      <point x="342.7" y="-3.9599999999999973"/>
      <point x="365.98" y="-10.0"/>
      <point x="395.44" y="-10.0" type="curve" smooth="yes"/>
      <point x="475.24" y="-10.0"/>
      <point x="529.6800000000001" y="17.08"/>
      <point x="595.34" y="65.46" type="curve"/>
      <point x="625.8399999999999" y="13.980000000000002"/>
      <point x="666.8199999999999" y="-10.0"/>
      <point x="745.8" y="-10.0" type="curve" smooth="yes"/>
      <point x="803.8" y="-10.0"/>
      <point x="873.84" y="8.48"/>
      <point x="907.18" y="31.68" type="curve"/>
      <point x="885.7" y="171.51999999999998" type="line"/>
      <point x="876.42" y="167.38"/>
      <point x="868.58" y="166.1"/>
      <point x="859.16" y="166.1" type="curve" smooth="yes"/>
      <point x="839.24" y="166.1"/>
      <point x="822.3199999999999" y="178.76"/>
      <point x="822.3199999999999" y="211.24" type="curve" smooth="yes"/>
      <point x="822.3199999999999" y="547.2" type="line"/>
      <point x="561.52" y="547.2" type="line"/>
      <point x="561.52" y="203.14" type="line"/>
      <point x="504.03999999999996" y="180.56"/>
      <point x="470.66" y="170.82"/>
      <point x="423.82" y="170.82" type="curve" smooth="yes"/>
      <point x="361.64000000000004" y="170.82"/>
      <point x="324.59999999999997" y="202.84"/>
      <point x="324.59999999999997" y="275.9" type="curve" smooth="yes"/>
      <point x="324.59999999999997" y="547.2" type="line"/>
      <point x="63.8" y="547.2" type="line"/>
    </contour>
  </outline>
</glyph>
<glyph name="paragraph" format="2">
  <advance width="961.02"/>
  <unicode hex="00B6"/>
  <outline>
    <contour>
      <point x="651.2" y="-210.0" type="line"/>
      <point x="851.8" y="-210.0" type="line"/>
      <point x="851.8" y="740.0" type="line"/>
      <point x="651.2" y="740.0" type="line"/>
    </contour>
    <contour>
      <point x="361.78000000000003" y="318.65999999999997" type="line"/>
      <point x="313.06" y="328.94"/>
      <point x="290.54" y="368.78"/>
      <point x="290.54" y="439.76" type="curve" smooth="yes"/>
      <point x="290.54" y="534.36"/>
      <point x="322.44000000000005" y="560.48"/>
      <point x="396.0" y="560.9" type="curve"/>
      <point x="396.0" y="-210.0" type="line"/>
      <point x="596.6" y="-210.0" type="line"/>
      <point x="596.6" y="740.0" type="line"/>
      <point x="448.58000000000004" y="740.0" type="line" smooth="yes"/>
      <point x="174.56" y="740.0"/>
      <point x="73.60000000000001" y="659.16"/>
      <point x="73.60000000000001" y="469.0" type="curve" smooth="yes"/>
      <point x="73.60000000000001" y="299.15999999999997"/>
      <point x="158.01999999999998" y="207.73999999999995"/>
      <point x="340.85999999999996" y="194.6" type="curve"/>
    </contour>
  </outline>
</glyph>
<glyph name="periodcentered" format="2">
  <advance width="366.48"/>
  <unicode hex="00B7"/>
  <outline>
    <contour>
      <point x="40.67999999999999" y="312.08" type="curve" smooth="yes"/>
      <point x="40.67999999999999" y="245.2"/>
      <point x="79.8" y="211.52"/>
      <point x="183.23999999999998" y="211.52" type="curve" smooth="yes"/>
      <point x="286.96" y="211.52"/>
      <point x="325.8" y="245.2"/>
      <point x="325.8" y="312.08" type="curve" smooth="yes"/>
      <point x="325.8" y="379.68"/>
      <point x="286.96" y="413.36"/>
      <point x="183.23999999999998" y="413.36" type="curve" smooth="yes"/>
      <point x="79.52" y="413.36"/>
      <point x="40.67999999999999" y="379.68"/>
    </contour>
  </outline>
</glyph>
<glyph name="uni00B9" format="2">
  <advance width="593.92"/>
  <unicode hex="00B9"/>
  <outline>
    <contour>
      <point x="72.12" y="370.0" type="line"/>
      <point x="570.38" y="370.0" type="line"/>
      <point x="570.38" y="484.03999999999996" type="line"/>
      <point x="433.94" y="484.03999999999996" type="line"/>
      <point x="433.94" y="764.56" type="line"/>
      <point x="330.92" y="764.56" type="line"/>
      <point x="30.28" y="671.5" type="line"/>
      <point x="81.0" y="548.0" type="line"/>
      <point x="224.88" y="591.0600000000001" type="line"/>
      <point x="224.88" y="484.03999999999996" type="line"/>
      <point x="72.12" y="484.03999999999996" type="line"/>
    </contour>
  </outline>
</glyph>
<glyph name="ordmasculine" format="2">
  <advance width="618.1999999999999"/>
  <unicode hex="00BA"/>
  <outline>
    <contour>
      <point x="45.42" y="159.89999999999998" type="line"/>
      <point x="566.26" y="159.89999999999998" type="line"/>
      <point x="566.26" y="294.58" type="line"/>
      <point x="45.42" y="294.58" type="line"/>
    </contour>
    <component base="o.superior" xOffset="8.0"/>
  </outline>
</glyph>
<glyph name="questiondown" format="2">
  <advance width="764.4000000000001"/>
  <unicode hex="00BF"/>
  <outline>
    <contour>
      <point x="519.22" y="287.06" type="line"/>
      <point x="300.56" y="287.06" type="line"/>
      <point x="298.84" y="239.98000000000002" type="line"/>
      <point x="101.72" y="197.98"/>
      <point x="35.7" y="132.1"/>
      <point x="35.7" y="26.28" type="curve" smooth="yes"/>
      <point x="35.7" y="-143.32000000000002"/>
      <point x="208.76000000000002" y="-203.66"/>
      <point x="378.9" y="-203.66" type="curve" smooth="yes"/>
      <point x="490.0400000000001" y="-203.66"/>
      <point x="645.86" y="-168.48"/>
      <point x="738.14" y="-115.05999999999999" type="curve"/>
      <point x="679.12" y="55.16" type="line"/>
      <point x="589.7" y="14.920000000000002"/>
      <point x="498.94" y="-13.380000000000006"/>
      <point x="422.76" y="-13.380000000000006" type="curve" smooth="yes"/>
      <point x="352.05999999999995" y="-13.380000000000006"/>
      <point x="306.82" y="-1.759999999999998"/>
      <point x="306.82" y="37.46" type="curve" smooth="yes"/>
      <point x="306.82" y="69.11999999999999"/>
      <point x="325.18" y="90.66"/>
      <point x="525.24" y="124.22" type="curve"/>
    </contour>
    <contour>
      <point x="552.76" y="455.38000000000005" type="curve" smooth="yes"/>
      <point x="552.76" y="522.12"/>
      <point x="513.78" y="555.8000000000001"/>
      <point x="410.2" y="555.8000000000001" type="curve" smooth="yes"/>
      <point x="306.47999999999996" y="555.8000000000001"/>
      <point x="267.64000000000004" y="522.12"/>
      <point x="267.64000000000004" y="455.38000000000005" type="curve" smooth="yes"/>
      <point x="267.64000000000004" y="387.78"/>
      <point x="306.47999999999996" y="354.1"/>
      <point x="410.2" y="354.1" type="curve" smooth="yes"/>
      <point x="513.92" y="354.1"/>
      <point x="552.76" y="387.78"/>
    </contour>
  </outline>
</glyph>
<glyph name="AE" format="2">
  <advance width="1642.8400000000001"/>
  <unicode hex="00C6"/>
  <anchor x="876.68" y="700.0" name="top"/>
  <outline>
    <contour>
      <point x="0.2799999999999988" y="0.0" type="line"/>
      <point x="307.72" y="0.0" type="line"/>
      <point x="454.68" y="168.92" type="line"/>
      <point x="736.5600000000001" y="168.92" type="line"/>
      <point x="736.5600000000001" y="0.0" type="line"/>
      <point x="1598.44" y="0.0" type="line"/>
      <point x="1598.44" y="184.0" type="line"/>
      <point x="983.6" y="184.0" type="line"/>
      <point x="983.6" y="273.32" type="line"/>
      <point x="1537.4400000000003" y="273.32" type="line"/>
      <point x="1537.4400000000003" y="437.91999999999996" type="line"/>
      <point x="983.6" y="437.91999999999996" type="line"/>
      <point x="983.6" y="516.0" type="line"/>
      <point x="1569.44" y="516.0" type="line"/>
      <point x="1569.44" y="700.0" type="line"/>
      <point x="622.76" y="700.0" type="line"/>
    </contour>
    <contour>
      <point x="586.64" y="340.72" type="line"/>
      <point x="736.56" y="510.43999999999994" type="line"/>
      <point x="736.56" y="340.72" type="line"/>
    </contour>
  </outline>
</glyph>
<glyph name="multiply" format="2">
  <advance width="664.9200000000001"/>
  <unicode hex="00D7"/>
  <outline>
    <contour>
      <point x="159.96" y="54.05999999999999" type="line"/>
      <point x="332.6" y="198.32" type="line"/>
      <point x="504.82" y="54.47999999999999" type="line"/>
      <point x="617.72" y="194.03999999999996" type="line"/>
      <point x="474.74" y="313.79999999999995" type="line"/>
      <point x="618.0" y="434.7" type="line"/>
      <point x="505.09999999999997" y="574.26" type="line"/>
      <point x="332.6" y="429.28000000000003" type="line"/>
      <point x="159.82000000000002" y="574.5400000000001" type="line"/>
      <point x="46.92" y="434.97999999999996" type="line"/>
      <point x="189.60000000000002" y="313.79999999999995" type="line"/>
      <point x="47.06" y="193.61999999999998" type="line"/>
    </contour>
  </outline>
</glyph>
<glyph name="Oslash" format="2">
  <advance width="1159.24"/>
  <unicode hex="00D8"/>
  <anchor x="579.6999999999999" y="700.0" name="top"/>
  <outline>
    <contour>
      <point x="254.72" y="-18.6" type="line"/>
      <point x="394.28000000000003" y="88.52000000000001" type="line"/>
      <point x="391.82" y="88.7" type="line"/>
      <point x="907.4799999999999" y="524.46" type="line"/>
      <point x="906.46" y="526.9399999999999" type="line"/>
      <point x="1124.0" y="718.6" type="line"/>
      <point x="902.6600000000001" y="718.6" type="line"/>
      <point x="776.48" y="618.1000000000001" type="line"/>
      <point x="778.9399999999998" y="617.92" type="line"/>
      <point x="245.46" y="170.12" type="line"/>
      <point x="247.48000000000002" y="167.08" type="line"/>
      <point x="35.24" y="-18.6" type="line"/>
    </contour>
    <contour>
      <point x="580.56" y="155.34" type="curve" smooth="yes"/>
      <point x="423.5" y="155.34"/>
      <point x="317.68" y="215.32"/>
      <point x="317.68" y="351.72" type="curve" smooth="yes"/>
      <point x="317.68" y="487.2200000000001"/>
      <point x="423.35999999999996" y="544.66"/>
      <point x="580.56" y="544.66" type="curve" smooth="yes"/>
      <point x="734.46" y="544.66"/>
      <point x="841.28" y="486.5"/>
      <point x="841.28" y="351.71999999999997" type="curve" smooth="yes"/>
      <point x="841.28" y="215.07999999999998"/>
      <point x="733.74" y="155.34"/>
    </contour>
    <contour>
      <point x="580.6999999999999" y="-10.0" type="curve" smooth="yes"/>
      <point x="933.9200000000001" y="-10.0"/>
      <point x="1115.26" y="105.62"/>
      <point x="1115.26" y="354.28000000000003" type="curve" smooth="yes"/>
      <point x="1115.26" y="588.3599999999999"/>
      <point x="952.16" y="710.0"/>
      <point x="580.56" y="710.0" type="curve" smooth="yes"/>
      <point x="205.96" y="710.0"/>
      <point x="43.98" y="587.8"/>
      <point x="43.98" y="353.58" type="curve" smooth="yes"/>
      <point x="43.98" y="108.0"/>
      <point x="225.88000000000002" y="-10.0"/>
    </contour>
  </outline>
</glyph>
<glyph name="Thorn" format="2">
  <advance width="1132.28"/>
  <unicode hex="00DE"/>
  <outline>
    <contour>
      <point x="84.38" y="0.0" type="line"/>
      <point x="362.38" y="0.0" type="line"/>
      <point x="362.38" y="106.22" type="line"/>
      <point x="523.52" y="102.22"/>
      <point x="478.66" y="102.08"/>
      <point x="640.78" y="102.08" type="curve" smooth="yes"/>
      <point x="983.58" y="102.08"/>
      <point x="1085.24" y="174.57999999999998"/>
      <point x="1085.24" y="371.9" type="curve" smooth="yes"/>
      <point x="1085.24" y="573.0400000000001"/>
      <point x="988.3399999999999" y="637.5999999999999"/>
      <point x="560.74" y="637.5999999999999" type="curve" smooth="yes"/>
      <point x="521.9599999999999" y="637.5999999999999"/>
      <point x="450.28" y="636.4599999999999"/>
      <point x="362.38" y="634.48" type="curve"/>
      <point x="362.38" y="700.0" type="line"/>
      <point x="84.38" y="700.0" type="line"/>
    </contour>
    <contour>
      <point x="519.52" y="283.76" type="curve" smooth="yes"/>
      <point x="472.41999999999996" y="283.76"/>
      <point x="443.14" y="285.03999999999996"/>
      <point x="362.38" y="288.9" type="curve"/>
      <point x="362.38" y="453.65999999999997" type="line"/>
      <point x="487.53999999999996" y="458.21999999999997"/>
      <point x="508.5" y="458.50000000000006"/>
      <point x="583.96" y="458.50000000000006" type="curve" smooth="yes"/>
      <point x="758.22" y="458.50000000000006"/>
      <point x="801.22" y="429.6"/>
      <point x="801.22" y="371.04" type="curve" smooth="yes"/>
      <point x="801.22" y="308.94"/>
      <point x="777.16" y="283.76"/>
    </contour>
  </outline>
</glyph>
<glyph name="germandbls" format="2">
  <advance width="1083.9199999999998"/>
  <unicode hex="00DF"/>
  <outline>
    <contour>
      <point x="127.24" y="0.0" type="line"/>
      <point x="388.04" y="0.0" type="line"/>
      <point x="388.04" y="461.6400000000001" type="line" smooth="yes"/>
      <point x="388.04" y="558.0"/>
      <point x="472.12000000000006" y="589.9600000000002"/>
      <point x="606.28" y="589.9600000000002" type="curve" smooth="yes"/>
      <point x="738.28" y="589.9600000000002"/>
      <point x="764.76" y="575.8399999999999"/>
      <point x="764.76" y="555.88" type="curve" smooth="yes"/>
      <point x="764.76" y="541.16"/>
      <point x="747.4399999999999" y="533.2"/>
      <point x="679.52" y="528.12" type="curve" smooth="yes"/>
      <point x="528.68" y="519.64"/>
      <point x="471.36" y="445.2"/>
      <point x="471.36" y="362.04" type="curve" smooth="yes"/>
      <point x="471.36" y="246.80000000000007"/>
      <point x="522.44" y="197.60000000000002"/>
      <point x="733.96" y="181.07999999999998" type="curve" smooth="yes"/>
      <point x="828.56" y="173.68"/>
      <point x="847.96" y="167.16"/>
      <point x="847.96" y="149.92000000000002" type="curve" smooth="yes"/>
      <point x="847.96" y="133.4"/>
      <point x="814.28" y="127.04"/>
      <point x="767.4000000000001" y="127.04" type="curve" smooth="yes"/>
      <point x="684.88" y="127.04"/>
      <point x="548.4399999999999" y="144.6"/>
      <point x="467.08" y="166.28" type="curve"/>
      <point x="442.16" y="20.639999999999997" type="line"/>
      <point x="546.8800000000001" y="-2.76"/>
      <point x="650.1999999999999" y="-10.28"/>
      <point x="745.7600000000001" y="-10.28" type="curve" smooth="yes"/>
      <point x="895.4399999999999" y="-10.28"/>
      <point x="1084.8000000000002" y="10.320000000000007"/>
      <point x="1084.8000000000002" y="169.84" type="curve" smooth="yes"/>
      <point x="1084.8000000000002" y="287.68"/>
      <point x="1008.0400000000001" y="331.23999999999995"/>
      <point x="844.48" y="340.99999999999994" type="curve" smooth="yes"/>
      <point x="731.12" y="347.24"/>
      <point x="702.5199999999999" y="349.64"/>
      <point x="702.5199999999999" y="370.32" type="curve" smooth="yes"/>
      <point x="702.5199999999999" y="386.15999999999997"/>
      <point x="725.24" y="390.99999999999994"/>
      <point x="785.88" y="397.52000000000004" type="curve" smooth="yes"/>
      <point x="917.6800000000001" y="410.6"/>
      <point x="994.1600000000001" y="453.56"/>
      <point x="994.1600000000001" y="559.24" type="curve" smooth="yes"/>
      <point x="994.1600000000001" y="697.2800000000001"/>
      <point x="858.24" y="750.0"/>
      <point x="597.96" y="750.0" type="curve" smooth="yes"/>
      <point x="279.08000000000004" y="750.0"/>
      <point x="127.23999999999998" y="680.9199999999998"/>
      <point x="127.24" y="499.1600000000001" type="curve" smooth="yes"/>
      <point x="127.24" y="484.00000000000006" type="line"/>
      <point x="18.480000000000004" y="466.24000000000007" type="line"/>
      <point x="18.480000000000004" y="327.4" type="line"/>
      <point x="127.24" y="327.4" type="line"/>
    </contour>
  </outline>
</glyph>
<glyph name="ae" format="2">
  <advance width="1321.24"/>
  <unicode hex="00E6"/>
  <anchor x="671.44" y="547.2" name="top"/>
  <outline>
    <contour>
      <point x="258.71999999999997" y="-10.0" type="curve" smooth="yes"/>
      <point x="386.56" y="-10.0"/>
      <point x="471.24000000000007" y="18.56"/>
      <point x="572.9999999999999" y="83.12000000000002" type="curve"/>
      <point x="574.7199999999999" y="83.12000000000002" type="line"/>
      <point x="651.12" y="16.400000000000002"/>
      <point x="751.04" y="-10.0"/>
      <point x="924.0799999999999" y="-10.0" type="curve" smooth="yes"/>
      <point x="1064.44" y="-10.0"/>
      <point x="1164.0400000000002" y="0.6799999999999997"/>
      <point x="1277.0400000000002" y="22.840000000000003" type="curve"/>
      <point x="1249.68" y="182.16" type="line"/>
      <point x="1147.5600000000002" y="164.44"/>
      <point x="1034.36" y="152.04"/>
      <point x="939.5600000000001" y="152.04" type="curve" smooth="yes"/>
      <point x="816.3600000000001" y="152.04"/>
      <point x="778.36" y="168.07999999999998"/>
      <point x="769.4799999999999" y="205.43999999999997" type="curve" smooth="yes"/>
      <point x="768.48" y="208.84"/>
      <point x="768.48" y="210.11999999999998"/>
      <point x="768.76" y="213.92" type="curve"/>
      <point x="1009.8399999999999" y="218.35999999999999"/>
      <point x="1165.0000000000002" y="228.76"/>
      <point x="1272.72" y="233.48" type="curve"/>
      <point x="1273.72" y="248.52"/>
      <point x="1274.72" y="268.0"/>
      <point x="1274.72" y="290.76" type="curve" smooth="yes"/>
      <point x="1274.72" y="471.76"/>
      <point x="1157.44" y="557.2"/>
      <point x="911.2799999999999" y="557.2" type="curve" smooth="yes"/>
      <point x="783.28" y="557.2"/>
      <point x="724.92" y="527.76"/>
      <point x="669.72" y="489.16" type="curve"/>
      <point x="668.0" y="489.16" type="line"/>
      <point x="591.88" y="540.0799999999999"/>
      <point x="532.72" y="557.2"/>
      <point x="384.24" y="557.2" type="curve" smooth="yes"/>
      <point x="289.32" y="557.2"/>
      <point x="181.12" y="545.2"/>
      <point x="77.24000000000001" y="521.9200000000001" type="curve"/>
      <point x="104.6" y="362.6" type="line"/>
      <point x="179.95999999999998" y="379.72"/>
      <point x="298.2" y="393.71999999999997"/>
      <point x="367.32" y="393.71999999999997" type="curve" smooth="yes"/>
      <point x="469.8399999999999" y="393.71999999999997"/>
      <point x="508.23999999999995" y="379.44"/>
      <point x="508.23999999999995" y="346.12" type="curve" smooth="yes"/>
      <point x="508.23999999999995" y="337.12" type="line"/>
      <point x="144.99999999999997" y="335.15999999999997"/>
      <point x="35.28" y="293.56"/>
      <point x="35.28" y="158.84" type="curve" smooth="yes"/>
      <point x="35.28" y="49.760000000000005"/>
      <point x="114.48" y="-10.0"/>
    </contour>
    <contour>
      <point x="366.08" y="122.03999999999999" type="curve" smooth="yes"/>
      <point x="326.28" y="122.03999999999999"/>
      <point x="303.96" y="134.55999999999997"/>
      <point x="303.96" y="161.39999999999998" type="curve" smooth="yes"/>
      <point x="303.96" y="207.76000000000002"/>
      <point x="338.28" y="218.11999999999998"/>
      <point x="508.67999999999995" y="223.24" type="curve"/>
      <point x="508.67999999999995" y="217.23999999999998"/>
      <point x="508.67999999999995" y="211.24"/>
      <point x="508.67999999999995" y="203.55999999999997" type="curve" smooth="yes"/>
      <point x="508.67999999999995" y="193.48"/>
      <point x="508.96" y="183.95999999999998"/>
      <point x="510.08" y="175.27999999999997" type="curve"/>
      <point x="478.76" y="144.79999999999998"/>
      <point x="413.64" y="122.03999999999999"/>
    </contour>
    <contour>
      <point x="770.0400000000001" y="338.11999999999995" type="curve"/>
      <point x="786.44" y="383.79999999999995"/>
      <point x="827.6" y="405.76"/>
      <point x="894.8" y="405.76" type="curve" smooth="yes"/>
      <point x="956.4" y="405.76"/>
      <point x="992.2799999999999" y="385.52"/>
      <point x="1006.7600000000001" y="345.08" type="curve"/>
      <point x="929.52" y="342.08"/>
      <point x="855.3199999999999" y="338.84"/>
    </contour>
  </outline>
</glyph>
<glyph name="eth" format="2">
  <advance width="877.76"/>
  <unicode hex="00F0"/>
  <outline>
    <contour>
      <point x="638.84" y="341.80000000000007" type="curve"/>
      <point x="640.56" y="479.4800000000001" type="line"/>
      <point x="562.6" y="510.92"/>
      <point x="498.36" y="520.52"/>
      <point x="396.68" y="520.52" type="curve" smooth="yes"/>
      <point x="147.12" y="520.52"/>
      <point x="31.999999999999996" y="416.8"/>
      <point x="31.999999999999996" y="251.16" type="curve" smooth="yes"/>
      <point x="31.999999999999996" y="84.88"/>
      <point x="161.44" y="-10.0"/>
      <point x="410.9200000000001" y="-10.0" type="curve" smooth="yes"/>
      <point x="702.4000000000001" y="-10.0"/>
      <point x="847.3199999999999" y="104.72000000000001"/>
      <point x="847.3199999999999" y="381.96" type="curve" smooth="yes"/>
      <point x="847.3199999999999" y="670.4399999999998"/>
      <point x="654.36" y="759.88"/>
      <point x="346.28" y="759.88" type="curve" smooth="yes"/>
      <point x="255.16" y="759.88"/>
      <point x="151.64" y="752.6000000000001"/>
      <point x="33.320000000000014" y="733.04" type="curve"/>
      <point x="48.36000000000001" y="604.12" type="line"/>
      <point x="167.0" y="618.24"/>
      <point x="221.48000000000002" y="621.48"/>
      <point x="290.96" y="621.48" type="curve" smooth="yes"/>
      <point x="537.8800000000001" y="621.48"/>
      <point x="599.2800000000001" y="577.8800000000001"/>
      <point x="599.2800000000001" y="362.04" type="curve" smooth="yes"/>
      <point x="599.2800000000001" y="201.0"/>
      <point x="556.68" y="146.88"/>
      <point x="444.59999999999997" y="146.88" type="curve" smooth="yes"/>
      <point x="345.72" y="146.88"/>
      <point x="297.23999999999995" y="187.32"/>
      <point x="297.23999999999995" y="263.48" type="curve" smooth="yes"/>
      <point x="297.23999999999995" y="337.56000000000006"/>
      <point x="338.08" y="375.96"/>
      <point x="447.72" y="375.96" type="curve" smooth="yes"/>
      <point x="515.1199999999999" y="375.96"/>
      <point x="587.44" y="361.92"/>
    </contour>
    <contour>
      <point x="289.24000000000007" y="527.8800000000001" type="line"/>
      <point x="548.1200000000001" y="634.9999999999999" type="line"/>
      <point x="553.5200000000001" y="645.2" type="line"/>
      <point x="837.5600000000001" y="763.36" type="line"/>
      <point x="623.12" y="763.36" type="line"/>
      <point x="447.52000000000004" y="690.44" type="line"/>
      <point x="458.75999999999993" y="686.84" type="line"/>
      <point x="74.08000000000004" y="527.8800000000001" type="line"/>
    </contour>
  </outline>
</glyph>
<glyph name="divide" format="2">
  <advance width="750.9200000000001"/>
  <unicode hex="00F7"/>
  <outline>
    <contour>
      <point x="266.44" y="87.07999999999998" type="curve" smooth="yes"/>
      <point x="266.44" y="35.68000000000001"/>
      <point x="296.96" y="9.880000000000003"/>
      <point x="375.6" y="9.880000000000003" type="curve" smooth="yes"/>
      <point x="455.24" y="9.880000000000003"/>
      <point x="485.47999999999996" y="35.68000000000001"/>
      <point x="485.47999999999996" y="87.07999999999998" type="curve" smooth="yes"/>
      <point x="485.47999999999996" y="139.92"/>
      <point x="455.24" y="166.0"/>
      <point x="375.6" y="166.0" type="curve" smooth="yes"/>
      <point x="296.68" y="166.0"/>
      <point x="266.44" y="139.92"/>
    </contour>
    <contour>
      <point x="266.44" y="541.8" type="curve" smooth="yes"/>
      <point x="266.44" y="490.68"/>
      <point x="296.96" y="464.6"/>
      <point x="375.6" y="464.6" type="curve" smooth="yes"/>
      <point x="455.24" y="464.6"/>
      <point x="485.47999999999996" y="490.68"/>
      <point x="485.47999999999996" y="541.8" type="curve" smooth="yes"/>
      <point x="485.47999999999996" y="594.92"/>
      <point x="455.24" y="620.7199999999999"/>
      <point x="375.6" y="620.7199999999999" type="curve" smooth="yes"/>
      <point x="296.68" y="620.7199999999999"/>
      <point x="266.44" y="594.92"/>
    </contour>
    <contour>
      <point x="60.559999999999995" y="224.96" type="line"/>
      <point x="690.6399999999999" y="224.96" type="line"/>
      <point x="690.6399999999999" y="403.91999999999996" type="line"/>
      <point x="60.559999999999995" y="403.91999999999996" type="line"/>
    </contour>
  </outline>
</glyph>
<glyph name="oslash" format="2">
  <advance width="895.36"/>
  <unicode hex="00F8"/>
  <anchor x="447.68" y="547.1999999999999" name="top"/>
  <outline>
    <contour>
      <point x="448.4" y="-10.0" type="curve" smooth="yes"/>
      <point x="161.03999999999996" y="-10.0"/>
      <point x="35.44" y="87.43999999999997"/>
      <point x="35.44" y="275.6" type="curve" smooth="yes"/>
      <point x="35.44" y="450.76000000000005"/>
      <point x="143.03999999999996" y="557.1999999999999"/>
      <point x="448.4" y="557.1999999999999" type="curve" smooth="yes"/>
      <point x="752.04" y="557.1999999999999"/>
      <point x="859.9200000000001" y="450.76000000000005"/>
      <point x="859.9200000000001" y="275.6" type="curve" smooth="yes"/>
      <point x="859.9200000000001" y="87.43999999999997"/>
      <point x="734.3199999999999" y="-10.0"/>
    </contour>
    <contour>
      <point x="447.68" y="133.84" type="curve" smooth="yes"/>
      <point x="557.4799999999999" y="133.84"/>
      <point x="602.56" y="186.56"/>
      <point x="602.56" y="274.88000000000005" type="curve" smooth="yes"/>
      <point x="602.56" y="356.64"/>
      <point x="565.16" y="413.36"/>
      <point x="447.68" y="413.36" type="curve" smooth="yes"/>
      <point x="330.92" y="413.36"/>
      <point x="292.8" y="356.64"/>
      <point x="292.8" y="274.88000000000005" type="curve" smooth="yes"/>
      <point x="292.8" y="186.56"/>
      <point x="337.6" y="133.84"/>
    </contour>
    <contour>
      <point x="35.44" y="-10.0" type="line"/>
      <point x="213.55999999999997" y="145.84" type="line"/>
      <point x="213.55999999999997" y="145.84" type="line"/>
      <point x="589.8799999999999" y="474.19999999999993" type="line"/>
      <point x="589.88" y="474.20000000000005" type="line"/>
      <point x="684.44" y="557.1999999999999" type="line"/>
      <point x="859.9200000000001" y="557.1999999999999" type="line"/>
      <point x="695.5600000000001" y="413.68000000000006" type="line"/>
      <point x="695.56" y="413.68000000000006" type="line"/>
      <point x="314.0799999999999" y="81.88" type="line"/>
      <point x="314.08" y="81.88" type="line"/>
      <point x="208.2" y="-10.0" type="line"/>
    </contour>
  </outline>
</glyph>
<glyph name="thorn" format="2">
  <advance width="919.48"/>
  <unicode hex="00FE"/>
  <outline>
    <contour>
      <point x="63.8" y="-210.0" type="line"/>
      <point x="325.46" y="-210.0" type="line"/>
      <point x="325.46" y="-3.7799999999999994" type="line"/>
      <point x="369.03999999999996" y="-7.880000000000001"/>
      <point x="414.46" y="-10.0"/>
      <point x="457.92" y="-10.0" type="curve" smooth="yes"/>
      <point x="755.3000000000001" y="-10.0"/>
      <point x="884.18" y="76.86"/>
      <point x="884.18" y="277.04" type="curve" smooth="yes"/>
      <point x="884.18" y="454.03999999999996"/>
      <point x="778.28" y="557.2"/>
      <point x="594.78" y="557.2" type="curve" smooth="yes"/>
      <point x="508.48" y="557.2"/>
      <point x="420.76" y="537.02"/>
      <point x="325.46000000000004" y="494.21999999999997" type="curve"/>
      <point x="325.46000000000004" y="740.0" type="line"/>
      <point x="63.8" y="740.0" type="line"/>
    </contour>
    <contour>
      <point x="460.5" y="148.32" type="curve" smooth="yes"/>
      <point x="417.44" y="148.32"/>
      <point x="369.42" y="153.88"/>
      <point x="324.59999999999997" y="165.14" type="curve"/>
      <point x="324.59999999999997" y="345.08000000000004" type="line"/>
      <point x="384.22" y="363.08"/>
      <point x="439.24" y="372.22"/>
      <point x="482.86" y="372.22" type="curve" smooth="yes"/>
      <point x="573.0600000000001" y="372.22"/>
      <point x="619.9399999999999" y="335.96"/>
      <point x="619.9399999999999" y="265.0" type="curve" smooth="yes"/>
      <point x="619.9399999999999" y="187.61999999999998"/>
      <point x="566.14" y="148.32"/>
    </contour>
  </outline>
</glyph>
<glyph name="Dcroat" format="2">
  <advance width="1147.8400000000001"/>
  <unicode hex="0110"/>
  <outline>
    <contour>
      <point x="19.519999999999996" y="273.6" type="line"/>
      <point x="564.04" y="273.6" type="line"/>
      <point x="564.04" y="435.35999999999996" type="line"/>
      <point x="19.519999999999996" y="435.35999999999996" type="line"/>
    </contour>
    <component base="D" xOffset="6.880000000000001"/>
  </outline>
</glyph>
<glyph name="dcroat" format="2">
  <advance width="929.08"/>
  <unicode hex="0111"/>
  <outline>
    <contour>
      <point x="360.88" y="589.76" type="line"/>
      <point x="935.4799999999999" y="589.76" type="line"/>
      <point x="935.4799999999999" y="685.0799999999999" type="line"/>
      <point x="360.88" y="685.0799999999999" type="line"/>
    </contour>
    <component base="d"/>
  </outline>
</glyph>
<glyph name="Hbar" format="2">
  <advance width="1159.36"/>
  <unicode hex="0126"/>
  <outline>
    <contour>
      <point x="31.120000000000005" y="498.04" type="line"/>
      <point x="88.12" y="498.04" type="line"/>
      <point x="88.12" y="0.0" type="line"/>
      <point x="366.12" y="0.0" type="line"/>
      <point x="366.12" y="222.2" type="line"/>
      <point x="801.8399999999999" y="222.2" type="line"/>
      <point x="801.8399999999999" y="0.0" type="line"/>
      <point x="1071.24" y="0.0" type="line"/>
      <point x="1071.24" y="498.04" type="line"/>
      <point x="1128.24" y="498.04" type="line"/>
      <point x="1128.24" y="624.8799999999999" type="line"/>
      <point x="1071.24" y="624.8799999999999" type="line"/>
      <point x="1071.24" y="700.0" type="line"/>
      <point x="801.8399999999999" y="700.0" type="line"/>
      <point x="801.8399999999999" y="624.8799999999999" type="line"/>
      <point x="366.12" y="624.8799999999999" type="line"/>
      <point x="366.12" y="700.0" type="line"/>
      <point x="88.12" y="700.0" type="line"/>
      <point x="88.12" y="624.8799999999999" type="line"/>
      <point x="31.120000000000005" y="624.8799999999999" type="line"/>
    </contour>
    <contour>
      <point x="366.12" y="431.4" type="line"/>
      <point x="366.12" y="498.04" type="line"/>
      <point x="801.8399999999999" y="498.04" type="line"/>
      <point x="801.8399999999999" y="431.4" type="line"/>
    </contour>
  </outline>
</glyph>
<glyph name="hbar" format="2">
  <advance width="892.14"/>
  <unicode hex="0127"/>
  <outline>
    <contour>
      <point x="-7.400000000000002" y="589.62" type="line"/>
      <point x="576.46" y="589.62" type="line"/>
      <point x="576.46" y="681.5799999999999" type="line"/>
      <point x="-7.400000000000002" y="681.5799999999999" type="line"/>
    </contour>
    <component base="h"/>
  </outline>
</glyph>
<glyph name="Idotaccent" format="2">
  <advance width="446.76"/>
  <unicode hex="0130"/>
  <outline>
    <contour>
      <point x="223.38" y="736.38" type="curve" smooth="yes"/>
      <point x="337.41999999999996" y="736.38"/>
      <point x="380.56" y="769.1999999999999"/>
      <point x="380.56" y="833.3599999999999" type="curve" smooth="yes"/>
      <point x="380.56" y="897.52"/>
      <point x="337.41999999999996" y="930.34"/>
      <point x="223.38" y="930.34" type="curve" smooth="yes"/>
      <point x="109.34" y="930.34"/>
      <point x="66.2" y="897.52"/>
      <point x="66.2" y="833.3599999999999" type="curve" smooth="yes"/>
      <point x="66.2" y="769.1999999999999"/>
      <point x="109.47999999999999" y="736.38"/>
    </contour>
    <component base="I"/>
  </outline>
</glyph>
<glyph name="dotlessi" format="2">
  <advance width="388.4"/>
  <unicode hex="0131"/>
  <anchor x="298.65999999999997" y="8.6" name="ogonek"/>
  <anchor x="194.2" y="0.0" name="bottom"/>
  <anchor x="194.2" y="547.2" name="top"/>
  <outline>
    <contour>
      <point x="63.8" y="0.0" type="line"/>
      <point x="324.6" y="0.0" type="line"/>
      <point x="324.6" y="547.2" type="line"/>
      <point x="63.8" y="547.2" type="line"/>
    </contour>
  </outline>
</glyph>
<glyph name="Ldot" format="2">
  <advance width="952.42"/>
  <unicode hex="013F"/>
  <outline>
    <contour>
      <point x="548.24" y="444.68" type="curve" smooth="yes"/>
      <point x="548.24" y="377.94"/>
      <point x="587.22" y="344.26000000000005"/>
      <point x="690.8" y="344.26000000000005" type="curve" smooth="yes"/>
      <point x="794.52" y="344.26000000000005"/>
      <point x="833.3599999999999" y="377.94"/>
      <point x="833.3599999999999" y="444.68" type="curve" smooth="yes"/>
      <point x="833.3599999999999" y="512.28"/>
      <point x="794.52" y="545.9599999999999"/>
      <point x="690.8" y="545.9599999999999" type="curve" smooth="yes"/>
      <point x="587.0799999999999" y="545.9599999999999"/>
      <point x="548.24" y="512.28"/>
    </contour>
    <component base="L"/>
  </outline>
</glyph>
<glyph name="ldot" format="2">
  <advance width="533.5799999999999"/>
  <unicode hex="0140"/>
  <outline>
    <contour>
      <point x="482.82" y="345.88" type="curve" smooth="yes"/>
      <point x="535.8" y="345.88"/>
      <point x="554.86" y="369.24"/>
      <point x="554.86" y="417.05999999999995" type="curve" smooth="yes"/>
      <point x="554.86" y="464.88"/>
      <point x="535.8" y="488.24"/>
      <point x="482.82" y="488.24" type="curve" smooth="yes"/>
      <point x="429.84" y="488.24"/>
      <point x="410.78000000000003" y="464.88"/>
      <point x="410.78000000000003" y="417.05999999999995" type="curve" smooth="yes"/>
      <point x="410.78000000000003" y="369.24"/>
      <point x="429.98" y="345.88"/>
    </contour>
    <component base="l"/>
  </outline>
</glyph>
<glyph name="Lslash" format="2">
  <advance width="952.42"/>
  <unicode hex="0141"/>
  <outline>
    <contour>
      <point x="1.92" y="144.32" type="line"/>
      <point x="84.38" y="181.22000000000003" type="line"/>
      <point x="84.38" y="0.0" type="line"/>
      <point x="918.26" y="0.0" type="line"/>
      <point x="918.26" y="209.20000000000002" type="line"/>
      <point x="362.38" y="209.20000000000002" type="line"/>
      <point x="362.38" y="299.71999999999997" type="line"/>
      <point x="656.7" y="432.88" type="line"/>
      <point x="656.7" y="632.3199999999999" type="line"/>
      <point x="362.38" y="499.16" type="line"/>
      <point x="362.38" y="700.0" type="line"/>
      <point x="84.38" y="700.0" type="line"/>
      <point x="84.38" y="380.66" type="line"/>
      <point x="1.92" y="343.76000000000005" type="line"/>
    </contour>
  </outline>
</glyph>
<glyph name="lslash" format="2">
  <advance width="533.58"/>
  <unicode hex="0142"/>
  <outline>
    <contour>
      <point x="291.5" y="-10.0" type="curve" smooth="yes"/>
      <point x="377.8" y="-10.0"/>
      <point x="465.53999999999996" y="3.16"/>
      <point x="537.54" y="22.2" type="curve"/>
      <point x="507.73999999999995" y="198.72" type="line"/>
      <point x="460.68" y="190.0"/>
      <point x="424.54" y="184.57999999999998"/>
      <point x="395.56" y="184.57999999999998" type="curve" smooth="yes"/>
      <point x="357.35999999999996" y="184.57999999999998"/>
      <point x="333.20000000000005" y="197.1"/>
      <point x="333.20000000000005" y="242.70000000000002" type="curve" smooth="yes"/>
      <point x="333.20000000000005" y="310.28000000000003" type="line"/>
      <point x="473.28000000000003" y="384.14" type="line"/>
      <point x="473.28000000000003" y="557.48" type="line"/>
      <point x="333.20000000000005" y="483.62" type="line"/>
      <point x="333.20000000000005" y="740.0" type="line"/>
      <point x="72.4" y="740.0" type="line"/>
      <point x="72.4" y="368.15999999999997" type="line"/>
      <point x="0.1599999999999966" y="330.46000000000004" type="line"/>
      <point x="0.1599999999999966" y="157.12" type="line"/>
      <point x="74.12" y="195.68" type="line"/>
      <point x="75.84" y="169.6" type="line" smooth="yes"/>
      <point x="90.46000000000001" y="35.76"/>
      <point x="159.88" y="-10.0"/>
    </contour>
  </outline>
</glyph>
<glyph name="Eng" format="2">
  <advance width="1082.36"/>
  <unicode hex="014A"/>
  <outline>
    <contour>
      <point x="84.38" y="0.0" type="line"/>
      <point x="336.58000000000004" y="0.0" type="line"/>
      <point x="336.58000000000004" y="365.8" type="line"/>
      <point x="745.78" y="15.219999999999999" type="line"/>
      <point x="745.78" y="4.200000000000001" type="line" smooth="yes"/>
      <point x="744.9399999999999" y="-28.879999999999995"/>
      <point x="703.78" y="-48.639999999999986"/>
      <point x="634.06" y="-48.639999999999986" type="curve" smooth="yes"/>
      <point x="598.2" y="-48.639999999999986"/>
      <point x="551.3199999999999" y="-43.38000000000001"/>
      <point x="496.92" y="-32.96000000000001" type="curve"/>
      <point x="460.96" y="-203.45999999999998" type="line"/>
      <point x="526.54" y="-214.74"/>
      <point x="592.62" y="-220.0"/>
      <point x="654.7" y="-220.0" type="curve" smooth="yes"/>
      <point x="852.8" y="-220.0"/>
      <point x="997.98" y="-157.12"/>
      <point x="997.98" y="-10.0" type="curve" smooth="yes"/>
      <point x="997.98" y="700.0" type="line"/>
      <point x="745.78" y="700.0" type="line"/>
      <point x="745.78" y="307.53999999999996" type="line"/>
      <point x="320.82" y="701.4" type="line"/>
      <point x="84.38" y="701.4" type="line"/>
    </contour>
  </outline>
</glyph>
<glyph name="eng" format="2">
  <advance width="892.1399999999999"/>
  <unicode hex="014B"/>
  <outline>
    <contour>
      <point x="828.34" y="51.3" type="curve"/>
      <point x="828.34" y="349.34000000000003" type="line" smooth="yes"/>
      <point x="828.34" y="461.28"/>
      <point x="750.2" y="557.2"/>
      <point x="574.44" y="557.2" type="curve" smooth="yes"/>
      <point x="475.18" y="557.2"/>
      <point x="405.14" y="530.12"/>
      <point x="297.94" y="478.43999999999994" type="curve"/>
      <point x="297.94" y="547.2" type="line"/>
      <point x="63.8" y="547.2" type="line"/>
      <point x="63.8" y="0.0" type="line"/>
      <point x="324.59999999999997" y="0.0" type="line"/>
      <point x="324.59999999999997" y="338.76" type="line"/>
      <point x="379.46" y="359.04"/>
      <point x="422.85999999999996" y="372.94"/>
      <point x="468.66" y="372.94" type="curve" smooth="yes"/>
      <point x="531.36" y="372.94"/>
      <point x="567.54" y="340.21999999999997"/>
      <point x="567.54" y="256.46" type="curve" smooth="yes"/>
      <point x="567.54" y="54.18" type="line" smooth="yes"/>
      <point x="567.54" y="-11.620000000000001"/>
      <point x="546.4200000000001" y="-30.060000000000006"/>
      <point x="504.74" y="-34.53999999999999" type="curve" smooth="yes"/>
      <point x="492.1600000000001" y="-35.38000000000001"/>
      <point x="476.14" y="-34.36"/>
      <point x="459.98" y="-33.2" type="curve"/>
      <point x="445.03999999999996" y="-210.3" type="line"/>
      <point x="478.54" y="-214.9"/>
      <point x="510.31999999999994" y="-216.64"/>
      <point x="540.1" y="-215.79999999999998" type="curve" smooth="yes"/>
      <point x="714.06" y="-210.9"/>
      <point x="828.34" y="-110.63999999999999"/>
    </contour>
  </outline>
</glyph>
<glyph name="OE" format="2">
  <advance width="1711.24"/>
  <unicode hex="0152"/>
  <outline>
    <contour>
      <point x="1666.84" y="0.0" type="line"/>
      <point x="1666.84" y="184.0" type="line"/>
      <point x="1049.96" y="184.0" type="line"/>
      <point x="1049.96" y="273.32000000000005" type="line"/>
      <point x="1605.84" y="273.32000000000005" type="line"/>
      <point x="1605.84" y="437.92" type="line"/>
      <point x="1049.96" y="437.92" type="line"/>
      <point x="1049.96" y="516.0" type="line"/>
      <point x="1637.84" y="516.0" type="line"/>
      <point x="1637.84" y="700.0" type="line"/>
      <point x="1049.96" y="700.0" type="line"/>
      <point x="908.44" y="704.0"/>
      <point x="772.2" y="710.0"/>
      <point x="570.84" y="710.0" type="curve" smooth="yes"/>
      <point x="202.80000000000004" y="710.0"/>
      <point x="43.839999999999996" y="566.08"/>
      <point x="43.839999999999996" y="356.0" type="curve" smooth="yes"/>
      <point x="43.839999999999996" y="108.56"/>
      <point x="210.52" y="-10.0"/>
      <point x="601.84" y="-10.0" type="curve" smooth="yes"/>
      <point x="792.8" y="-10.0"/>
      <point x="918.0" y="-5.720000000000001"/>
      <point x="1049.96" y="0.0" type="curve"/>
    </contour>
    <contour>
      <point x="778.4399999999999" y="167.92000000000002" type="line"/>
      <point x="737.68" y="165.92000000000002"/>
      <point x="667.64" y="163.08"/>
      <point x="568.56" y="163.08" type="curve" smooth="yes"/>
      <point x="436.68" y="163.08"/>
      <point x="326.28" y="217.28000000000003"/>
      <point x="326.28" y="353.28" type="curve" smooth="yes"/>
      <point x="326.28" y="476.32"/>
      <point x="435.52" y="536.2"/>
      <point x="555.04" y="536.2" type="curve" smooth="yes"/>
      <point x="639.16" y="536.2"/>
      <point x="711.0400000000001" y="532.08"/>
      <point x="778.4399999999999" y="530.36" type="curve"/>
    </contour>
  </outline>
</glyph>
<glyph name="oe" format="2">
  <advance width="1423.12"/>
  <unicode hex="0153"/>
  <outline>
    <contour>
      <point x="35.3" y="275.59999999999997" type="curve" smooth="yes"/>
      <point x="35.3" y="87.44"/>
      <point x="160.9" y="-10.0"/>
      <point x="448.4" y="-10.0" type="curve" smooth="yes"/>
      <point x="574.52" y="-10.0"/>
      <point x="665.8599999999999" y="15.299999999999997"/>
      <point x="726.6600000000001" y="62.04" type="curve"/>
      <point x="794.48" y="14.439999999999998"/>
      <point x="893.52" y="-10.0"/>
      <point x="1018.6800000000001" y="-10.0" type="curve" smooth="yes"/>
      <point x="1159.18" y="-10.0"/>
      <point x="1265.6399999999999" y="1.379999999999999"/>
      <point x="1378.64" y="23.400000000000002" type="curve"/>
      <point x="1351.42" y="182.72" type="line"/>
      <point x="1235.4" y="162.56"/>
      <point x="1117.92" y="150.18"/>
      <point x="1033.3000000000002" y="150.18" type="curve" smooth="yes"/>
      <point x="891.4199999999998" y="150.18"/>
      <point x="863.0799999999999" y="177.14"/>
      <point x="863.0799999999999" y="207.72" type="curve" smooth="yes"/>
      <point x="863.0799999999999" y="211.26000000000002"/>
      <point x="863.22" y="212.07999999999998"/>
      <point x="863.3599999999999" y="214.62" type="curve"/>
      <point x="1100.1399999999999" y="218.92000000000002"/>
      <point x="1266.6" y="229.32000000000002"/>
      <point x="1374.46" y="234.04" type="curve"/>
      <point x="1376.3200000000002" y="251.22"/>
      <point x="1376.3200000000002" y="276.14"/>
      <point x="1376.3200000000002" y="291.46" type="curve" smooth="yes"/>
      <point x="1376.3200000000002" y="475.3"/>
      <point x="1258.0" y="557.2"/>
      <point x="1012.88" y="557.2" type="curve" smooth="yes"/>
      <point x="908.8399999999999" y="557.2"/>
      <point x="811.3399999999999" y="530.4599999999999"/>
      <point x="742.8399999999999" y="477.04" type="curve"/>
      <point x="681.44" y="527.64"/>
      <point x="588.06" y="557.2"/>
      <point x="448.4" y="557.2" type="curve" smooth="yes"/>
      <point x="143.04000000000002" y="557.2"/>
      <point x="35.3" y="450.76"/>
    </contour>
    <contour>
      <point x="300.40000000000003" y="274.73999999999995" type="curve" smooth="yes"/>
      <point x="300.40000000000003" y="352.2"/>
      <point x="336.94" y="409.06"/>
      <point x="447.53999999999996" y="409.06" type="curve" smooth="yes"/>
      <point x="559.0" y="409.06"/>
      <point x="594.68" y="352.2"/>
      <point x="594.68" y="274.73999999999995" type="curve" smooth="yes"/>
      <point x="594.68" y="191.58"/>
      <point x="551.46" y="138.14"/>
      <point x="447.53999999999996" y="138.14" type="curve" smooth="yes"/>
      <point x="343.62" y="138.14"/>
      <point x="300.40000000000003" y="191.58"/>
    </contour>
    <contour>
      <point x="864.78" y="338.67999999999995" type="curve"/>
      <point x="883.0199999999999" y="389.02000000000004"/>
      <point x="936.1200000000001" y="405.62"/>
      <point x="996.5400000000001" y="405.62" type="curve" smooth="yes"/>
      <point x="1065.52" y="405.62"/>
      <point x="1095.6" y="384.06"/>
      <point x="1108.5" y="345.78" type="curve"/>
      <point x="1051.9" y="343.64"/>
      <point x="960.3799999999999" y="339.53999999999996"/>
    </contour>
  </outline>
</glyph>
<glyph name="uni0162" format="2">
  <advance width="1032.08"/>
  <unicode hex="0162"/>
  <outline>
    <contour>
      <point x="361.28000000000003" y="-70.98" type="curve"/>
      <point x="355.0" y="-204.22" type="line"/>
      <point x="401.94" y="-214.88"/>
      <point x="442.46" y="-220.0"/>
      <point x="478.0" y="-220.0" type="curve" smooth="yes"/>
      <point x="621.9" y="-220.0"/>
      <point x="677.22" y="-150.9"/>
      <point x="677.22" y="-78.16" type="curve" smooth="yes"/>
      <point x="677.22" y="-45.800000000000004"/>
      <point x="663.3399999999999" y="-15.54"/>
      <point x="637.5600000000001" y="9.3" type="curve"/>
      <point x="426.05999999999995" y="8.6" type="line"/>
      <point x="447.32" y="-5.059999999999999"/>
      <point x="462.0" y="-19.0"/>
      <point x="462.0" y="-36.88000000000001" type="curve" smooth="yes"/>
      <point x="462.0" y="-64.94"/>
      <point x="444.5" y="-77.88"/>
      <point x="402.32" y="-77.88" type="curve" smooth="yes"/>
      <point x="392.85999999999996" y="-77.88"/>
      <point x="373.4" y="-75.34"/>
    </contour>
    <component base="T"/>
  </outline>
</glyph>
<glyph name="Tbar" format="2">
  <advance width="1049.28"/>
  <unicode hex="0166"/>
  <outline>
    <contour>
      <point x="159.98" y="204.87999999999997" type="line"/>
      <point x="385.64" y="204.87999999999997" type="line"/>
      <point x="385.64" y="0.0" type="line"/>
      <point x="663.64" y="0.0" type="line"/>
      <point x="663.64" y="204.87999999999997" type="line"/>
      <point x="889.3000000000001" y="204.87999999999997" type="line"/>
      <point x="889.3000000000001" y="388.28000000000003" type="line"/>
      <point x="663.64" y="388.28000000000003" type="line"/>
      <point x="663.64" y="491.0799999999999" type="line"/>
      <point x="1018.34" y="491.0799999999999" type="line"/>
      <point x="1018.34" y="700.0" type="line"/>
      <point x="30.94" y="700.0" type="line"/>
      <point x="30.94" y="491.0799999999999" type="line"/>
      <point x="385.64" y="491.0799999999999" type="line"/>
      <point x="385.64" y="388.28000000000003" type="line"/>
      <point x="159.98" y="388.28000000000003" type="line"/>
    </contour>
  </outline>
</glyph>
<glyph name="tbar" format="2">
  <advance width="648.0400000000001"/>
  <unicode hex="0167"/>
  <outline>
    <contour>
      <point x="387.44" y="255.55999999999997" type="line"/>
      <point x="570.0799999999999" y="255.55999999999997" type="line"/>
      <point x="570.0799999999999" y="364.64" type="line"/>
      <point x="387.44" y="364.64" type="line"/>
      <point x="387.44" y="413.64" type="line"/>
      <point x="595.04" y="413.64" type="line"/>
      <point x="595.04" y="547.1999999999999" type="line"/>
      <point x="387.44" y="547.1999999999999" type="line"/>
      <point x="387.44" y="665.0" type="line"/>
      <point x="153.0" y="665.0" type="line"/>
      <point x="126.63999999999999" y="547.1999999999999" type="line"/>
      <point x="5.119999999999999" y="529.4399999999999" type="line"/>
      <point x="5.119999999999999" y="413.64000000000004" type="line"/>
      <point x="126.63999999999999" y="413.64000000000004" type="line"/>
      <point x="126.63999999999999" y="364.64" type="line"/>
      <point x="16.320000000000007" y="364.64" type="line"/>
      <point x="16.320000000000007" y="255.55999999999997" type="line"/>
      <point x="126.63999999999999" y="255.55999999999997" type="line"/>
      <point x="126.63999999999999" y="223.15999999999997" type="line" smooth="yes"/>
      <point x="126.63999999999999" y="54.760000000000005"/>
      <point x="221.27999999999997" y="-10.0"/>
      <point x="373.67999999999995" y="-10.0" type="curve" smooth="yes"/>
      <point x="462.2" y="-10.0"/>
      <point x="535.3200000000002" y="3.0"/>
      <point x="624.76" y="23.400000000000006" type="curve"/>
      <point x="594.68" y="202.35999999999999" type="line"/>
      <point x="541.72" y="187.95999999999998"/>
      <point x="498.96" y="182.0"/>
      <point x="464.67999999999995" y="182.0" type="curve" smooth="yes"/>
      <point x="408.76" y="182.0"/>
      <point x="387.44" y="199.87999999999997"/>
      <point x="387.44" y="223.16" type="curve" smooth="yes"/>
    </contour>
  </outline>
</glyph>
